solid CATIA STL
  facet normal -1.000000e+000  0.000000e+000  0.000000e+000
    outer loop
      vertex  1.846432e+001 -2.316971e+001  2.220446e-016
      vertex  1.846432e+001 -2.316971e+001 -4.999865e+000
      vertex  1.846432e+001 -5.063287e+001  2.220446e-016
    endloop
  endfacet
  facet normal -1.000000e+000  0.000000e+000  0.000000e+000
    outer loop
      vertex  1.846432e+001 -5.063287e+001  2.220446e-016
      vertex  1.846432e+001 -2.316971e+001 -4.999865e+000
      vertex  1.846432e+001 -5.063287e+001 -4.999865e+000
    endloop
  endfacet
  facet normal -9.659257e-001  2.588196e-001  0.000000e+000
    outer loop
      vertex  1.800315e+001 -5.235397e+001 -4.999865e+000
      vertex  1.846432e+001 -5.063287e+001  2.220446e-016
      vertex  1.846432e+001 -5.063287e+001 -4.999865e+000
    endloop
  endfacet
  facet normal -9.659257e-001  2.588196e-001  0.000000e+000
    outer loop
      vertex  1.846432e+001 -5.063287e+001  2.220446e-016
      vertex  1.800315e+001 -5.235397e+001 -4.999865e+000
      vertex  1.800315e+001 -5.235397e+001  0.000000e+000
    endloop
  endfacet
  facet normal -7.071073e-001  7.071062e-001  0.000000e+000
    outer loop
      vertex  1.800315e+001 -5.235397e+001  0.000000e+000
      vertex  1.800315e+001 -5.235397e+001 -4.999865e+000
      vertex  1.674322e+001 -5.361391e+001 -4.999865e+000
    endloop
  endfacet
  facet normal -7.071073e-001  7.071062e-001  0.000000e+000
    outer loop
      vertex  1.800315e+001 -5.235397e+001  0.000000e+000
      vertex  1.674322e+001 -5.361391e+001 -4.999865e+000
      vertex  1.674322e+001 -5.361391e+001  0.000000e+000
    endloop
  endfacet
  facet normal -2.588186e-001  9.659259e-001  0.000000e+000
    outer loop
      vertex  1.674322e+001 -5.361391e+001  0.000000e+000
      vertex  1.674322e+001 -5.361391e+001 -4.999865e+000
      vertex  1.502212e+001 -5.407507e+001 -4.999865e+000
    endloop
  endfacet
  facet normal -2.588186e-001  9.659259e-001  0.000000e+000
    outer loop
      vertex  1.674322e+001 -5.361391e+001  0.000000e+000
      vertex  1.502212e+001 -5.407507e+001 -4.999865e+000
      vertex  1.502212e+001 -5.407507e+001  0.000000e+000
    endloop
  endfacet
  facet normal  0.000000e+000  1.000000e+000  -0.000000e+000
    outer loop
      vertex  1.502212e+001 -5.407507e+001  0.000000e+000
      vertex  1.502212e+001 -5.407507e+001 -4.999865e+000
      vertex -1.284058e+001 -5.407507e+001  2.220446e-016
    endloop
  endfacet
  facet normal  0.000000e+000  1.000000e+000  0.000000e+000
    outer loop
      vertex -1.284058e+001 -5.407507e+001  2.220446e-016
      vertex  1.502212e+001 -5.407507e+001 -4.999865e+000
      vertex -1.284058e+001 -5.407507e+001 -4.999865e+000
    endloop
  endfacet
  facet normal  2.588187e-001  9.659259e-001  0.000000e+000
    outer loop
      vertex -1.565245e+001 -5.332164e+001 -4.999865e+000
      vertex -1.284058e+001 -5.407507e+001  2.220446e-016
      vertex -1.284058e+001 -5.407507e+001 -4.999865e+000
    endloop
  endfacet
  facet normal  2.588187e-001  9.659259e-001  -0.000000e+000
    outer loop
      vertex -1.284058e+001 -5.407507e+001  2.220446e-016
      vertex -1.565245e+001 -5.332164e+001 -4.999865e+000
      vertex -1.565245e+001 -5.332164e+001  0.000000e+000
    endloop
  endfacet
  facet normal  7.071072e-001  7.071062e-001  0.000000e+000
    outer loop
      vertex -1.565245e+001 -5.332164e+001  0.000000e+000
      vertex -1.565245e+001 -5.332164e+001 -4.999865e+000
      vertex -1.771088e+001 -5.126320e+001 -4.999865e+000
    endloop
  endfacet
  facet normal  7.071072e-001  7.071062e-001  -0.000000e+000
    outer loop
      vertex -1.565245e+001 -5.332164e+001  0.000000e+000
      vertex -1.771088e+001 -5.126320e+001 -4.999865e+000
      vertex -1.771088e+001 -5.126320e+001  0.000000e+000
    endloop
  endfacet
  facet normal  9.659258e-001  2.588192e-001  0.000000e+000
    outer loop
      vertex -1.771088e+001 -5.126320e+001  0.000000e+000
      vertex -1.771088e+001 -5.126320e+001 -4.999865e+000
      vertex -1.846432e+001 -4.845133e+001 -4.999865e+000
    endloop
  endfacet
  facet normal  9.659258e-001  2.588192e-001  -0.000000e+000
    outer loop
      vertex -1.771088e+001 -5.126320e+001  0.000000e+000
      vertex -1.846432e+001 -4.845133e+001 -4.999865e+000
      vertex -1.846432e+001 -4.845133e+001  0.000000e+000
    endloop
  endfacet
  facet normal  9.999999e-001  0.000000e+000  0.000000e+000
    outer loop
      vertex -1.846432e+001 -4.845133e+001  0.000000e+000
      vertex -1.846432e+001 -4.845133e+001 -4.999865e+000
      vertex -1.846432e+001 -3.574350e+001  2.220446e-016
    endloop
  endfacet
  facet normal  9.999999e-001  0.000000e+000  0.000000e+000
    outer loop
      vertex -1.846432e+001 -3.574350e+001  2.220446e-016
      vertex -1.846432e+001 -4.845133e+001 -4.999865e+000
      vertex -1.846432e+001 -3.574350e+001 -4.999865e+000
    endloop
  endfacet
  facet normal  2.512463e-001  9.679232e-001  0.000000e+000
    outer loop
      vertex -2.019049e+001 -3.529543e+001  0.000000e+000
      vertex -1.846432e+001 -3.574350e+001  2.220446e-016
      vertex -2.019049e+001 -3.529543e+001 -4.999865e+000
    endloop
  endfacet
  facet normal  2.512463e-001  9.679232e-001  0.000000e+000
    outer loop
      vertex -2.019049e+001 -3.529543e+001 -4.999865e+000
      vertex -1.846432e+001 -3.574350e+001  2.220446e-016
      vertex -1.846432e+001 -3.574350e+001 -4.999865e+000
    endloop
  endfacet
  facet normal  4.863744e-001  8.737504e-001  -0.000000e+000
    outer loop
      vertex -2.019049e+001 -3.529543e+001  0.000000e+000
      vertex -2.019049e+001 -3.529543e+001 -4.999865e+000
      vertex -3.640303e+001 -2.627070e+001  2.220446e-016
    endloop
  endfacet
  facet normal  4.863744e-001  8.737504e-001  0.000000e+000
    outer loop
      vertex -3.640303e+001 -2.627070e+001  2.220446e-016
      vertex -2.019049e+001 -3.529543e+001 -4.999865e+000
      vertex -3.640303e+001 -2.627070e+001 -4.999865e+000
    endloop
  endfacet
  facet normal  9.927626e-001  1.200928e-001  0.000000e+000
    outer loop
      vertex -3.815949e+001 -2.248628e+001 -4.999865e+000
      vertex -3.789608e+001 -2.466385e+001  0.000000e+000
      vertex -3.789608e+001 -2.466385e+001 -4.999865e+000
    endloop
  endfacet
  facet normal  7.325739e-001  6.806875e-001  -0.000000e+000
    outer loop
      vertex -3.789608e+001 -2.466385e+001 -4.999865e+000
      vertex -3.789608e+001 -2.466385e+001  0.000000e+000
      vertex -3.640303e+001 -2.627070e+001  2.220446e-016
    endloop
  endfacet
  facet normal  7.325739e-001  6.806875e-001  0.000000e+000
    outer loop
      vertex -3.789608e+001 -2.466385e+001 -4.999865e+000
      vertex -3.640303e+001 -2.627070e+001  2.220446e-016
      vertex -3.640303e+001 -2.627070e+001 -4.999865e+000
    endloop
  endfacet
  facet normal  9.927626e-001  1.200928e-001  -0.000000e+000
    outer loop
      vertex -3.789608e+001 -2.466385e+001  0.000000e+000
      vertex -3.815949e+001 -2.248628e+001 -4.999865e+000
      vertex -3.815949e+001 -2.248628e+001  0.000000e+000
    endloop
  endfacet
  facet normal  8.737504e-001 -4.863746e-001  0.000000e+000
    outer loop
      vertex -3.815949e+001 -2.248628e+001  0.000000e+000
      vertex -3.815949e+001 -2.248628e+001 -4.999865e+000
      vertex -3.709266e+001 -2.056976e+001 -4.999865e+000
    endloop
  endfacet
  facet normal  8.737504e-001 -4.863746e-001  0.000000e+000
    outer loop
      vertex -3.815949e+001 -2.248628e+001  0.000000e+000
      vertex -3.709266e+001 -2.056976e+001 -4.999865e+000
      vertex -3.709266e+001 -2.056976e+001  0.000000e+000
    endloop
  endfacet
  facet normal  4.209962e-001 -9.070624e-001  0.000000e+000
    outer loop
      vertex -3.709266e+001 -2.056976e+001  0.000000e+000
      vertex -3.709266e+001 -2.056976e+001 -4.999865e+000
      vertex -3.510307e+001 -1.964633e+001 -4.999865e+000
    endloop
  endfacet
  facet normal  4.209962e-001 -9.070624e-001  0.000000e+000
    outer loop
      vertex -3.709266e+001 -2.056976e+001  0.000000e+000
      vertex -3.510307e+001 -1.964633e+001 -4.999865e+000
      vertex -3.510307e+001 -1.964633e+001  0.000000e+000
    endloop
  endfacet
  facet normal -1.925660e-001 -9.812840e-001  -0.000000e+000
    outer loop
      vertex -3.510307e+001 -1.964633e+001  0.000000e+000
      vertex -3.510307e+001 -1.964633e+001 -4.999865e+000
      vertex -3.295068e+001 -2.006871e+001 -4.999865e+000
    endloop
  endfacet
  facet normal -1.925660e-001 -9.812840e-001  0.000000e+000
    outer loop
      vertex -3.510307e+001 -1.964633e+001  0.000000e+000
      vertex -3.295068e+001 -2.006871e+001 -4.999865e+000
      vertex -3.295068e+001 -2.006871e+001  0.000000e+000
    endloop
  endfacet
  facet normal -4.863745e-001 -8.737504e-001  0.000000e+000
    outer loop
      vertex -3.295068e+001 -2.006871e+001  0.000000e+000
      vertex -3.295068e+001 -2.006871e+001 -4.999865e+000
      vertex -1.846432e+001 -2.813257e+001  0.000000e+000
    endloop
  endfacet
  facet normal -4.863745e-001 -8.737504e-001  -0.000000e+000
    outer loop
      vertex -1.846432e+001 -2.813257e+001  0.000000e+000
      vertex -3.295068e+001 -2.006871e+001 -4.999865e+000
      vertex -1.846432e+001 -2.813257e+001 -4.999865e+000
    endloop
  endfacet
  facet normal  1.000000e+000  0.000000e+000  0.000000e+000
    outer loop
      vertex -1.846432e+001 -2.813257e+001  0.000000e+000
      vertex -1.846432e+001 -2.813257e+001 -4.999865e+000
      vertex -1.846432e+001 -2.484421e+001  2.220446e-016
    endloop
  endfacet
  facet normal  1.000000e+000  0.000000e+000  0.000000e+000
    outer loop
      vertex -1.846432e+001 -2.484421e+001  2.220446e-016
      vertex -1.846432e+001 -2.813257e+001 -4.999865e+000
      vertex -1.846432e+001 -2.484421e+001 -4.999865e+000
    endloop
  endfacet
  facet normal  9.762434e-001 -2.166770e-001  0.000000e+000
    outer loop
      vertex -1.802872e+001 -2.288157e+001 -4.999865e+000
      vertex -1.846432e+001 -2.484421e+001  2.220446e-016
      vertex -1.846432e+001 -2.484421e+001 -4.999865e+000
    endloop
  endfacet
  facet normal  9.762434e-001 -2.166770e-001  0.000000e+000
    outer loop
      vertex -1.846432e+001 -2.484421e+001  2.220446e-016
      vertex -1.802872e+001 -2.288157e+001 -4.999865e+000
      vertex -1.802872e+001 -2.288157e+001  0.000000e+000
    endloop
  endfacet
  facet normal  7.929099e-001 -6.093391e-001  0.000000e+000
    outer loop
      vertex -1.802872e+001 -2.288157e+001  0.000000e+000
      vertex -1.802872e+001 -2.288157e+001 -4.999865e+000
      vertex -1.680371e+001 -2.128752e+001 -4.999865e+000
    endloop
  endfacet
  facet normal  7.929099e-001 -6.093391e-001  0.000000e+000
    outer loop
      vertex -1.802872e+001 -2.288157e+001  0.000000e+000
      vertex -1.680371e+001 -2.128752e+001 -4.999865e+000
      vertex -1.680371e+001 -2.128752e+001  0.000000e+000
    endloop
  endfacet
  facet normal  4.606719e-001 -8.875704e-001  0.000000e+000
    outer loop
      vertex -1.680371e+001 -2.128752e+001  0.000000e+000
      vertex -1.680371e+001 -2.128752e+001 -4.999865e+000
      vertex -1.501934e+001 -2.036138e+001 -4.999865e+000
    endloop
  endfacet
  facet normal  4.606719e-001 -8.875704e-001  0.000000e+000
    outer loop
      vertex -1.680371e+001 -2.128752e+001  0.000000e+000
      vertex -1.501934e+001 -2.036138e+001 -4.999865e+000
      vertex -1.501934e+001 -2.036138e+001  0.000000e+000
    endloop
  endfacet
  facet normal  9.793879e-001  2.019885e-001  -0.000000e+000
    outer loop
      vertex -1.501934e+001 -2.036138e+001  0.000000e+000
      vertex -1.501934e+001 -2.036138e+001 -4.999865e+000
      vertex -2.100448e+001  8.658964e+000  2.220446e-016
    endloop
  endfacet
  facet normal  9.793879e-001  2.019885e-001  0.000000e+000
    outer loop
      vertex -2.100448e+001  8.658964e+000  2.220446e-016
      vertex -1.501934e+001 -2.036138e+001 -4.999865e+000
      vertex -2.100448e+001  8.658964e+000 -4.999865e+000
    endloop
  endfacet
  facet normal  7.390820e-001 -6.736154e-001  0.000000e+000
    outer loop
      vertex -1.906171e+001  1.295240e+001 -4.999865e+000
      vertex -2.073060e+001  1.112130e+001  0.000000e+000
      vertex -2.073060e+001  1.112130e+001 -4.999865e+000
    endloop
  endfacet
  facet normal  9.938712e-001 -1.105451e-001  0.000000e+000
    outer loop
      vertex -2.073060e+001  1.112130e+001 -4.999865e+000
      vertex -2.073060e+001  1.112130e+001  0.000000e+000
      vertex -2.100448e+001  8.658964e+000  2.220446e-016
    endloop
  endfacet
  facet normal  9.938712e-001 -1.105451e-001  0.000000e+000
    outer loop
      vertex -2.073060e+001  1.112130e+001 -4.999865e+000
      vertex -2.100448e+001  8.658964e+000  2.220446e-016
      vertex -2.100448e+001  8.658964e+000 -4.999865e+000
    endloop
  endfacet
  facet normal  7.390820e-001 -6.736154e-001  0.000000e+000
    outer loop
      vertex -2.073060e+001  1.112130e+001  0.000000e+000
      vertex -1.906171e+001  1.295240e+001 -4.999865e+000
      vertex -1.906171e+001  1.295240e+001  0.000000e+000
    endloop
  endfacet
  facet normal  2.019884e-001 -9.793879e-001  0.000000e+000
    outer loop
      vertex -1.906171e+001  1.295240e+001  0.000000e+000
      vertex -1.906171e+001  1.295240e+001 -4.999865e+000
      vertex -1.663525e+001  1.345283e+001 -4.999865e+000
    endloop
  endfacet
  facet normal  2.019884e-001 -9.793879e-001  0.000000e+000
    outer loop
      vertex -1.906171e+001  1.295240e+001  0.000000e+000
      vertex -1.663525e+001  1.345283e+001 -4.999865e+000
      vertex -1.663525e+001  1.345283e+001  0.000000e+000
    endloop
  endfacet
  facet normal -4.122576e-001 -9.110673e-001  -0.000000e+000
    outer loop
      vertex -1.663525e+001  1.345283e+001  0.000000e+000
      vertex -1.663525e+001  1.345283e+001 -4.999865e+000
      vertex -1.437806e+001  1.243145e+001 -4.999865e+000
    endloop
  endfacet
  facet normal -4.122576e-001 -9.110673e-001  0.000000e+000
    outer loop
      vertex -1.663525e+001  1.345283e+001  0.000000e+000
      vertex -1.437806e+001  1.243145e+001 -4.999865e+000
      vertex -1.437806e+001  1.243145e+001  0.000000e+000
    endloop
  endfacet
  facet normal -8.690354e-001 -4.947501e-001  -0.000000e+000
    outer loop
      vertex -1.437806e+001  1.243145e+001  0.000000e+000
      vertex -1.437806e+001  1.243145e+001 -4.999865e+000
      vertex -1.315231e+001  1.027839e+001 -4.999865e+000
    endloop
  endfacet
  facet normal -8.690354e-001 -4.947501e-001  0.000000e+000
    outer loop
      vertex -1.437806e+001  1.243145e+001  0.000000e+000
      vertex -1.315231e+001  1.027839e+001 -4.999865e+000
      vertex -1.315231e+001  1.027839e+001  0.000000e+000
    endloop
  endfacet
  facet normal -9.793879e-001 -2.019885e-001  0.000000e+000
    outer loop
      vertex -1.315231e+001  1.027839e+001  0.000000e+000
      vertex -1.315231e+001  1.027839e+001 -4.999865e+000
      vertex -7.032409e+000 -1.939534e+001  2.220446e-016
    endloop
  endfacet
  facet normal -9.793879e-001 -2.019885e-001  -0.000000e+000
    outer loop
      vertex -7.032409e+000 -1.939534e+001  2.220446e-016
      vertex -1.315231e+001  1.027839e+001 -4.999865e+000
      vertex -7.032409e+000 -1.939534e+001 -4.999865e+000
    endloop
  endfacet
  facet normal -9.948336e-001 -1.015188e-001  0.000000e+000
    outer loop
      vertex -6.949780e+000 -2.020505e+001  0.000000e+000
      vertex -7.032409e+000 -1.939534e+001  2.220446e-016
      vertex -6.949780e+000 -2.020505e+001 -4.999865e+000
    endloop
  endfacet
  facet normal -9.948336e-001 -1.015188e-001  0.000000e+000
    outer loop
      vertex -6.949780e+000 -2.020505e+001 -4.999865e+000
      vertex -7.032409e+000 -1.939534e+001  2.220446e-016
      vertex -7.032409e+000 -1.939534e+001 -4.999865e+000
    endloop
  endfacet
  facet normal  0.000000e+000 -1.000000e+000  0.000000e+000
    outer loop
      vertex -6.949780e+000 -2.020505e+001  0.000000e+000
      vertex -6.949780e+000 -2.020505e+001 -4.999865e+000
      vertex -2.173416e-001 -2.020505e+001  0.000000e+000
    endloop
  endfacet
  facet normal  0.000000e+000 -1.000000e+000  -0.000000e+000
    outer loop
      vertex -2.173416e-001 -2.020505e+001  0.000000e+000
      vertex -6.949780e+000 -2.020505e+001 -4.999865e+000
      vertex -2.173416e-001 -2.020505e+001 -4.999865e+000
    endloop
  endfacet
  facet normal  9.963653e-001  8.518302e-002  -0.000000e+000
    outer loop
      vertex -2.173416e-001 -2.020505e+001  0.000000e+000
      vertex -2.173416e-001 -2.020505e+001 -4.999865e+000
      vertex -2.987808e+000  1.220043e+001  2.220446e-016
    endloop
  endfacet
  facet normal  9.963653e-001  8.518302e-002  0.000000e+000
    outer loop
      vertex -2.987808e+000  1.220043e+001  2.220446e-016
      vertex -2.173416e-001 -2.020505e+001 -4.999865e+000
      vertex -2.987808e+000  1.220043e+001 -4.999865e+000
    endloop
  endfacet
  facet normal  4.599913e-001 -8.879234e-001  0.000000e+000
    outer loop
      vertex -6.846142e-001  1.493425e+001 -4.999865e+000
      vertex -2.402406e+000  1.404435e+001  0.000000e+000
      vertex -2.402406e+000  1.404435e+001 -4.999865e+000
    endloop
  endfacet
  facet normal  9.531196e-001 -3.025937e-001  0.000000e+000
    outer loop
      vertex -2.402406e+000  1.404435e+001 -4.999865e+000
      vertex -2.402406e+000  1.404435e+001  0.000000e+000
      vertex -2.987808e+000  1.220043e+001  2.220446e-016
    endloop
  endfacet
  facet normal  9.531196e-001 -3.025937e-001  0.000000e+000
    outer loop
      vertex -2.402406e+000  1.404435e+001 -4.999865e+000
      vertex -2.987808e+000  1.220043e+001  2.220446e-016
      vertex -2.987808e+000  1.220043e+001 -4.999865e+000
    endloop
  endfacet
  facet normal  4.599913e-001 -8.879234e-001  0.000000e+000
    outer loop
      vertex -2.402406e+000  1.404435e+001  0.000000e+000
      vertex -6.846142e-001  1.493425e+001 -4.999865e+000
      vertex -6.846142e-001  1.493425e+001  0.000000e+000
    endloop
  endfacet
  facet normal -3.025936e-001 -9.531196e-001  -0.000000e+000
    outer loop
      vertex -6.846142e-001  1.493425e+001  0.000000e+000
      vertex -6.846142e-001  1.493425e+001 -4.999865e+000
      vertex  1.159307e+000  1.434885e+001 -4.999865e+000
    endloop
  endfacet
  facet normal -3.025936e-001 -9.531196e-001  0.000000e+000
    outer loop
      vertex -6.846142e-001  1.493425e+001  0.000000e+000
      vertex  1.159307e+000  1.434885e+001 -4.999865e+000
      vertex  1.159307e+000  1.434885e+001  0.000000e+000
    endloop
  endfacet
  facet normal -8.879234e-001 -4.599913e-001  -0.000000e+000
    outer loop
      vertex  1.159307e+000  1.434885e+001  0.000000e+000
      vertex  1.159307e+000  1.434885e+001 -4.999865e+000
      vertex  2.049214e+000  1.263106e+001 -4.999865e+000
    endloop
  endfacet
  facet normal -8.879234e-001 -4.599913e-001  0.000000e+000
    outer loop
      vertex  1.159307e+000  1.434885e+001  0.000000e+000
      vertex  2.049214e+000  1.263106e+001 -4.999865e+000
      vertex  2.049214e+000  1.263106e+001  0.000000e+000
    endloop
  endfacet
  facet normal -9.963652e-001 -8.518301e-002  0.000000e+000
    outer loop
      vertex  2.049214e+000  1.263106e+001  0.000000e+000
      vertex  2.049214e+000  1.263106e+001 -4.999865e+000
      vertex  4.838089e+000 -1.998973e+001  2.220446e-016
    endloop
  endfacet
  facet normal -9.963652e-001 -8.518301e-002  -0.000000e+000
    outer loop
      vertex  4.838089e+000 -1.998973e+001  2.220446e-016
      vertex  2.049214e+000  1.263106e+001 -4.999865e+000
      vertex  4.838089e+000 -1.998973e+001 -4.999865e+000
    endloop
  endfacet
  facet normal -9.990909e-001 -4.263144e-002  0.000000e+000
    outer loop
      vertex  4.847276e+000 -2.020505e+001  0.000000e+000
      vertex  4.838089e+000 -1.998973e+001  2.220446e-016
      vertex  4.847276e+000 -2.020505e+001 -4.999865e+000
    endloop
  endfacet
  facet normal -9.990909e-001 -4.263144e-002  0.000000e+000
    outer loop
      vertex  4.847276e+000 -2.020505e+001 -4.999865e+000
      vertex  4.838089e+000 -1.998973e+001  2.220446e-016
      vertex  4.838089e+000 -1.998973e+001 -4.999865e+000
    endloop
  endfacet
  facet normal  0.000000e+000 -1.000000e+000  0.000000e+000
    outer loop
      vertex  4.847276e+000 -2.020505e+001  0.000000e+000
      vertex  4.847276e+000 -2.020505e+001 -4.999865e+000
      vertex  6.594189e+000 -2.020505e+001  2.220446e-016
    endloop
  endfacet
  facet normal  0.000000e+000 -1.000000e+000  -0.000000e+000
    outer loop
      vertex  6.594189e+000 -2.020505e+001  2.220446e-016
      vertex  4.847276e+000 -2.020505e+001 -4.999865e+000
      vertex  6.594189e+000 -2.020505e+001 -4.999865e+000
    endloop
  endfacet
  facet normal  9.906055e-001  1.367507e-001  0.000000e+000
    outer loop
      vertex  6.482410e+000 -1.939534e+001  0.000000e+000
      vertex  6.594189e+000 -2.020505e+001  2.220446e-016
      vertex  6.482410e+000 -1.939534e+001 -4.999865e+000
    endloop
  endfacet
  facet normal  9.906055e-001  1.367507e-001  0.000000e+000
    outer loop
      vertex  6.482410e+000 -1.939534e+001 -4.999865e+000
      vertex  6.594189e+000 -2.020505e+001  2.220446e-016
      vertex  6.594189e+000 -2.020505e+001 -4.999865e+000
    endloop
  endfacet
  facet normal  1.000000e+000  0.000000e+000  0.000000e+000
    outer loop
      vertex  6.482410e+000 -1.939534e+001  0.000000e+000
      vertex  6.482410e+000 -1.939534e+001 -4.999865e+000
      vertex  6.482410e+000  4.672926e+000  2.220446e-016
    endloop
  endfacet
  facet normal  1.000000e+000  0.000000e+000  0.000000e+000
    outer loop
      vertex  6.482410e+000  4.672926e+000  2.220446e-016
      vertex  6.482410e+000 -1.939534e+001 -4.999865e+000
      vertex  6.482410e+000  4.672926e+000 -4.999865e+000
    endloop
  endfacet
  facet normal  5.877852e-001 -8.090171e-001  0.000000e+000
    outer loop
      vertex  8.547501e+000  7.515280e+000 -4.999865e+000
      vertex  7.053187e+000  6.429597e+000  0.000000e+000
      vertex  7.053187e+000  6.429597e+000 -4.999865e+000
    endloop
  endfacet
  facet normal  9.510565e-001 -3.090170e-001  0.000000e+000
    outer loop
      vertex  7.053187e+000  6.429597e+000 -4.999865e+000
      vertex  7.053187e+000  6.429597e+000  0.000000e+000
      vertex  6.482410e+000  4.672926e+000  2.220446e-016
    endloop
  endfacet
  facet normal  9.510565e-001 -3.090170e-001  0.000000e+000
    outer loop
      vertex  7.053187e+000  6.429597e+000 -4.999865e+000
      vertex  6.482410e+000  4.672926e+000  2.220446e-016
      vertex  6.482410e+000  4.672926e+000 -4.999865e+000
    endloop
  endfacet
  facet normal  5.877852e-001 -8.090171e-001  0.000000e+000
    outer loop
      vertex  7.053187e+000  6.429597e+000  0.000000e+000
      vertex  8.547501e+000  7.515280e+000 -4.999865e+000
      vertex  8.547501e+000  7.515280e+000  0.000000e+000
    endloop
  endfacet
  facet normal  0.000000e+000 -1.000000e+000  0.000000e+000
    outer loop
      vertex  8.547501e+000  7.515280e+000  0.000000e+000
      vertex  8.547501e+000  7.515280e+000 -4.999865e+000
      vertex  1.039457e+001  7.515280e+000 -4.999865e+000
    endloop
  endfacet
  facet normal  0.000000e+000 -1.000000e+000  0.000000e+000
    outer loop
      vertex  8.547501e+000  7.515280e+000  0.000000e+000
      vertex  1.039457e+001  7.515280e+000 -4.999865e+000
      vertex  1.039457e+001  7.515280e+000  0.000000e+000
    endloop
  endfacet
  facet normal -5.877854e-001 -8.090169e-001  -0.000000e+000
    outer loop
      vertex  1.039457e+001  7.515280e+000  0.000000e+000
      vertex  1.039457e+001  7.515280e+000 -4.999865e+000
      vertex  1.188889e+001  6.429597e+000 -4.999865e+000
    endloop
  endfacet
  facet normal -5.877854e-001 -8.090169e-001  0.000000e+000
    outer loop
      vertex  1.039457e+001  7.515280e+000  0.000000e+000
      vertex  1.188889e+001  6.429597e+000 -4.999865e+000
      vertex  1.188889e+001  6.429597e+000  0.000000e+000
    endloop
  endfacet
  facet normal -9.510565e-001 -3.090170e-001  -0.000000e+000
    outer loop
      vertex  1.188889e+001  6.429597e+000  0.000000e+000
      vertex  1.188889e+001  6.429597e+000 -4.999865e+000
      vertex  1.245966e+001  4.672926e+000 -4.999865e+000
    endloop
  endfacet
  facet normal -9.510565e-001 -3.090170e-001  0.000000e+000
    outer loop
      vertex  1.188889e+001  6.429597e+000  0.000000e+000
      vertex  1.245966e+001  4.672926e+000 -4.999865e+000
      vertex  1.245966e+001  4.672926e+000  0.000000e+000
    endloop
  endfacet
  facet normal -1.000000e+000  0.000000e+000  0.000000e+000
    outer loop
      vertex  1.245966e+001  4.672926e+000  0.000000e+000
      vertex  1.245966e+001  4.672926e+000 -4.999865e+000
      vertex  1.245966e+001 -1.939534e+001  2.220446e-016
    endloop
  endfacet
  facet normal -1.000000e+000  0.000000e+000  0.000000e+000
    outer loop
      vertex  1.245966e+001 -1.939534e+001  2.220446e-016
      vertex  1.245966e+001  4.672926e+000 -4.999865e+000
      vertex  1.245966e+001 -1.939534e+001 -4.999865e+000
    endloop
  endfacet
  facet normal -9.906055e-001  1.367507e-001  0.000000e+000
    outer loop
      vertex  1.234789e+001 -2.020505e+001  0.000000e+000
      vertex  1.245966e+001 -1.939534e+001  2.220446e-016
      vertex  1.234789e+001 -2.020505e+001 -4.999865e+000
    endloop
  endfacet
  facet normal -9.906055e-001  1.367507e-001  0.000000e+000
    outer loop
      vertex  1.234789e+001 -2.020505e+001 -4.999865e+000
      vertex  1.245966e+001 -1.939534e+001  2.220446e-016
      vertex  1.245966e+001 -1.939534e+001 -4.999865e+000
    endloop
  endfacet
  facet normal  0.000000e+000 -9.999999e-001  0.000000e+000
    outer loop
      vertex  1.234789e+001 -2.020505e+001  0.000000e+000
      vertex  1.234789e+001 -2.020505e+001 -4.999865e+000
      vertex  1.549967e+001 -2.020505e+001  2.220446e-016
    endloop
  endfacet
  facet normal  0.000000e+000 -9.999999e-001  -0.000000e+000
    outer loop
      vertex  1.549967e+001 -2.020505e+001  2.220446e-016
      vertex  1.234789e+001 -2.020505e+001 -4.999865e+000
      vertex  1.549967e+001 -2.020505e+001 -4.999865e+000
    endloop
  endfacet
  facet normal  9.964776e-001 -8.385973e-002  0.000000e+000
    outer loop
      vertex  1.554136e+001 -1.970958e+001  0.000000e+000
      vertex  1.549967e+001 -2.020505e+001  2.220446e-016
      vertex  1.554136e+001 -1.970958e+001 -4.999865e+000
    endloop
  endfacet
  facet normal  9.964776e-001 -8.385973e-002  0.000000e+000
    outer loop
      vertex  1.554136e+001 -1.970958e+001 -4.999865e+000
      vertex  1.549967e+001 -2.020505e+001  2.220446e-016
      vertex  1.549967e+001 -2.020505e+001 -4.999865e+000
    endloop
  endfacet
  facet normal  9.859353e-001 -1.671280e-001  0.000000e+000
    outer loop
      vertex  1.554136e+001 -1.970958e+001  0.000000e+000
      vertex  1.554136e+001 -1.970958e+001 -4.999865e+000
      vertex  1.884393e+001 -2.268224e-001  2.220446e-016
    endloop
  endfacet
  facet normal  9.859353e-001 -1.671280e-001  0.000000e+000
    outer loop
      vertex  1.884393e+001 -2.268224e-001  2.220446e-016
      vertex  1.554136e+001 -1.970958e+001 -4.999865e+000
      vertex  1.884393e+001 -2.268224e-001 -4.999865e+000
    endloop
  endfacet
  facet normal  4.443087e-001 -8.958736e-001  0.000000e+000
    outer loop
      vertex  2.133487e+001  2.210710e+000 -4.999865e+000
      vertex  1.969339e+001  1.396622e+000  0.000000e+000
      vertex  1.969339e+001  1.396622e+000 -4.999865e+000
    endloop
  endfacet
  facet normal  8.860349e-001 -4.636184e-001  0.000000e+000
    outer loop
      vertex  1.969339e+001  1.396622e+000 -4.999865e+000
      vertex  1.969339e+001  1.396622e+000  0.000000e+000
      vertex  1.884393e+001 -2.268224e-001  2.220446e-016
    endloop
  endfacet
  facet normal  8.860349e-001 -4.636184e-001  0.000000e+000
    outer loop
      vertex  1.969339e+001  1.396622e+000 -4.999865e+000
      vertex  1.884393e+001 -2.268224e-001  2.220446e-016
      vertex  1.884393e+001 -2.268224e-001 -4.999865e+000
    endloop
  endfacet
  facet normal  4.443087e-001 -8.958736e-001  0.000000e+000
    outer loop
      vertex  1.969339e+001  1.396622e+000  0.000000e+000
      vertex  2.133487e+001  2.210710e+000 -4.999865e+000
      vertex  2.133487e+001  2.210710e+000  0.000000e+000
    endloop
  endfacet
  facet normal -1.671280e-001 -9.859352e-001  -0.000000e+000
    outer loop
      vertex  2.133487e+001  2.210710e+000  0.000000e+000
      vertex  2.133487e+001  2.210710e+000 -4.999865e+000
      vertex  2.314135e+001  1.904488e+000 -4.999865e+000
    endloop
  endfacet
  facet normal -1.671280e-001 -9.859352e-001  0.000000e+000
    outer loop
      vertex  2.133487e+001  2.210710e+000  0.000000e+000
      vertex  2.314135e+001  1.904488e+000 -4.999865e+000
      vertex  2.314135e+001  1.904488e+000  0.000000e+000
    endloop
  endfacet
  facet normal -7.147275e-001 -6.994030e-001  -0.000000e+000
    outer loop
      vertex  2.314135e+001  1.904488e+000  0.000000e+000
      vertex  2.314135e+001  1.904488e+000 -4.999865e+000
      vertex  2.442284e+001  5.949234e-001 -4.999865e+000
    endloop
  endfacet
  facet normal -7.147275e-001 -6.994030e-001  0.000000e+000
    outer loop
      vertex  2.314135e+001  1.904488e+000  0.000000e+000
      vertex  2.442284e+001  5.949234e-001 -4.999865e+000
      vertex  2.442284e+001  5.949234e-001  0.000000e+000
    endloop
  endfacet
  facet normal -9.893254e-001 -1.457230e-001  -0.000000e+000
    outer loop
      vertex  2.442284e+001  5.949234e-001  0.000000e+000
      vertex  2.442284e+001  5.949234e-001 -4.999865e+000
      vertex  2.468984e+001 -1.217776e+000 -4.999865e+000
    endloop
  endfacet
  facet normal -9.893254e-001 -1.457230e-001  0.000000e+000
    outer loop
      vertex  2.442284e+001  5.949234e-001  0.000000e+000
      vertex  2.468984e+001 -1.217776e+000 -4.999865e+000
      vertex  2.468984e+001 -1.217776e+000  0.000000e+000
    endloop
  endfacet
  facet normal -9.859353e-001  1.671280e-001  0.000000e+000
    outer loop
      vertex  2.468984e+001 -1.217776e+000  0.000000e+000
      vertex  2.468984e+001 -1.217776e+000 -4.999865e+000
      vertex  2.138728e+001 -2.070053e+001  2.220446e-016
    endloop
  endfacet
  facet normal -9.859353e-001  1.671280e-001  0.000000e+000
    outer loop
      vertex  2.138728e+001 -2.070053e+001  2.220446e-016
      vertex  2.468984e+001 -1.217776e+000 -4.999865e+000
      vertex  2.138728e+001 -2.070053e+001 -4.999865e+000
    endloop
  endfacet
  facet normal -8.684961e-001  4.956960e-001  0.000000e+000
    outer loop
      vertex  2.138728e+001 -2.070053e+001 -4.999865e+000
      vertex  2.037747e+001 -2.246979e+001 -4.999865e+000
      vertex  2.138728e+001 -2.070053e+001  2.220446e-016
    endloop
  endfacet
  facet normal -8.684961e-001  4.956960e-001  0.000000e+000
    outer loop
      vertex  2.138728e+001 -2.070053e+001  2.220446e-016
      vertex  2.037747e+001 -2.246979e+001 -4.999865e+000
      vertex  2.037747e+001 -2.246979e+001  0.000000e+000
    endloop
  endfacet
  facet normal -3.435742e-001  9.391255e-001  0.000000e+000
    outer loop
      vertex  2.037747e+001 -2.246979e+001 -4.999865e+000
      vertex  1.846432e+001 -2.316971e+001 -4.999865e+000
      vertex  2.037747e+001 -2.246979e+001  0.000000e+000
    endloop
  endfacet
  facet normal -3.435742e-001  9.391255e-001  0.000000e+000
    outer loop
      vertex  2.037747e+001 -2.246979e+001  0.000000e+000
      vertex  1.846432e+001 -2.316971e+001 -4.999865e+000
      vertex  1.846432e+001 -2.316971e+001  2.220446e-016
    endloop
  endfacet
  facet normal -2.040907e-017 -4.510295e-017  1.000000e+000
    outer loop
      vertex -2.987808e+000  1.220043e+001  2.220446e-016
      vertex -1.663525e+001  1.345283e+001  0.000000e+000
      vertex -1.437806e+001  1.243145e+001  0.000000e+000
    endloop
  endfacet
  facet normal -1.972200e-017 -1.122792e-017  1.000000e+000
    outer loop
      vertex -2.987808e+000  1.220043e+001  2.220446e-016
      vertex -1.437806e+001  1.243145e+001  0.000000e+000
      vertex -1.315231e+001  1.027839e+001  0.000000e+000
    endloop
  endfacet
  facet normal -2.238701e-017  2.865780e-018  1.000000e+000
    outer loop
      vertex -2.987808e+000  1.220043e+001  2.220446e-016
      vertex -1.315231e+001  1.027839e+001  0.000000e+000
      vertex -7.032409e+000 -1.939534e+001  2.220446e-016
    endloop
  endfacet
  facet normal  1.191990e-015 -1.525877e-016  1.000000e+000
    outer loop
      vertex -2.987808e+000  1.220043e+001  2.220446e-016
      vertex -7.032409e+000 -1.939534e+001  2.220446e-016
      vertex -6.949780e+000 -2.020505e+001  0.000000e+000
    endloop
  endfacet
  facet normal  0.000000e+000 -6.852070e-018  1.000000e+000
    outer loop
      vertex -2.987808e+000  1.220043e+001  2.220446e-016
      vertex -6.949780e+000 -2.020505e+001  0.000000e+000
      vertex -2.173416e-001 -2.020505e+001  0.000000e+000
    endloop
  endfacet
  facet normal  0.000000e+000  0.000000e+000  1.000000e+000
    outer loop
      vertex  5.000000e+001 -7.250007e+001  0.000000e+000
      vertex  2.442284e+001  5.949234e-001  0.000000e+000
      vertex  2.468984e+001 -1.217776e+000  0.000000e+000
    endloop
  endfacet
  facet normal  2.172586e-017  7.714186e-018  9.999999e-001
    outer loop
      vertex  5.000000e+001 -7.250007e+001  0.000000e+000
      vertex  2.468984e+001 -1.217776e+000  0.000000e+000
      vertex  2.138728e+001 -2.070053e+001  2.220446e-016
    endloop
  endfacet
  facet normal -1.079260e-016 -6.390212e-017  1.000000e+000
    outer loop
      vertex  5.000000e+001 -7.250007e+001  0.000000e+000
      vertex  2.138728e+001 -2.070053e+001  2.220446e-016
      vertex  2.037747e+001 -2.246979e+001  0.000000e+000
    endloop
  endfacet
  facet normal  9.539797e-017  5.648439e-017  1.000000e+000
    outer loop
      vertex  5.000000e+001 -7.250007e+001  0.000000e+000
      vertex  2.037747e+001 -2.246979e+001  0.000000e+000
      vertex  1.846432e+001 -2.316971e+001  2.220446e-016
    endloop
  endfacet
  facet normal  7.041060e-018  0.000000e+000  1.000000e+000
    outer loop
      vertex  5.000000e+001 -7.250007e+001  0.000000e+000
      vertex  1.846432e+001 -2.316971e+001  2.220446e-016
      vertex  1.846432e+001 -5.063287e+001  2.220446e-016
    endloop
  endfacet
  facet normal -6.950429e-017 -1.103895e-016  1.000000e+000
    outer loop
      vertex  5.000000e+001 -7.250007e+001  0.000000e+000
      vertex  1.846432e+001 -5.063287e+001  2.220446e-016
      vertex  1.800315e+001 -5.235397e+001  0.000000e+000
    endloop
  endfacet
  facet normal  0.000000e+000  0.000000e+000  1.000000e+000
    outer loop
      vertex  5.000000e+001 -7.250007e+001  0.000000e+000
      vertex  1.800315e+001 -5.235397e+001  0.000000e+000
      vertex  1.674322e+001 -5.361391e+001  0.000000e+000
    endloop
  endfacet
  facet normal  0.000000e+000  0.000000e+000  1.000000e+000
    outer loop
      vertex  5.000000e+001 -7.250007e+001  0.000000e+000
      vertex  1.674322e+001 -5.361391e+001  0.000000e+000
      vertex  1.502212e+001 -5.407507e+001  0.000000e+000
    endloop
  endfacet
  facet normal  7.969242e-018  1.512875e-017  1.000000e+000
    outer loop
      vertex  5.000000e+001 -7.250007e+001  0.000000e+000
      vertex  1.502212e+001 -5.407507e+001  0.000000e+000
      vertex -1.284058e+001 -5.407507e+001  2.220446e-016
    endloop
  endfacet
  facet normal  0.000000e+000 -1.205127e-017  1.000000e+000
    outer loop
      vertex  5.000000e+001 -7.250007e+001  0.000000e+000
      vertex -1.284058e+001 -5.407507e+001  2.220446e-016
      vertex -5.000000e+001 -7.250007e+001  0.000000e+000
    endloop
  endfacet
  facet normal  0.000000e+000  0.000000e+000  1.000000e+000
    outer loop
      vertex -5.000000e+001  2.749993e+001  0.000000e+000
      vertex -5.000000e+001 -7.250007e+001  0.000000e+000
      vertex -3.815949e+001 -2.248628e+001  0.000000e+000
    endloop
  endfacet
  facet normal  0.000000e+000  -0.000000e+000  1.000000e+000
    outer loop
      vertex -5.000000e+001  2.749993e+001  0.000000e+000
      vertex -3.815949e+001 -2.248628e+001  0.000000e+000
      vertex -2.073060e+001  1.112130e+001  0.000000e+000
    endloop
  endfacet
  facet normal  0.000000e+000  -0.000000e+000  1.000000e+000
    outer loop
      vertex -5.000000e+001  2.749993e+001  0.000000e+000
      vertex -2.073060e+001  1.112130e+001  0.000000e+000
      vertex -1.906171e+001  1.295240e+001  0.000000e+000
    endloop
  endfacet
  facet normal  0.000000e+000  -0.000000e+000  9.999999e-001
    outer loop
      vertex -5.000000e+001  2.749993e+001  0.000000e+000
      vertex -1.906171e+001  1.295240e+001  0.000000e+000
      vertex -1.663525e+001  1.345283e+001  0.000000e+000
    endloop
  endfacet
  facet normal -2.080485e-017 -4.941578e-017  1.000000e+000
    outer loop
      vertex -5.000000e+001  2.749993e+001  0.000000e+000
      vertex -1.663525e+001  1.345283e+001  0.000000e+000
      vertex -2.987808e+000  1.220043e+001  2.220446e-016
    endloop
  endfacet
  facet normal  3.123841e-017  1.105023e-016  9.999999e-001
    outer loop
      vertex -5.000000e+001  2.749993e+001  0.000000e+000
      vertex -2.987808e+000  1.220043e+001  2.220446e-016
      vertex -2.402406e+000  1.404435e+001  0.000000e+000
    endloop
  endfacet
  facet normal  0.000000e+000  -0.000000e+000  1.000000e+000
    outer loop
      vertex -5.000000e+001  2.749993e+001  0.000000e+000
      vertex -2.402406e+000  1.404435e+001  0.000000e+000
      vertex -6.846142e-001  1.493425e+001  0.000000e+000
    endloop
  endfacet
  facet normal  0.000000e+000  -0.000000e+000  1.000000e+000
    outer loop
      vertex -5.000000e+001  2.749993e+001  0.000000e+000
      vertex -6.846142e-001  1.493425e+001  0.000000e+000
      vertex  5.000000e+001  2.749993e+001  0.000000e+000
    endloop
  endfacet
  facet normal -5.336026e-017  9.556537e-017  1.000000e+000
    outer loop
      vertex -5.000000e+001 -7.250007e+001  0.000000e+000
      vertex -1.284058e+001 -5.407507e+001  2.220446e-016
      vertex -1.565245e+001 -5.332164e+001  0.000000e+000
    endloop
  endfacet
  facet normal  0.000000e+000  0.000000e+000  1.000000e+000
    outer loop
      vertex -5.000000e+001 -7.250007e+001  0.000000e+000
      vertex -1.565245e+001 -5.332164e+001  0.000000e+000
      vertex -1.771088e+001 -5.126320e+001  0.000000e+000
    endloop
  endfacet
  facet normal  0.000000e+000  0.000000e+000  1.000000e+000
    outer loop
      vertex -5.000000e+001 -7.250007e+001  0.000000e+000
      vertex -1.771088e+001 -5.126320e+001  0.000000e+000
      vertex -1.846432e+001 -4.845133e+001  0.000000e+000
    endloop
  endfacet
  facet normal  1.332474e-017 -1.747305e-017  1.000000e+000
    outer loop
      vertex -5.000000e+001 -7.250007e+001  0.000000e+000
      vertex -1.846432e+001 -4.845133e+001  0.000000e+000
      vertex -1.846432e+001 -3.574350e+001  2.220446e-016
    endloop
  endfacet
  facet normal -1.064872e-016  8.532085e-017  1.000000e+000
    outer loop
      vertex -5.000000e+001 -7.250007e+001  0.000000e+000
      vertex -1.846432e+001 -3.574350e+001  2.220446e-016
      vertex -2.019049e+001 -3.529543e+001  0.000000e+000
    endloop
  endfacet
  facet normal  9.471505e-018 -7.588863e-018  1.000000e+000
    outer loop
      vertex -5.000000e+001 -7.250007e+001  0.000000e+000
      vertex -2.019049e+001 -3.529543e+001  0.000000e+000
      vertex -3.640303e+001 -2.627070e+001  2.220446e-016
    endloop
  endfacet
  facet normal -1.168886e-016  2.957614e-017  1.000000e+000
    outer loop
      vertex -5.000000e+001 -7.250007e+001  0.000000e+000
      vertex -3.640303e+001 -2.627070e+001  2.220446e-016
      vertex -3.789608e+001 -2.466385e+001  0.000000e+000
    endloop
  endfacet
  facet normal  0.000000e+000  0.000000e+000  1.000000e+000
    outer loop
      vertex -5.000000e+001 -7.250007e+001  0.000000e+000
      vertex -3.789608e+001 -2.466385e+001  0.000000e+000
      vertex -3.815949e+001 -2.248628e+001  0.000000e+000
    endloop
  endfacet
  facet normal -3.758755e-017 -6.752437e-017  1.000000e+000
    outer loop
      vertex -3.295068e+001 -2.006871e+001  0.000000e+000
      vertex -1.846432e+001 -2.813257e+001  0.000000e+000
      vertex -1.846432e+001 -2.484421e+001  2.220446e-016
    endloop
  endfacet
  facet normal  2.047023e-017  1.085927e-016  1.000000e+000
    outer loop
      vertex -3.295068e+001 -2.006871e+001  0.000000e+000
      vertex -1.846432e+001 -2.484421e+001  2.220446e-016
      vertex -1.802872e+001 -2.288157e+001  0.000000e+000
    endloop
  endfacet
  facet normal  0.000000e+000  -0.000000e+000  1.000000e+000
    outer loop
      vertex -3.295068e+001 -2.006871e+001  0.000000e+000
      vertex -1.802872e+001 -2.288157e+001  0.000000e+000
      vertex -1.680371e+001 -2.128752e+001  0.000000e+000
    endloop
  endfacet
  facet normal  0.000000e+000  -0.000000e+000  1.000000e+000
    outer loop
      vertex -3.295068e+001 -2.006871e+001  0.000000e+000
      vertex -1.680371e+001 -2.128752e+001  0.000000e+000
      vertex -1.501934e+001 -2.036138e+001  0.000000e+000
    endloop
  endfacet
  facet normal -1.253044e-019 -7.677185e-018  1.000000e+000
    outer loop
      vertex -3.295068e+001 -2.006871e+001  0.000000e+000
      vertex -1.501934e+001 -2.036138e+001  0.000000e+000
      vertex -2.100448e+001  8.658964e+000  2.220446e-016
    endloop
  endfacet
  facet normal -1.402349e-018 -7.146134e-018  1.000000e+000
    outer loop
      vertex -3.295068e+001 -2.006871e+001  0.000000e+000
      vertex -2.100448e+001  8.658964e+000  2.220446e-016
      vertex -3.510307e+001 -1.964633e+001  0.000000e+000
    endloop
  endfacet
  facet normal -2.769959e-017  9.225618e-018  1.000000e+000
    outer loop
      vertex  1.245966e+001  4.672926e+000  0.000000e+000
      vertex  1.245966e+001 -1.939534e+001  2.220446e-016
      vertex  1.884393e+001 -2.268224e-001  2.220446e-016
    endloop
  endfacet
  facet normal  5.007931e-017  1.105697e-016  9.999999e-001
    outer loop
      vertex  1.245966e+001  4.672926e+000  0.000000e+000
      vertex  1.884393e+001 -2.268224e-001  2.220446e-016
      vertex  1.969339e+001  1.396622e+000  0.000000e+000
    endloop
  endfacet
  facet normal  0.000000e+000  -0.000000e+000  1.000000e+000
    outer loop
      vertex  1.245966e+001  4.672926e+000  0.000000e+000
      vertex  1.969339e+001  1.396622e+000  0.000000e+000
      vertex  2.133487e+001  2.210710e+000  0.000000e+000
    endloop
  endfacet
  facet normal -4.473292e-017  2.982456e-018  1.000000e+000
    outer loop
      vertex  2.049214e+000  1.263106e+001  0.000000e+000
      vertex  4.838089e+000 -1.998973e+001  2.220446e-016
      vertex  6.482410e+000  4.672926e+000  2.220446e-016
    endloop
  endfacet
  facet normal  1.116791e-016  9.011407e-017  1.000000e+000
    outer loop
      vertex  2.049214e+000  1.263106e+001  0.000000e+000
      vertex  6.482410e+000  4.672926e+000  2.220446e-016
      vertex  7.053187e+000  6.429597e+000  0.000000e+000
    endloop
  endfacet
  facet normal  0.000000e+000  -0.000000e+000  1.000000e+000
    outer loop
      vertex  2.049214e+000  1.263106e+001  0.000000e+000
      vertex  7.053187e+000  6.429597e+000  0.000000e+000
      vertex  8.547501e+000  7.515280e+000  0.000000e+000
    endloop
  endfacet
  facet normal  0.000000e+000  -0.000000e+000  1.000000e+000
    outer loop
      vertex  2.049214e+000  1.263106e+001  0.000000e+000
      vertex  8.547501e+000  7.515280e+000  0.000000e+000
      vertex  1.039457e+001  7.515280e+000  0.000000e+000
    endloop
  endfacet
  facet normal  -0.000000e+000  -0.000000e+000  1.000000e+000
    outer loop
      vertex  2.049214e+000  1.263106e+001  0.000000e+000
      vertex  1.039457e+001  7.515280e+000  0.000000e+000
      vertex  2.314135e+001  1.904488e+000  0.000000e+000
    endloop
  endfacet
  facet normal  0.000000e+000  0.000000e+000  1.000000e+000
    outer loop
      vertex  2.049214e+000  1.263106e+001  0.000000e+000
      vertex  2.314135e+001  1.904488e+000  0.000000e+000
      vertex  1.159307e+000  1.434885e+001  0.000000e+000
    endloop
  endfacet
  facet normal  0.000000e+000  0.000000e+000  1.000000e+000
    outer loop
      vertex  2.314135e+001  1.904488e+000  0.000000e+000
      vertex  1.039457e+001  7.515280e+000  0.000000e+000
      vertex  1.188889e+001  6.429597e+000  0.000000e+000
    endloop
  endfacet
  facet normal  0.000000e+000  0.000000e+000  1.000000e+000
    outer loop
      vertex  2.314135e+001  1.904488e+000  0.000000e+000
      vertex  1.188889e+001  6.429597e+000  0.000000e+000
      vertex  1.245966e+001  4.672926e+000  0.000000e+000
    endloop
  endfacet
  facet normal  0.000000e+000  0.000000e+000  1.000000e+000
    outer loop
      vertex  2.314135e+001  1.904488e+000  0.000000e+000
      vertex  1.245966e+001  4.672926e+000  0.000000e+000
      vertex  2.133487e+001  2.210710e+000  0.000000e+000
    endloop
  endfacet
  facet normal  -0.000000e+000  0.000000e+000  9.999999e-001
    outer loop
      vertex  5.000000e+001  2.749993e+001  0.000000e+000
      vertex -6.846142e-001  1.493425e+001  0.000000e+000
      vertex  1.159307e+000  1.434885e+001  0.000000e+000
    endloop
  endfacet
  facet normal  -0.000000e+000  0.000000e+000  1.000000e+000
    outer loop
      vertex  5.000000e+001  2.749993e+001  0.000000e+000
      vertex  1.159307e+000  1.434885e+001  0.000000e+000
      vertex  2.314135e+001  1.904488e+000  0.000000e+000
    endloop
  endfacet
  facet normal  -0.000000e+000  0.000000e+000  1.000000e+000
    outer loop
      vertex  5.000000e+001  2.749993e+001  0.000000e+000
      vertex  2.314135e+001  1.904488e+000  0.000000e+000
      vertex  2.442284e+001  5.949234e-001  0.000000e+000
    endloop
  endfacet
  facet normal  -0.000000e+000  0.000000e+000  1.000000e+000
    outer loop
      vertex  5.000000e+001  2.749993e+001  0.000000e+000
      vertex  2.442284e+001  5.949234e-001  0.000000e+000
      vertex  5.000000e+001 -7.250007e+001  0.000000e+000
    endloop
  endfacet
  facet normal  4.735748e-018 -1.020346e-017  1.000000e+000
    outer loop
      vertex -3.510307e+001 -1.964633e+001  0.000000e+000
      vertex -2.100448e+001  8.658964e+000  2.220446e-016
      vertex -3.709266e+001 -2.056976e+001  0.000000e+000
    endloop
  endfacet
  facet normal -2.226182e-016  1.149375e-016  1.000000e+000
    outer loop
      vertex -3.709266e+001 -2.056976e+001  0.000000e+000
      vertex -2.100448e+001  8.658964e+000  2.220446e-016
      vertex -2.073060e+001  1.112130e+001  0.000000e+000
    endloop
  endfacet
  facet normal  0.000000e+000  0.000000e+000  1.000000e+000
    outer loop
      vertex -3.709266e+001 -2.056976e+001  0.000000e+000
      vertex -2.073060e+001  1.112130e+001  0.000000e+000
      vertex -3.815949e+001 -2.248628e+001  0.000000e+000
    endloop
  endfacet
  facet normal -7.045054e-017 -2.645000e-016  1.000000e+000
    outer loop
      vertex  1.234789e+001 -2.020505e+001  0.000000e+000
      vertex  1.549967e+001 -2.020505e+001  2.220446e-016
      vertex  1.245966e+001 -1.939534e+001  2.220446e-016
    endloop
  endfacet
  facet normal  1.167475e-016  4.383175e-016  1.000000e+000
    outer loop
      vertex  1.245966e+001 -1.939534e+001  2.220446e-016
      vertex  1.549967e+001 -2.020505e+001  2.220446e-016
      vertex  1.554136e+001 -1.970958e+001  0.000000e+000
    endloop
  endfacet
  facet normal  6.968601e-017 -2.320960e-017  1.000000e+000
    outer loop
      vertex  1.245966e+001 -1.939534e+001  2.220446e-016
      vertex  1.554136e+001 -1.970958e+001  0.000000e+000
      vertex  1.884393e+001 -2.268224e-001  2.220446e-016
    endloop
  endfacet
  facet normal -1.271069e-016 -1.036661e-015  1.000000e+000
    outer loop
      vertex  4.847276e+000 -2.020505e+001  0.000000e+000
      vertex  6.594189e+000 -2.020505e+001  2.220446e-016
      vertex  4.838089e+000 -1.998973e+001  2.220446e-016
    endloop
  endfacet
  facet normal  3.420220e-017  2.789471e-016  1.000000e+000
    outer loop
      vertex  4.838089e+000 -1.998973e+001  2.220446e-016
      vertex  6.594189e+000 -2.020505e+001  2.220446e-016
      vertex  6.482410e+000 -1.939534e+001  0.000000e+000
    endloop
  endfacet
  facet normal  1.383721e-016 -9.225618e-018  1.000000e+000
    outer loop
      vertex  4.838089e+000 -1.998973e+001  2.220446e-016
      vertex  6.482410e+000 -1.939534e+001  0.000000e+000
      vertex  6.482410e+000  4.672926e+000  2.220446e-016
    endloop
  endfacet
  facet normal  0.000000e+000  0.000000e+000  1.000000e+000
    outer loop
      vertex -2.402406e+000  1.404435e+001 -4.999865e+000
      vertex  1.159307e+000  1.434885e+001 -4.999865e+000
      vertex -6.846142e-001  1.493425e+001 -4.999865e+000
    endloop
  endfacet
  facet normal  0.000000e+000  0.000000e+000  9.999999e-001
    outer loop
      vertex -1.846432e+001 -2.813257e+001 -4.999865e+000
      vertex -3.295068e+001 -2.006871e+001 -4.999865e+000
      vertex -3.510307e+001 -1.964633e+001 -4.999865e+000
    endloop
  endfacet
  facet normal  0.000000e+000  0.000000e+000  1.000000e+000
    outer loop
      vertex -1.846432e+001 -2.813257e+001 -4.999865e+000
      vertex -3.510307e+001 -1.964633e+001 -4.999865e+000
      vertex -3.709266e+001 -2.056976e+001 -4.999865e+000
    endloop
  endfacet
  facet normal  0.000000e+000  0.000000e+000  1.000000e+000
    outer loop
      vertex -1.846432e+001 -2.813257e+001 -4.999865e+000
      vertex -3.709266e+001 -2.056976e+001 -4.999865e+000
      vertex -3.815949e+001 -2.248628e+001 -4.999865e+000
    endloop
  endfacet
  facet normal  0.000000e+000  0.000000e+000  1.000000e+000
    outer loop
      vertex -1.846432e+001 -2.813257e+001 -4.999865e+000
      vertex -3.815949e+001 -2.248628e+001 -4.999865e+000
      vertex -3.789608e+001 -2.466385e+001 -4.999865e+000
    endloop
  endfacet
  facet normal  0.000000e+000  0.000000e+000  9.999999e-001
    outer loop
      vertex -1.846432e+001 -2.813257e+001 -4.999865e+000
      vertex -3.789608e+001 -2.466385e+001 -4.999865e+000
      vertex -3.640303e+001 -2.627070e+001 -4.999865e+000
    endloop
  endfacet
  facet normal  0.000000e+000  0.000000e+000  1.000000e+000
    outer loop
      vertex -1.846432e+001 -2.813257e+001 -4.999865e+000
      vertex -3.640303e+001 -2.627070e+001 -4.999865e+000
      vertex -2.019049e+001 -3.529543e+001 -4.999865e+000
    endloop
  endfacet
  facet normal  -0.000000e+000  0.000000e+000  1.000000e+000
    outer loop
      vertex -1.846432e+001 -2.813257e+001 -4.999865e+000
      vertex -2.019049e+001 -3.529543e+001 -4.999865e+000
      vertex -1.846432e+001 -3.574350e+001 -4.999865e+000
    endloop
  endfacet
  facet normal  0.000000e+000  0.000000e+000  1.000000e+000
    outer loop
      vertex -1.846432e+001 -2.813257e+001 -4.999865e+000
      vertex -1.846432e+001 -3.574350e+001 -4.999865e+000
      vertex  1.846432e+001 -2.316971e+001 -4.999865e+000
    endloop
  endfacet
  facet normal  0.000000e+000  0.000000e+000  1.000000e+000
    outer loop
      vertex -1.846432e+001 -2.813257e+001 -4.999865e+000
      vertex  1.846432e+001 -2.316971e+001 -4.999865e+000
      vertex -1.802872e+001 -2.288157e+001 -4.999865e+000
    endloop
  endfacet
  facet normal  0.000000e+000  0.000000e+000  1.000000e+000
    outer loop
      vertex -1.846432e+001 -2.813257e+001 -4.999865e+000
      vertex -1.802872e+001 -2.288157e+001 -4.999865e+000
      vertex -1.846432e+001 -2.484421e+001 -4.999865e+000
    endloop
  endfacet
  facet normal  0.000000e+000  0.000000e+000  1.000000e+000
    outer loop
      vertex  2.138728e+001 -2.070053e+001 -4.999865e+000
      vertex  2.468984e+001 -1.217776e+000 -4.999865e+000
      vertex  1.554136e+001 -1.970958e+001 -4.999865e+000
    endloop
  endfacet
  facet normal  0.000000e+000  0.000000e+000  1.000000e+000
    outer loop
      vertex  2.138728e+001 -2.070053e+001 -4.999865e+000
      vertex  1.554136e+001 -1.970958e+001 -4.999865e+000
      vertex  1.549967e+001 -2.020505e+001 -4.999865e+000
    endloop
  endfacet
  facet normal  0.000000e+000  0.000000e+000  1.000000e+000
    outer loop
      vertex  2.138728e+001 -2.070053e+001 -4.999865e+000
      vertex  1.549967e+001 -2.020505e+001 -4.999865e+000
      vertex  1.234789e+001 -2.020505e+001 -4.999865e+000
    endloop
  endfacet
  facet normal  0.000000e+000  0.000000e+000  1.000000e+000
    outer loop
      vertex  2.138728e+001 -2.070053e+001 -4.999865e+000
      vertex  1.234789e+001 -2.020505e+001 -4.999865e+000
      vertex  6.594189e+000 -2.020505e+001 -4.999865e+000
    endloop
  endfacet
  facet normal  0.000000e+000  0.000000e+000  1.000000e+000
    outer loop
      vertex  2.138728e+001 -2.070053e+001 -4.999865e+000
      vertex  6.594189e+000 -2.020505e+001 -4.999865e+000
      vertex  4.847276e+000 -2.020505e+001 -4.999865e+000
    endloop
  endfacet
  facet normal  0.000000e+000  0.000000e+000  1.000000e+000
    outer loop
      vertex  2.138728e+001 -2.070053e+001 -4.999865e+000
      vertex  4.847276e+000 -2.020505e+001 -4.999865e+000
      vertex -2.173416e-001 -2.020505e+001 -4.999865e+000
    endloop
  endfacet
  facet normal  0.000000e+000  0.000000e+000  1.000000e+000
    outer loop
      vertex  2.138728e+001 -2.070053e+001 -4.999865e+000
      vertex -2.173416e-001 -2.020505e+001 -4.999865e+000
      vertex -6.949780e+000 -2.020505e+001 -4.999865e+000
    endloop
  endfacet
  facet normal  0.000000e+000  0.000000e+000  1.000000e+000
    outer loop
      vertex  2.138728e+001 -2.070053e+001 -4.999865e+000
      vertex -6.949780e+000 -2.020505e+001 -4.999865e+000
      vertex -1.501934e+001 -2.036138e+001 -4.999865e+000
    endloop
  endfacet
  facet normal  0.000000e+000  0.000000e+000  9.999999e-001
    outer loop
      vertex  2.314135e+001  1.904488e+000 -4.999865e+000
      vertex  2.133487e+001  2.210710e+000 -4.999865e+000
      vertex  2.442284e+001  5.949234e-001 -4.999865e+000
    endloop
  endfacet
  facet normal  0.000000e+000  0.000000e+000  1.000000e+000
    outer loop
      vertex  2.442284e+001  5.949234e-001 -4.999865e+000
      vertex  2.133487e+001  2.210710e+000 -4.999865e+000
      vertex  1.969339e+001  1.396622e+000 -4.999865e+000
    endloop
  endfacet
  facet normal  0.000000e+000  0.000000e+000  1.000000e+000
    outer loop
      vertex  2.442284e+001  5.949234e-001 -4.999865e+000
      vertex  1.969339e+001  1.396622e+000 -4.999865e+000
      vertex  1.884393e+001 -2.268224e-001 -4.999865e+000
    endloop
  endfacet
  facet normal  0.000000e+000  0.000000e+000  1.000000e+000
    outer loop
      vertex  1.884393e+001 -2.268224e-001 -4.999865e+000
      vertex  1.554136e+001 -1.970958e+001 -4.999865e+000
      vertex  2.442284e+001  5.949234e-001 -4.999865e+000
    endloop
  endfacet
  facet normal  0.000000e+000  0.000000e+000  9.999999e-001
    outer loop
      vertex  2.442284e+001  5.949234e-001 -4.999865e+000
      vertex  1.554136e+001 -1.970958e+001 -4.999865e+000
      vertex  2.468984e+001 -1.217776e+000 -4.999865e+000
    endloop
  endfacet
  facet normal  0.000000e+000  0.000000e+000  1.000000e+000
    outer loop
      vertex  2.138728e+001 -2.070053e+001 -4.999865e+000
      vertex -1.501934e+001 -2.036138e+001 -4.999865e+000
      vertex  2.037747e+001 -2.246979e+001 -4.999865e+000
    endloop
  endfacet
  facet normal  0.000000e+000  0.000000e+000  1.000000e+000
    outer loop
      vertex  2.037747e+001 -2.246979e+001 -4.999865e+000
      vertex -1.501934e+001 -2.036138e+001 -4.999865e+000
      vertex -1.680371e+001 -2.128752e+001 -4.999865e+000
    endloop
  endfacet
  facet normal  0.000000e+000  0.000000e+000  1.000000e+000
    outer loop
      vertex  2.037747e+001 -2.246979e+001 -4.999865e+000
      vertex -1.680371e+001 -2.128752e+001 -4.999865e+000
      vertex  1.846432e+001 -2.316971e+001 -4.999865e+000
    endloop
  endfacet
  facet normal  0.000000e+000  0.000000e+000  1.000000e+000
    outer loop
      vertex  1.846432e+001 -2.316971e+001 -4.999865e+000
      vertex -1.680371e+001 -2.128752e+001 -4.999865e+000
      vertex -1.802872e+001 -2.288157e+001 -4.999865e+000
    endloop
  endfacet
  facet normal  -0.000000e+000  0.000000e+000  1.000000e+000
    outer loop
      vertex  1.846432e+001 -2.316971e+001 -4.999865e+000
      vertex -1.846432e+001 -3.574350e+001 -4.999865e+000
      vertex  1.846432e+001 -5.063287e+001 -4.999865e+000
    endloop
  endfacet
  facet normal  0.000000e+000  0.000000e+000  9.999999e-001
    outer loop
      vertex  1.846432e+001 -5.063287e+001 -4.999865e+000
      vertex -1.846432e+001 -3.574350e+001 -4.999865e+000
      vertex -1.846432e+001 -4.845133e+001 -4.999865e+000
    endloop
  endfacet
  facet normal  0.000000e+000  0.000000e+000  9.999999e-001
    outer loop
      vertex  1.846432e+001 -5.063287e+001 -4.999865e+000
      vertex -1.846432e+001 -4.845133e+001 -4.999865e+000
      vertex -1.771088e+001 -5.126320e+001 -4.999865e+000
    endloop
  endfacet
  facet normal  -0.000000e+000  0.000000e+000  1.000000e+000
    outer loop
      vertex  1.846432e+001 -5.063287e+001 -4.999865e+000
      vertex -1.771088e+001 -5.126320e+001 -4.999865e+000
      vertex  1.800315e+001 -5.235397e+001 -4.999865e+000
    endloop
  endfacet
  facet normal  0.000000e+000  0.000000e+000  1.000000e+000
    outer loop
      vertex  1.800315e+001 -5.235397e+001 -4.999865e+000
      vertex -1.771088e+001 -5.126320e+001 -4.999865e+000
      vertex -1.565245e+001 -5.332164e+001 -4.999865e+000
    endloop
  endfacet
  facet normal  -0.000000e+000  0.000000e+000  1.000000e+000
    outer loop
      vertex  1.800315e+001 -5.235397e+001 -4.999865e+000
      vertex -1.565245e+001 -5.332164e+001 -4.999865e+000
      vertex  1.674322e+001 -5.361391e+001 -4.999865e+000
    endloop
  endfacet
  facet normal  0.000000e+000  0.000000e+000  1.000000e+000
    outer loop
      vertex -1.284058e+001 -5.407507e+001 -4.999865e+000
      vertex  1.502212e+001 -5.407507e+001 -4.999865e+000
      vertex -1.565245e+001 -5.332164e+001 -4.999865e+000
    endloop
  endfacet
  facet normal  0.000000e+000  0.000000e+000  1.000000e+000
    outer loop
      vertex -1.565245e+001 -5.332164e+001 -4.999865e+000
      vertex  1.502212e+001 -5.407507e+001 -4.999865e+000
      vertex  1.674322e+001 -5.361391e+001 -4.999865e+000
    endloop
  endfacet
  facet normal  -0.000000e+000  0.000000e+000  1.000000e+000
    outer loop
      vertex -1.663525e+001  1.345283e+001 -4.999865e+000
      vertex -1.906171e+001  1.295240e+001 -4.999865e+000
      vertex -1.437806e+001  1.243145e+001 -4.999865e+000
    endloop
  endfacet
  facet normal  0.000000e+000  0.000000e+000  1.000000e+000
    outer loop
      vertex -1.437806e+001  1.243145e+001 -4.999865e+000
      vertex -1.906171e+001  1.295240e+001 -4.999865e+000
      vertex -2.073060e+001  1.112130e+001 -4.999865e+000
    endloop
  endfacet
  facet normal  -0.000000e+000  0.000000e+000  1.000000e+000
    outer loop
      vertex -1.437806e+001  1.243145e+001 -4.999865e+000
      vertex -2.073060e+001  1.112130e+001 -4.999865e+000
      vertex -1.315231e+001  1.027839e+001 -4.999865e+000
    endloop
  endfacet
  facet normal  0.000000e+000  0.000000e+000  1.000000e+000
    outer loop
      vertex -1.315231e+001  1.027839e+001 -4.999865e+000
      vertex -2.073060e+001  1.112130e+001 -4.999865e+000
      vertex -7.032409e+000 -1.939534e+001 -4.999865e+000
    endloop
  endfacet
  facet normal  0.000000e+000  0.000000e+000  1.000000e+000
    outer loop
      vertex -7.032409e+000 -1.939534e+001 -4.999865e+000
      vertex -2.073060e+001  1.112130e+001 -4.999865e+000
      vertex -2.100448e+001  8.658964e+000 -4.999865e+000
    endloop
  endfacet
  facet normal  0.000000e+000  0.000000e+000  9.999999e-001
    outer loop
      vertex -7.032409e+000 -1.939534e+001 -4.999865e+000
      vertex -2.100448e+001  8.658964e+000 -4.999865e+000
      vertex -6.949780e+000 -2.020505e+001 -4.999865e+000
    endloop
  endfacet
  facet normal  0.000000e+000  0.000000e+000  1.000000e+000
    outer loop
      vertex -6.949780e+000 -2.020505e+001 -4.999865e+000
      vertex -2.100448e+001  8.658964e+000 -4.999865e+000
      vertex -1.501934e+001 -2.036138e+001 -4.999865e+000
    endloop
  endfacet
  facet normal  -0.000000e+000  0.000000e+000  1.000000e+000
    outer loop
      vertex  1.159307e+000  1.434885e+001 -4.999865e+000
      vertex -2.402406e+000  1.404435e+001 -4.999865e+000
      vertex  2.049214e+000  1.263106e+001 -4.999865e+000
    endloop
  endfacet
  facet normal  0.000000e+000  0.000000e+000  1.000000e+000
    outer loop
      vertex  2.049214e+000  1.263106e+001 -4.999865e+000
      vertex -2.402406e+000  1.404435e+001 -4.999865e+000
      vertex -2.987808e+000  1.220043e+001 -4.999865e+000
    endloop
  endfacet
  facet normal  -0.000000e+000  0.000000e+000  1.000000e+000
    outer loop
      vertex  2.049214e+000  1.263106e+001 -4.999865e+000
      vertex -2.987808e+000  1.220043e+001 -4.999865e+000
      vertex  4.838089e+000 -1.998973e+001 -4.999865e+000
    endloop
  endfacet
  facet normal  0.000000e+000  0.000000e+000  1.000000e+000
    outer loop
      vertex  4.838089e+000 -1.998973e+001 -4.999865e+000
      vertex -2.987808e+000  1.220043e+001 -4.999865e+000
      vertex -2.173416e-001 -2.020505e+001 -4.999865e+000
    endloop
  endfacet
  facet normal  0.000000e+000  0.000000e+000  1.000000e+000
    outer loop
      vertex  4.838089e+000 -1.998973e+001 -4.999865e+000
      vertex -2.173416e-001 -2.020505e+001 -4.999865e+000
      vertex  4.847276e+000 -2.020505e+001 -4.999865e+000
    endloop
  endfacet
  facet normal  -0.000000e+000  0.000000e+000  1.000000e+000
    outer loop
      vertex  1.039457e+001  7.515280e+000 -4.999865e+000
      vertex  8.547501e+000  7.515280e+000 -4.999865e+000
      vertex  1.188889e+001  6.429597e+000 -4.999865e+000
    endloop
  endfacet
  facet normal  0.000000e+000  0.000000e+000  1.000000e+000
    outer loop
      vertex  1.188889e+001  6.429597e+000 -4.999865e+000
      vertex  8.547501e+000  7.515280e+000 -4.999865e+000
      vertex  7.053187e+000  6.429597e+000 -4.999865e+000
    endloop
  endfacet
  facet normal  -0.000000e+000  0.000000e+000  1.000000e+000
    outer loop
      vertex  1.188889e+001  6.429597e+000 -4.999865e+000
      vertex  7.053187e+000  6.429597e+000 -4.999865e+000
      vertex  1.245966e+001  4.672926e+000 -4.999865e+000
    endloop
  endfacet
  facet normal  0.000000e+000  0.000000e+000  1.000000e+000
    outer loop
      vertex  1.245966e+001  4.672926e+000 -4.999865e+000
      vertex  7.053187e+000  6.429597e+000 -4.999865e+000
      vertex  6.482410e+000  4.672926e+000 -4.999865e+000
    endloop
  endfacet
  facet normal  -0.000000e+000  0.000000e+000  1.000000e+000
    outer loop
      vertex  1.245966e+001  4.672926e+000 -4.999865e+000
      vertex  6.482410e+000  4.672926e+000 -4.999865e+000
      vertex  1.245966e+001 -1.939534e+001 -4.999865e+000
    endloop
  endfacet
  facet normal  0.000000e+000  0.000000e+000  1.000000e+000
    outer loop
      vertex  1.245966e+001 -1.939534e+001 -4.999865e+000
      vertex  6.482410e+000  4.672926e+000 -4.999865e+000
      vertex  6.482410e+000 -1.939534e+001 -4.999865e+000
    endloop
  endfacet
  facet normal  -0.000000e+000  0.000000e+000  1.000000e+000
    outer loop
      vertex  1.245966e+001 -1.939534e+001 -4.999865e+000
      vertex  6.482410e+000 -1.939534e+001 -4.999865e+000
      vertex  1.234789e+001 -2.020505e+001 -4.999865e+000
    endloop
  endfacet
  facet normal  0.000000e+000  0.000000e+000  1.000000e+000
    outer loop
      vertex  1.234789e+001 -2.020505e+001 -4.999865e+000
      vertex  6.482410e+000 -1.939534e+001 -4.999865e+000
      vertex  6.594189e+000 -2.020505e+001 -4.999865e+000
    endloop
  endfacet
  facet normal  0.000000e+000  0.000000e+000 -1.000000e+000
    outer loop
      vertex -5.000000e+001 -7.250007e+001 -5.000000e+001
      vertex -5.000000e+001  2.749993e+001 -5.000000e+001
      vertex  5.000000e+001 -7.250007e+001 -5.000000e+001
    endloop
  endfacet
  facet normal  0.000000e+000  0.000000e+000 -1.000000e+000
    outer loop
      vertex  5.000000e+001 -7.250007e+001 -5.000000e+001
      vertex -5.000000e+001  2.749993e+001 -5.000000e+001
      vertex  5.000000e+001  2.749993e+001 -5.000000e+001
    endloop
  endfacet
  facet normal  1.000000e+000  0.000000e+000  0.000000e+000
    outer loop
      vertex  5.000000e+001  2.749993e+001 -5.000000e+001
      vertex  5.000000e+001  2.749993e+001  0.000000e+000
      vertex  5.000000e+001 -7.250007e+001 -5.000000e+001
    endloop
  endfacet
  facet normal  1.000000e+000  0.000000e+000  0.000000e+000
    outer loop
      vertex  5.000000e+001 -7.250007e+001 -5.000000e+001
      vertex  5.000000e+001  2.749993e+001  0.000000e+000
      vertex  5.000000e+001 -7.250007e+001  0.000000e+000
    endloop
  endfacet
  facet normal  0.000000e+000 -1.000000e+000  -0.000000e+000
    outer loop
      vertex  5.000000e+001 -7.250007e+001 -5.000000e+001
      vertex  5.000000e+001 -7.250007e+001  0.000000e+000
      vertex -5.000000e+001 -7.250007e+001 -5.000000e+001
    endloop
  endfacet
  facet normal  0.000000e+000 -1.000000e+000  0.000000e+000
    outer loop
      vertex -5.000000e+001 -7.250007e+001 -5.000000e+001
      vertex  5.000000e+001 -7.250007e+001  0.000000e+000
      vertex -5.000000e+001 -7.250007e+001  0.000000e+000
    endloop
  endfacet
  facet normal -1.000000e+000  0.000000e+000  0.000000e+000
    outer loop
      vertex -5.000000e+001 -7.250007e+001 -5.000000e+001
      vertex -5.000000e+001 -7.250007e+001  0.000000e+000
      vertex -5.000000e+001  2.749993e+001 -5.000000e+001
    endloop
  endfacet
  facet normal -1.000000e+000  0.000000e+000  0.000000e+000
    outer loop
      vertex -5.000000e+001  2.749993e+001 -5.000000e+001
      vertex -5.000000e+001 -7.250007e+001  0.000000e+000
      vertex -5.000000e+001  2.749993e+001  0.000000e+000
    endloop
  endfacet
  facet normal  0.000000e+000  1.000000e+000  0.000000e+000
    outer loop
      vertex -5.000000e+001  2.749993e+001 -5.000000e+001
      vertex -5.000000e+001  2.749993e+001  0.000000e+000
      vertex  5.000000e+001  2.749993e+001 -5.000000e+001
    endloop
  endfacet
  facet normal  0.000000e+000  1.000000e+000  -0.000000e+000
    outer loop
      vertex  5.000000e+001  2.749993e+001 -5.000000e+001
      vertex -5.000000e+001  2.749993e+001  0.000000e+000
      vertex  5.000000e+001  2.749993e+001  0.000000e+000
    endloop
  endfacet
endsolid CATIA STL
