solid CATIA STL
  facet normal  3.826825e-001 -9.238800e-001  0.000000e+000
    outer loop
      vertex -3.288536e-016 -2.221702e+001  1.030000e+001
      vertex -1.445982e+000 -2.281596e+001  5.000000e+001
      vertex -1.445982e+000 -2.281596e+001  1.030000e+001
    endloop
  endfacet
  facet normal  9.238797e-001 -3.826831e-001  0.000000e+000
    outer loop
      vertex -1.445982e+000 -2.281596e+001  1.030000e+001
      vertex -1.445982e+000 -2.281596e+001  5.000000e+001
      vertex -2.044928e+000 -2.426195e+001  5.000000e+001
    endloop
  endfacet
  facet normal  9.238797e-001 -3.826831e-001  0.000000e+000
    outer loop
      vertex -1.445982e+000 -2.281596e+001  1.030000e+001
      vertex -2.044928e+000 -2.426195e+001  5.000000e+001
      vertex -2.044928e+000 -2.426195e+001  1.030000e+001
    endloop
  endfacet
  facet normal  3.826825e-001 -9.238800e-001  0.000000e+000
    outer loop
      vertex -1.445982e+000 -2.281596e+001  5.000000e+001
      vertex -3.288536e-016 -2.221702e+001  1.030000e+001
      vertex -3.288536e-016 -2.221702e+001  5.000000e+001
    endloop
  endfacet
  facet normal -3.826825e-001 -9.238800e-001  -0.000000e+000
    outer loop
      vertex -3.288536e-016 -2.221702e+001  5.000000e+001
      vertex -3.288536e-016 -2.221702e+001  1.030000e+001
      vertex  1.445982e+000 -2.281596e+001  1.030000e+001
    endloop
  endfacet
  facet normal -3.826825e-001 -9.238800e-001  0.000000e+000
    outer loop
      vertex -3.288536e-016 -2.221702e+001  5.000000e+001
      vertex  1.445982e+000 -2.281596e+001  1.030000e+001
      vertex  1.445982e+000 -2.281596e+001  5.000000e+001
    endloop
  endfacet
  facet normal -9.238797e-001 -3.826831e-001  -0.000000e+000
    outer loop
      vertex  1.445982e+000 -2.281596e+001  5.000000e+001
      vertex  1.445982e+000 -2.281596e+001  1.030000e+001
      vertex  2.044928e+000 -2.426195e+001  1.030000e+001
    endloop
  endfacet
  facet normal -9.238797e-001 -3.826831e-001  0.000000e+000
    outer loop
      vertex  1.445982e+000 -2.281596e+001  5.000000e+001
      vertex  2.044928e+000 -2.426195e+001  1.030000e+001
      vertex  2.044928e+000 -2.426195e+001  5.000000e+001
    endloop
  endfacet
  facet normal -3.826835e-001  9.238796e-001  0.000000e+000
    outer loop
      vertex  1.440626e-015 -2.630688e+001  1.030000e+001
      vertex  1.445982e+000 -2.570793e+001  5.000000e+001
      vertex  1.445982e+000 -2.570793e+001  1.030000e+001
    endloop
  endfacet
  facet normal -9.238795e-001  3.826835e-001  0.000000e+000
    outer loop
      vertex  1.445982e+000 -2.570793e+001  1.030000e+001
      vertex  1.445982e+000 -2.570793e+001  5.000000e+001
      vertex  2.044928e+000 -2.426195e+001  5.000000e+001
    endloop
  endfacet
  facet normal -9.238795e-001  3.826835e-001  0.000000e+000
    outer loop
      vertex  1.445982e+000 -2.570793e+001  1.030000e+001
      vertex  2.044928e+000 -2.426195e+001  5.000000e+001
      vertex  2.044928e+000 -2.426195e+001  1.030000e+001
    endloop
  endfacet
  facet normal -3.826835e-001  9.238796e-001 -2.140373e-018
    outer loop
      vertex  1.445982e+000 -2.570793e+001  5.000000e+001
      vertex  1.440626e-015 -2.630688e+001  1.030000e+001
      vertex  1.218581e-015 -2.630688e+001  5.000000e+001
    endloop
  endfacet
  facet normal  3.826835e-001  9.238796e-001  2.140373e-018
    outer loop
      vertex  1.218581e-015 -2.630688e+001  5.000000e+001
      vertex  1.440626e-015 -2.630688e+001  1.030000e+001
      vertex -1.445982e+000 -2.570793e+001  1.030000e+001
    endloop
  endfacet
  facet normal  3.826835e-001  9.238796e-001  -0.000000e+000
    outer loop
      vertex  1.218581e-015 -2.630688e+001  5.000000e+001
      vertex -1.445982e+000 -2.570793e+001  1.030000e+001
      vertex -1.445982e+000 -2.570793e+001  5.000000e+001
    endloop
  endfacet
  facet normal  9.238795e-001  3.826835e-001  0.000000e+000
    outer loop
      vertex -1.445982e+000 -2.570793e+001  5.000000e+001
      vertex -1.445982e+000 -2.570793e+001  1.030000e+001
      vertex -2.044928e+000 -2.426195e+001  1.030000e+001
    endloop
  endfacet
  facet normal  9.238795e-001  3.826835e-001  -0.000000e+000
    outer loop
      vertex -1.445982e+000 -2.570793e+001  5.000000e+001
      vertex -2.044928e+000 -2.426195e+001  1.030000e+001
      vertex -2.044928e+000 -2.426195e+001  5.000000e+001
    endloop
  endfacet
  facet normal  0.000000e+000  0.000000e+000 -1.000000e+000
    outer loop
      vertex -2.987808e+000  3.537550e+001  0.000000e+000
      vertex -2.173416e-001  2.970020e+000  0.000000e+000
      vertex -6.949780e+000  2.970020e+000  0.000000e+000
    endloop
  endfacet
  facet normal  0.000000e+000  0.000000e+000 -1.000000e+000
    outer loop
      vertex -2.987808e+000  3.537550e+001  0.000000e+000
      vertex -6.949780e+000  2.970020e+000  0.000000e+000
      vertex -7.032409e+000  3.779735e+000  0.000000e+000
    endloop
  endfacet
  facet normal  0.000000e+000  0.000000e+000 -1.000000e+000
    outer loop
      vertex -2.987808e+000  3.537550e+001  0.000000e+000
      vertex -7.032409e+000  3.779735e+000  0.000000e+000
      vertex -1.315231e+001  3.345346e+001  0.000000e+000
    endloop
  endfacet
  facet normal  0.000000e+000  0.000000e+000 -9.999999e-001
    outer loop
      vertex -2.987808e+000  3.537550e+001  0.000000e+000
      vertex -1.315231e+001  3.345346e+001  0.000000e+000
      vertex -1.437806e+001  3.560652e+001  0.000000e+000
    endloop
  endfacet
  facet normal  0.000000e+000  0.000000e+000 -1.000000e+000
    outer loop
      vertex -2.987808e+000  3.537550e+001  0.000000e+000
      vertex -1.437806e+001  3.560652e+001  0.000000e+000
      vertex -1.663525e+001  3.662790e+001  0.000000e+000
    endloop
  endfacet
  facet normal  0.000000e+000  0.000000e+000 -1.000000e+000
    outer loop
      vertex  5.000000e+001 -5.000000e+001  0.000000e+000
      vertex -5.000000e+001 -5.000000e+001  0.000000e+000
      vertex -1.284058e+001 -3.090000e+001  0.000000e+000
    endloop
  endfacet
  facet normal  0.000000e+000  0.000000e+000 -1.000000e+000
    outer loop
      vertex  5.000000e+001 -5.000000e+001  0.000000e+000
      vertex -1.284058e+001 -3.090000e+001  0.000000e+000
      vertex  1.502212e+001 -3.090000e+001  0.000000e+000
    endloop
  endfacet
  facet normal  0.000000e+000  0.000000e+000 -1.000000e+000
    outer loop
      vertex  5.000000e+001 -5.000000e+001  0.000000e+000
      vertex  1.502212e+001 -3.090000e+001  0.000000e+000
      vertex  1.674322e+001 -3.043883e+001  0.000000e+000
    endloop
  endfacet
  facet normal  0.000000e+000  0.000000e+000 -1.000000e+000
    outer loop
      vertex  5.000000e+001 -5.000000e+001  0.000000e+000
      vertex  1.674322e+001 -3.043883e+001  0.000000e+000
      vertex  1.800315e+001 -2.917890e+001  0.000000e+000
    endloop
  endfacet
  facet normal  0.000000e+000  0.000000e+000 -1.000000e+000
    outer loop
      vertex  5.000000e+001 -5.000000e+001  0.000000e+000
      vertex  1.800315e+001 -2.917890e+001  0.000000e+000
      vertex  1.846432e+001 -2.745780e+001  0.000000e+000
    endloop
  endfacet
  facet normal  0.000000e+000  0.000000e+000 -1.000000e+000
    outer loop
      vertex  5.000000e+001 -5.000000e+001  0.000000e+000
      vertex  1.846432e+001 -2.745780e+001  0.000000e+000
      vertex  1.846432e+001  5.364522e-003  0.000000e+000
    endloop
  endfacet
  facet normal  0.000000e+000  0.000000e+000 -1.000000e+000
    outer loop
      vertex  5.000000e+001 -5.000000e+001  0.000000e+000
      vertex  1.846432e+001  5.364522e-003  0.000000e+000
      vertex  2.037747e+001  7.052794e-001  0.000000e+000
    endloop
  endfacet
  facet normal  0.000000e+000  0.000000e+000 -1.000000e+000
    outer loop
      vertex  5.000000e+001 -5.000000e+001  0.000000e+000
      vertex  2.037747e+001  7.052794e-001  0.000000e+000
      vertex  2.138728e+001  2.474543e+000  0.000000e+000
    endloop
  endfacet
  facet normal  0.000000e+000  0.000000e+000 -1.000000e+000
    outer loop
      vertex  5.000000e+001 -5.000000e+001  0.000000e+000
      vertex  2.138728e+001  2.474543e+000  0.000000e+000
      vertex  2.468984e+001  2.195730e+001  0.000000e+000
    endloop
  endfacet
  facet normal  0.000000e+000  0.000000e+000 -1.000000e+000
    outer loop
      vertex  5.000000e+001 -5.000000e+001  0.000000e+000
      vertex  2.468984e+001  2.195730e+001  0.000000e+000
      vertex  2.442284e+001  2.377000e+001  0.000000e+000
    endloop
  endfacet
  facet normal  -0.000000e+000  0.000000e+000 -1.000000e+000
    outer loop
      vertex -5.000000e+001  5.000000e+001  0.000000e+000
      vertex  5.000000e+001  5.000000e+001  0.000000e+000
      vertex -6.846142e-001  3.810933e+001  0.000000e+000
    endloop
  endfacet
  facet normal  -0.000000e+000  0.000000e+000 -1.000000e+000
    outer loop
      vertex -5.000000e+001  5.000000e+001  0.000000e+000
      vertex -6.846142e-001  3.810933e+001  0.000000e+000
      vertex -2.402406e+000  3.721942e+001  0.000000e+000
    endloop
  endfacet
  facet normal  -0.000000e+000  0.000000e+000 -1.000000e+000
    outer loop
      vertex -5.000000e+001  5.000000e+001  0.000000e+000
      vertex -2.402406e+000  3.721942e+001  0.000000e+000
      vertex -2.987808e+000  3.537550e+001  0.000000e+000
    endloop
  endfacet
  facet normal  0.000000e+000  0.000000e+000 -1.000000e+000
    outer loop
      vertex -5.000000e+001  5.000000e+001  0.000000e+000
      vertex -2.987808e+000  3.537550e+001  0.000000e+000
      vertex -1.663525e+001  3.662790e+001  0.000000e+000
    endloop
  endfacet
  facet normal  -0.000000e+000  0.000000e+000 -1.000000e+000
    outer loop
      vertex -5.000000e+001  5.000000e+001  0.000000e+000
      vertex -1.663525e+001  3.662790e+001  0.000000e+000
      vertex -1.906171e+001  3.612747e+001  0.000000e+000
    endloop
  endfacet
  facet normal  -0.000000e+000  0.000000e+000 -1.000000e+000
    outer loop
      vertex -5.000000e+001  5.000000e+001  0.000000e+000
      vertex -1.906171e+001  3.612747e+001  0.000000e+000
      vertex -2.073060e+001  3.429638e+001  0.000000e+000
    endloop
  endfacet
  facet normal  -0.000000e+000  0.000000e+000 -1.000000e+000
    outer loop
      vertex -5.000000e+001  5.000000e+001  0.000000e+000
      vertex -2.073060e+001  3.429638e+001  0.000000e+000
      vertex -3.815949e+001  6.887925e-001  0.000000e+000
    endloop
  endfacet
  facet normal  -0.000000e+000  0.000000e+000 -1.000000e+000
    outer loop
      vertex -5.000000e+001  5.000000e+001  0.000000e+000
      vertex -3.815949e+001  6.887925e-001  0.000000e+000
      vertex -5.000000e+001 -5.000000e+001  0.000000e+000
    endloop
  endfacet
  facet normal  0.000000e+000  -0.000000e+000 -9.999999e-001
    outer loop
      vertex -5.000000e+001 -5.000000e+001  0.000000e+000
      vertex -3.815949e+001  6.887925e-001  0.000000e+000
      vertex -3.789608e+001 -1.488773e+000  0.000000e+000
    endloop
  endfacet
  facet normal  0.000000e+000  -0.000000e+000 -1.000000e+000
    outer loop
      vertex -5.000000e+001 -5.000000e+001  0.000000e+000
      vertex -3.789608e+001 -1.488773e+000  0.000000e+000
      vertex -3.640303e+001 -3.095629e+000  0.000000e+000
    endloop
  endfacet
  facet normal  0.000000e+000  -0.000000e+000 -1.000000e+000
    outer loop
      vertex -5.000000e+001 -5.000000e+001  0.000000e+000
      vertex -3.640303e+001 -3.095629e+000  0.000000e+000
      vertex -2.019049e+001 -1.212036e+001  0.000000e+000
    endloop
  endfacet
  facet normal  0.000000e+000  -0.000000e+000 -1.000000e+000
    outer loop
      vertex -5.000000e+001 -5.000000e+001  0.000000e+000
      vertex -2.019049e+001 -1.212036e+001  0.000000e+000
      vertex -1.846432e+001 -1.256843e+001  0.000000e+000
    endloop
  endfacet
  facet normal  0.000000e+000  -0.000000e+000 -9.999999e-001
    outer loop
      vertex -5.000000e+001 -5.000000e+001  0.000000e+000
      vertex -1.846432e+001 -1.256843e+001  0.000000e+000
      vertex -1.846432e+001 -2.527626e+001  0.000000e+000
    endloop
  endfacet
  facet normal  0.000000e+000  -0.000000e+000 -9.999999e-001
    outer loop
      vertex -5.000000e+001 -5.000000e+001  0.000000e+000
      vertex -1.846432e+001 -2.527626e+001  0.000000e+000
      vertex -1.771088e+001 -2.808813e+001  0.000000e+000
    endloop
  endfacet
  facet normal  0.000000e+000  -0.000000e+000 -1.000000e+000
    outer loop
      vertex -5.000000e+001 -5.000000e+001  0.000000e+000
      vertex -1.771088e+001 -2.808813e+001  0.000000e+000
      vertex -1.565245e+001 -3.014656e+001  0.000000e+000
    endloop
  endfacet
  facet normal  0.000000e+000  -0.000000e+000 -1.000000e+000
    outer loop
      vertex -5.000000e+001 -5.000000e+001  0.000000e+000
      vertex -1.565245e+001 -3.014656e+001  0.000000e+000
      vertex -1.284058e+001 -3.090000e+001  0.000000e+000
    endloop
  endfacet
  facet normal  0.000000e+000  0.000000e+000 -1.000000e+000
    outer loop
      vertex -3.295068e+001  3.106358e+000  0.000000e+000
      vertex -3.510307e+001  3.528740e+000  0.000000e+000
      vertex -2.100448e+001  3.183404e+001  0.000000e+000
    endloop
  endfacet
  facet normal  0.000000e+000  -0.000000e+000 -1.000000e+000
    outer loop
      vertex -3.295068e+001  3.106358e+000  0.000000e+000
      vertex -2.100448e+001  3.183404e+001  0.000000e+000
      vertex -1.501934e+001  2.813689e+000  0.000000e+000
    endloop
  endfacet
  facet normal  -0.000000e+000  0.000000e+000 -1.000000e+000
    outer loop
      vertex -3.295068e+001  3.106358e+000  0.000000e+000
      vertex -1.501934e+001  2.813689e+000  0.000000e+000
      vertex -1.680371e+001  1.887558e+000  0.000000e+000
    endloop
  endfacet
  facet normal  -0.000000e+000  0.000000e+000 -1.000000e+000
    outer loop
      vertex -3.295068e+001  3.106358e+000  0.000000e+000
      vertex -1.680371e+001  1.887558e+000  0.000000e+000
      vertex -1.802872e+001  2.934974e-001  0.000000e+000
    endloop
  endfacet
  facet normal  -0.000000e+000  0.000000e+000 -1.000000e+000
    outer loop
      vertex -3.295068e+001  3.106358e+000  0.000000e+000
      vertex -1.802872e+001  2.934974e-001  0.000000e+000
      vertex -1.846432e+001 -1.669136e+000  0.000000e+000
    endloop
  endfacet
  facet normal  -0.000000e+000  -0.000000e+000 -1.000000e+000
    outer loop
      vertex -3.295068e+001  3.106358e+000  0.000000e+000
      vertex -1.846432e+001 -1.669136e+000  0.000000e+000
      vertex -1.846432e+001 -4.957497e+000  0.000000e+000
    endloop
  endfacet
  facet normal  -0.000000e+000  0.000000e+000 -1.000000e+000
    outer loop
      vertex  1.245966e+001  2.784800e+001  0.000000e+000
      vertex  2.133487e+001  2.538578e+001  0.000000e+000
      vertex  1.969339e+001  2.457169e+001  0.000000e+000
    endloop
  endfacet
  facet normal  -0.000000e+000  0.000000e+000 -1.000000e+000
    outer loop
      vertex  1.245966e+001  2.784800e+001  0.000000e+000
      vertex  1.969339e+001  2.457169e+001  0.000000e+000
      vertex  1.884393e+001  2.294825e+001  0.000000e+000
    endloop
  endfacet
  facet normal  -0.000000e+000  0.000000e+000 -1.000000e+000
    outer loop
      vertex  1.245966e+001  2.784800e+001  0.000000e+000
      vertex  1.884393e+001  2.294825e+001  0.000000e+000
      vertex  1.245966e+001  3.779735e+000  0.000000e+000
    endloop
  endfacet
  facet normal  0.000000e+000  0.000000e+000 -1.000000e+000
    outer loop
      vertex  2.049214e+000  3.580613e+001  0.000000e+000
      vertex  1.159307e+000  3.752392e+001  0.000000e+000
      vertex  2.314135e+001  2.507956e+001  0.000000e+000
    endloop
  endfacet
  facet normal  0.000000e+000  0.000000e+000 -1.000000e+000
    outer loop
      vertex  2.049214e+000  3.580613e+001  0.000000e+000
      vertex  2.314135e+001  2.507956e+001  0.000000e+000
      vertex  1.039457e+001  3.069035e+001  0.000000e+000
    endloop
  endfacet
  facet normal  0.000000e+000  0.000000e+000 -9.999999e-001
    outer loop
      vertex  2.049214e+000  3.580613e+001  0.000000e+000
      vertex  1.039457e+001  3.069035e+001  0.000000e+000
      vertex  8.547501e+000  3.069035e+001  0.000000e+000
    endloop
  endfacet
  facet normal  -0.000000e+000  0.000000e+000 -1.000000e+000
    outer loop
      vertex  2.049214e+000  3.580613e+001  0.000000e+000
      vertex  8.547501e+000  3.069035e+001  0.000000e+000
      vertex  7.053187e+000  2.960467e+001  0.000000e+000
    endloop
  endfacet
  facet normal  -0.000000e+000  0.000000e+000 -1.000000e+000
    outer loop
      vertex  2.049214e+000  3.580613e+001  0.000000e+000
      vertex  7.053187e+000  2.960467e+001  0.000000e+000
      vertex  6.482410e+000  2.784800e+001  0.000000e+000
    endloop
  endfacet
  facet normal  -0.000000e+000  0.000000e+000 -1.000000e+000
    outer loop
      vertex  2.049214e+000  3.580613e+001  0.000000e+000
      vertex  6.482410e+000  2.784800e+001  0.000000e+000
      vertex  4.838089e+000  3.185337e+000  0.000000e+000
    endloop
  endfacet
  facet normal  0.000000e+000  0.000000e+000 -1.000000e+000
    outer loop
      vertex  2.314135e+001  2.507956e+001  0.000000e+000
      vertex  2.133487e+001  2.538578e+001  0.000000e+000
      vertex  1.245966e+001  2.784800e+001  0.000000e+000
    endloop
  endfacet
  facet normal  0.000000e+000  0.000000e+000 -1.000000e+000
    outer loop
      vertex  2.314135e+001  2.507956e+001  0.000000e+000
      vertex  1.245966e+001  2.784800e+001  0.000000e+000
      vertex  1.188889e+001  2.960467e+001  0.000000e+000
    endloop
  endfacet
  facet normal  0.000000e+000  0.000000e+000 -1.000000e+000
    outer loop
      vertex  2.314135e+001  2.507956e+001  0.000000e+000
      vertex  1.188889e+001  2.960467e+001  0.000000e+000
      vertex  1.039457e+001  3.069035e+001  0.000000e+000
    endloop
  endfacet
  facet normal  0.000000e+000  0.000000e+000 -1.000000e+000
    outer loop
      vertex  5.000000e+001  5.000000e+001  0.000000e+000
      vertex  5.000000e+001 -5.000000e+001  0.000000e+000
      vertex  2.442284e+001  2.377000e+001  0.000000e+000
    endloop
  endfacet
  facet normal  0.000000e+000  0.000000e+000 -1.000000e+000
    outer loop
      vertex  5.000000e+001  5.000000e+001  0.000000e+000
      vertex  2.442284e+001  2.377000e+001  0.000000e+000
      vertex  2.314135e+001  2.507956e+001  0.000000e+000
    endloop
  endfacet
  facet normal  0.000000e+000  0.000000e+000 -9.999999e-001
    outer loop
      vertex  5.000000e+001  5.000000e+001  0.000000e+000
      vertex  2.314135e+001  2.507956e+001  0.000000e+000
      vertex  1.159307e+000  3.752392e+001  0.000000e+000
    endloop
  endfacet
  facet normal  0.000000e+000  0.000000e+000 -9.999999e-001
    outer loop
      vertex  5.000000e+001  5.000000e+001  0.000000e+000
      vertex  1.159307e+000  3.752392e+001  0.000000e+000
      vertex -6.846142e-001  3.810933e+001  0.000000e+000
    endloop
  endfacet
  facet normal  0.000000e+000  0.000000e+000 -1.000000e+000
    outer loop
      vertex -3.815949e+001  6.887925e-001  0.000000e+000
      vertex -2.073060e+001  3.429638e+001  0.000000e+000
      vertex -3.709266e+001  2.605312e+000  0.000000e+000
    endloop
  endfacet
  facet normal  0.000000e+000  0.000000e+000 -1.000000e+000
    outer loop
      vertex -3.709266e+001  2.605312e+000  0.000000e+000
      vertex -2.073060e+001  3.429638e+001  0.000000e+000
      vertex -2.100448e+001  3.183404e+001  0.000000e+000
    endloop
  endfacet
  facet normal  0.000000e+000  0.000000e+000 -1.000000e+000
    outer loop
      vertex -3.709266e+001  2.605312e+000  0.000000e+000
      vertex -2.100448e+001  3.183404e+001  0.000000e+000
      vertex -3.510307e+001  3.528740e+000  0.000000e+000
    endloop
  endfacet
  facet normal  0.000000e+000  0.000000e+000 -1.000000e+000
    outer loop
      vertex  1.884393e+001  2.294825e+001  0.000000e+000
      vertex  1.554136e+001  3.465497e+000  0.000000e+000
      vertex  1.245966e+001  3.779735e+000  0.000000e+000
    endloop
  endfacet
  facet normal  0.000000e+000  0.000000e+000 -1.000000e+000
    outer loop
      vertex  1.245966e+001  3.779735e+000  0.000000e+000
      vertex  1.554136e+001  3.465497e+000  0.000000e+000
      vertex  1.549967e+001  2.970020e+000  0.000000e+000
    endloop
  endfacet
  facet normal  0.000000e+000  0.000000e+000 -1.000000e+000
    outer loop
      vertex  1.245966e+001  3.779735e+000  0.000000e+000
      vertex  1.549967e+001  2.970020e+000  0.000000e+000
      vertex  1.234789e+001  2.970020e+000  0.000000e+000
    endloop
  endfacet
  facet normal  -0.000000e+000  0.000000e+000 -1.000000e+000
    outer loop
      vertex  6.482410e+000  2.784800e+001  0.000000e+000
      vertex  6.482410e+000  3.779735e+000  0.000000e+000
      vertex  4.838089e+000  3.185337e+000  0.000000e+000
    endloop
  endfacet
  facet normal  0.000000e+000  0.000000e+000 -1.000000e+000
    outer loop
      vertex  4.838089e+000  3.185337e+000  0.000000e+000
      vertex  6.482410e+000  3.779735e+000  0.000000e+000
      vertex  6.594189e+000  2.970020e+000  0.000000e+000
    endloop
  endfacet
  facet normal  0.000000e+000  0.000000e+000 -1.000000e+000
    outer loop
      vertex  4.838089e+000  3.185337e+000  0.000000e+000
      vertex  6.594189e+000  2.970020e+000  0.000000e+000
      vertex  4.847276e+000  2.970020e+000  0.000000e+000
    endloop
  endfacet
  facet normal  -0.000000e+000  0.000000e+000  9.999999e-001
    outer loop
      vertex  5.000000e+001  5.000000e+001  5.000000e+001
      vertex -5.000000e+001  5.000000e+001  5.000000e+001
      vertex -1.445982e+000 -2.281596e+001  5.000000e+001
    endloop
  endfacet
  facet normal  0.000000e+000  0.000000e+000  1.000000e+000
    outer loop
      vertex  5.000000e+001  5.000000e+001  5.000000e+001
      vertex -1.445982e+000 -2.281596e+001  5.000000e+001
      vertex -3.288536e-016 -2.221702e+001  5.000000e+001
    endloop
  endfacet
  facet normal  -0.000000e+000  0.000000e+000  1.000000e+000
    outer loop
      vertex  5.000000e+001  5.000000e+001  5.000000e+001
      vertex -3.288536e-016 -2.221702e+001  5.000000e+001
      vertex  1.445982e+000 -2.281596e+001  5.000000e+001
    endloop
  endfacet
  facet normal  -0.000000e+000  0.000000e+000  1.000000e+000
    outer loop
      vertex  5.000000e+001  5.000000e+001  5.000000e+001
      vertex  1.445982e+000 -2.281596e+001  5.000000e+001
      vertex  5.000000e+001 -5.000000e+001  5.000000e+001
    endloop
  endfacet
  facet normal  0.000000e+000  0.000000e+000  1.000000e+000
    outer loop
      vertex -5.000000e+001 -5.000000e+001  5.000000e+001
      vertex  5.000000e+001 -5.000000e+001  5.000000e+001
      vertex  1.218581e-015 -2.630688e+001  5.000000e+001
    endloop
  endfacet
  facet normal  0.000000e+000  0.000000e+000  1.000000e+000
    outer loop
      vertex -5.000000e+001 -5.000000e+001  5.000000e+001
      vertex  1.218581e-015 -2.630688e+001  5.000000e+001
      vertex -1.445982e+000 -2.570793e+001  5.000000e+001
    endloop
  endfacet
  facet normal  0.000000e+000  0.000000e+000  9.999999e-001
    outer loop
      vertex -5.000000e+001 -5.000000e+001  5.000000e+001
      vertex -1.445982e+000 -2.570793e+001  5.000000e+001
      vertex -2.044928e+000 -2.426195e+001  5.000000e+001
    endloop
  endfacet
  facet normal  0.000000e+000  -0.000000e+000  1.000000e+000
    outer loop
      vertex -5.000000e+001 -5.000000e+001  5.000000e+001
      vertex -2.044928e+000 -2.426195e+001  5.000000e+001
      vertex -1.445982e+000 -2.281596e+001  5.000000e+001
    endloop
  endfacet
  facet normal  0.000000e+000  0.000000e+000  1.000000e+000
    outer loop
      vertex -5.000000e+001 -5.000000e+001  5.000000e+001
      vertex -1.445982e+000 -2.281596e+001  5.000000e+001
      vertex -5.000000e+001  5.000000e+001  5.000000e+001
    endloop
  endfacet
  facet normal  0.000000e+000  0.000000e+000  1.000000e+000
    outer loop
      vertex  5.000000e+001 -5.000000e+001  5.000000e+001
      vertex  1.445982e+000 -2.281596e+001  5.000000e+001
      vertex  2.044928e+000 -2.426195e+001  5.000000e+001
    endloop
  endfacet
  facet normal  0.000000e+000  0.000000e+000  9.999999e-001
    outer loop
      vertex  5.000000e+001 -5.000000e+001  5.000000e+001
      vertex  2.044928e+000 -2.426195e+001  5.000000e+001
      vertex  1.445982e+000 -2.570793e+001  5.000000e+001
    endloop
  endfacet
  facet normal  0.000000e+000  0.000000e+000  1.000000e+000
    outer loop
      vertex  5.000000e+001 -5.000000e+001  5.000000e+001
      vertex  1.445982e+000 -2.570793e+001  5.000000e+001
      vertex  1.218581e-015 -2.630688e+001  5.000000e+001
    endloop
  endfacet
  facet normal -8.684961e-001  4.956961e-001  0.000000e+000
    outer loop
      vertex  2.138728e+001  2.474543e+000  0.000000e+000
      vertex  2.037747e+001  7.052794e-001  0.000000e+000
      vertex  2.138728e+001  2.474543e+000  1.030000e+001
    endloop
  endfacet
  facet normal -8.684961e-001  4.956961e-001  0.000000e+000
    outer loop
      vertex  2.138728e+001  2.474543e+000  1.030000e+001
      vertex  2.037747e+001  7.052794e-001  0.000000e+000
      vertex  2.037747e+001  7.052794e-001  1.030000e+001
    endloop
  endfacet
  facet normal -3.435742e-001  9.391256e-001  0.000000e+000
    outer loop
      vertex  2.037747e+001  7.052794e-001  0.000000e+000
      vertex  1.846432e+001  5.364522e-003  0.000000e+000
      vertex  2.037747e+001  7.052794e-001  1.030000e+001
    endloop
  endfacet
  facet normal -3.435742e-001  9.391256e-001  0.000000e+000
    outer loop
      vertex  2.037747e+001  7.052794e-001  1.030000e+001
      vertex  1.846432e+001  5.364522e-003  0.000000e+000
      vertex  1.846432e+001  5.364522e-003  1.030000e+001
    endloop
  endfacet
  facet normal -9.859353e-001  1.671280e-001  0.000000e+000
    outer loop
      vertex  2.468984e+001  2.195730e+001  1.030000e+001
      vertex  2.468984e+001  2.195730e+001  0.000000e+000
      vertex  2.138728e+001  2.474543e+000  1.030000e+001
    endloop
  endfacet
  facet normal -9.859353e-001  1.671280e-001  0.000000e+000
    outer loop
      vertex  2.138728e+001  2.474543e+000  1.030000e+001
      vertex  2.468984e+001  2.195730e+001  0.000000e+000
      vertex  2.138728e+001  2.474543e+000  0.000000e+000
    endloop
  endfacet
  facet normal  4.443090e-001 -8.958736e-001  0.000000e+000
    outer loop
      vertex  2.133487e+001  2.538578e+001  0.000000e+000
      vertex  1.969339e+001  2.457169e+001  1.030000e+001
      vertex  1.969339e+001  2.457169e+001  0.000000e+000
    endloop
  endfacet
  facet normal  8.860349e-001 -4.636185e-001  0.000000e+000
    outer loop
      vertex  1.969339e+001  2.457169e+001  0.000000e+000
      vertex  1.969339e+001  2.457169e+001  1.030000e+001
      vertex  1.884393e+001  2.294825e+001  1.030000e+001
    endloop
  endfacet
  facet normal  8.860349e-001 -4.636185e-001  0.000000e+000
    outer loop
      vertex  1.969339e+001  2.457169e+001  0.000000e+000
      vertex  1.884393e+001  2.294825e+001  1.030000e+001
      vertex  1.884393e+001  2.294825e+001  0.000000e+000
    endloop
  endfacet
  facet normal  4.443090e-001 -8.958736e-001  0.000000e+000
    outer loop
      vertex  1.969339e+001  2.457169e+001  1.030000e+001
      vertex  2.133487e+001  2.538578e+001  0.000000e+000
      vertex  2.133487e+001  2.538578e+001  1.030000e+001
    endloop
  endfacet
  facet normal -1.671276e-001 -9.859353e-001  -0.000000e+000
    outer loop
      vertex  2.133487e+001  2.538578e+001  1.030000e+001
      vertex  2.133487e+001  2.538578e+001  0.000000e+000
      vertex  2.314135e+001  2.507956e+001  0.000000e+000
    endloop
  endfacet
  facet normal -1.671276e-001 -9.859353e-001  0.000000e+000
    outer loop
      vertex  2.133487e+001  2.538578e+001  1.030000e+001
      vertex  2.314135e+001  2.507956e+001  0.000000e+000
      vertex  2.314135e+001  2.507956e+001  1.030000e+001
    endloop
  endfacet
  facet normal -7.147274e-001 -6.994031e-001  -0.000000e+000
    outer loop
      vertex  2.314135e+001  2.507956e+001  1.030000e+001
      vertex  2.314135e+001  2.507956e+001  0.000000e+000
      vertex  2.442284e+001  2.377000e+001  0.000000e+000
    endloop
  endfacet
  facet normal -7.147274e-001 -6.994031e-001  0.000000e+000
    outer loop
      vertex  2.314135e+001  2.507956e+001  1.030000e+001
      vertex  2.442284e+001  2.377000e+001  0.000000e+000
      vertex  2.442284e+001  2.377000e+001  1.030000e+001
    endloop
  endfacet
  facet normal -9.893255e-001 -1.457229e-001  -0.000000e+000
    outer loop
      vertex  2.442284e+001  2.377000e+001  1.030000e+001
      vertex  2.442284e+001  2.377000e+001  0.000000e+000
      vertex  2.468984e+001  2.195730e+001  0.000000e+000
    endloop
  endfacet
  facet normal -9.893255e-001 -1.457229e-001  0.000000e+000
    outer loop
      vertex  2.442284e+001  2.377000e+001  1.030000e+001
      vertex  2.468984e+001  2.195730e+001  0.000000e+000
      vertex  2.468984e+001  2.195730e+001  1.030000e+001
    endloop
  endfacet
  facet normal  9.859353e-001 -1.671280e-001  0.000000e+000
    outer loop
      vertex  1.554136e+001  3.465497e+000  1.030000e+001
      vertex  1.554136e+001  3.465497e+000  0.000000e+000
      vertex  1.884393e+001  2.294825e+001  1.030000e+001
    endloop
  endfacet
  facet normal  9.859353e-001 -1.671280e-001  0.000000e+000
    outer loop
      vertex  1.884393e+001  2.294825e+001  1.030000e+001
      vertex  1.554136e+001  3.465497e+000  0.000000e+000
      vertex  1.884393e+001  2.294825e+001  0.000000e+000
    endloop
  endfacet
  facet normal  9.964775e-001 -8.385989e-002  0.000000e+000
    outer loop
      vertex  1.554136e+001  3.465497e+000  1.030000e+001
      vertex  1.549967e+001  2.970020e+000  1.030000e+001
      vertex  1.554136e+001  3.465497e+000  0.000000e+000
    endloop
  endfacet
  facet normal  9.964775e-001 -8.385989e-002  0.000000e+000
    outer loop
      vertex  1.554136e+001  3.465497e+000  0.000000e+000
      vertex  1.549967e+001  2.970020e+000  1.030000e+001
      vertex  1.549967e+001  2.970020e+000  0.000000e+000
    endloop
  endfacet
  facet normal  0.000000e+000 -1.000000e+000  0.000000e+000
    outer loop
      vertex  1.234789e+001  2.970020e+000  1.030000e+001
      vertex  1.234789e+001  2.970020e+000  0.000000e+000
      vertex  1.549967e+001  2.970020e+000  1.030000e+001
    endloop
  endfacet
  facet normal  0.000000e+000 -1.000000e+000  -0.000000e+000
    outer loop
      vertex  1.549967e+001  2.970020e+000  1.030000e+001
      vertex  1.234789e+001  2.970020e+000  0.000000e+000
      vertex  1.549967e+001  2.970020e+000  0.000000e+000
    endloop
  endfacet
  facet normal -9.906055e-001  1.367508e-001  0.000000e+000
    outer loop
      vertex  1.234789e+001  2.970020e+000  1.030000e+001
      vertex  1.245966e+001  3.779735e+000  1.030000e+001
      vertex  1.234789e+001  2.970020e+000  0.000000e+000
    endloop
  endfacet
  facet normal -9.906055e-001  1.367508e-001  0.000000e+000
    outer loop
      vertex  1.234789e+001  2.970020e+000  0.000000e+000
      vertex  1.245966e+001  3.779735e+000  1.030000e+001
      vertex  1.245966e+001  3.779735e+000  0.000000e+000
    endloop
  endfacet
  facet normal -1.000000e+000  0.000000e+000  0.000000e+000
    outer loop
      vertex  1.245966e+001  2.784800e+001  1.030000e+001
      vertex  1.245966e+001  2.784800e+001  0.000000e+000
      vertex  1.245966e+001  3.779735e+000  1.030000e+001
    endloop
  endfacet
  facet normal -1.000000e+000  0.000000e+000  0.000000e+000
    outer loop
      vertex  1.245966e+001  3.779735e+000  1.030000e+001
      vertex  1.245966e+001  2.784800e+001  0.000000e+000
      vertex  1.245966e+001  3.779735e+000  0.000000e+000
    endloop
  endfacet
  facet normal  5.877851e-001 -8.090171e-001  0.000000e+000
    outer loop
      vertex  8.547501e+000  3.069035e+001  0.000000e+000
      vertex  7.053187e+000  2.960467e+001  1.030000e+001
      vertex  7.053187e+000  2.960467e+001  0.000000e+000
    endloop
  endfacet
  facet normal  9.510565e-001 -3.090172e-001  0.000000e+000
    outer loop
      vertex  7.053187e+000  2.960467e+001  0.000000e+000
      vertex  7.053187e+000  2.960467e+001  1.030000e+001
      vertex  6.482410e+000  2.784800e+001  1.030000e+001
    endloop
  endfacet
  facet normal  9.510565e-001 -3.090172e-001  0.000000e+000
    outer loop
      vertex  7.053187e+000  2.960467e+001  0.000000e+000
      vertex  6.482410e+000  2.784800e+001  1.030000e+001
      vertex  6.482410e+000  2.784800e+001  0.000000e+000
    endloop
  endfacet
  facet normal  5.877851e-001 -8.090171e-001  0.000000e+000
    outer loop
      vertex  7.053187e+000  2.960467e+001  1.030000e+001
      vertex  8.547501e+000  3.069035e+001  0.000000e+000
      vertex  8.547501e+000  3.069035e+001  1.030000e+001
    endloop
  endfacet
  facet normal  0.000000e+000 -1.000000e+000  0.000000e+000
    outer loop
      vertex  8.547501e+000  3.069035e+001  1.030000e+001
      vertex  8.547501e+000  3.069035e+001  0.000000e+000
      vertex  1.039457e+001  3.069035e+001  0.000000e+000
    endloop
  endfacet
  facet normal  0.000000e+000 -1.000000e+000  0.000000e+000
    outer loop
      vertex  8.547501e+000  3.069035e+001  1.030000e+001
      vertex  1.039457e+001  3.069035e+001  0.000000e+000
      vertex  1.039457e+001  3.069035e+001  1.030000e+001
    endloop
  endfacet
  facet normal -5.877852e-001 -8.090171e-001  -0.000000e+000
    outer loop
      vertex  1.039457e+001  3.069035e+001  1.030000e+001
      vertex  1.039457e+001  3.069035e+001  0.000000e+000
      vertex  1.188889e+001  2.960467e+001  0.000000e+000
    endloop
  endfacet
  facet normal -5.877852e-001 -8.090171e-001  0.000000e+000
    outer loop
      vertex  1.039457e+001  3.069035e+001  1.030000e+001
      vertex  1.188889e+001  2.960467e+001  0.000000e+000
      vertex  1.188889e+001  2.960467e+001  1.030000e+001
    endloop
  endfacet
  facet normal -9.510565e-001 -3.090172e-001  -0.000000e+000
    outer loop
      vertex  1.188889e+001  2.960467e+001  1.030000e+001
      vertex  1.188889e+001  2.960467e+001  0.000000e+000
      vertex  1.245966e+001  2.784800e+001  0.000000e+000
    endloop
  endfacet
  facet normal -9.510565e-001 -3.090172e-001  0.000000e+000
    outer loop
      vertex  1.188889e+001  2.960467e+001  1.030000e+001
      vertex  1.245966e+001  2.784800e+001  0.000000e+000
      vertex  1.245966e+001  2.784800e+001  1.030000e+001
    endloop
  endfacet
  facet normal  1.000000e+000  0.000000e+000  0.000000e+000
    outer loop
      vertex  6.482410e+000  3.779735e+000  1.030000e+001
      vertex  6.482410e+000  3.779735e+000  0.000000e+000
      vertex  6.482410e+000  2.784800e+001  1.030000e+001
    endloop
  endfacet
  facet normal  1.000000e+000  0.000000e+000  0.000000e+000
    outer loop
      vertex  6.482410e+000  2.784800e+001  1.030000e+001
      vertex  6.482410e+000  3.779735e+000  0.000000e+000
      vertex  6.482410e+000  2.784800e+001  0.000000e+000
    endloop
  endfacet
  facet normal  9.906055e-001  1.367508e-001  0.000000e+000
    outer loop
      vertex  6.482410e+000  3.779735e+000  1.030000e+001
      vertex  6.594189e+000  2.970020e+000  1.030000e+001
      vertex  6.482410e+000  3.779735e+000  0.000000e+000
    endloop
  endfacet
  facet normal  9.906055e-001  1.367508e-001  0.000000e+000
    outer loop
      vertex  6.482410e+000  3.779735e+000  0.000000e+000
      vertex  6.594189e+000  2.970020e+000  1.030000e+001
      vertex  6.594189e+000  2.970020e+000  0.000000e+000
    endloop
  endfacet
  facet normal  0.000000e+000 -1.000000e+000  0.000000e+000
    outer loop
      vertex  4.847276e+000  2.970020e+000  1.030000e+001
      vertex  4.847276e+000  2.970020e+000  0.000000e+000
      vertex  6.594189e+000  2.970020e+000  1.030000e+001
    endloop
  endfacet
  facet normal  0.000000e+000 -1.000000e+000  -0.000000e+000
    outer loop
      vertex  6.594189e+000  2.970020e+000  1.030000e+001
      vertex  4.847276e+000  2.970020e+000  0.000000e+000
      vertex  6.594189e+000  2.970020e+000  0.000000e+000
    endloop
  endfacet
  facet normal -9.990908e-001 -4.263177e-002  0.000000e+000
    outer loop
      vertex  4.847276e+000  2.970020e+000  1.030000e+001
      vertex  4.838089e+000  3.185337e+000  1.030000e+001
      vertex  4.847276e+000  2.970020e+000  0.000000e+000
    endloop
  endfacet
  facet normal -9.990908e-001 -4.263177e-002  0.000000e+000
    outer loop
      vertex  4.847276e+000  2.970020e+000  0.000000e+000
      vertex  4.838089e+000  3.185337e+000  1.030000e+001
      vertex  4.838089e+000  3.185337e+000  0.000000e+000
    endloop
  endfacet
  facet normal -9.963654e-001 -8.518302e-002  0.000000e+000
    outer loop
      vertex  2.049214e+000  3.580613e+001  1.030000e+001
      vertex  2.049214e+000  3.580613e+001  0.000000e+000
      vertex  4.838089e+000  3.185337e+000  1.030000e+001
    endloop
  endfacet
  facet normal -9.963654e-001 -8.518302e-002  -0.000000e+000
    outer loop
      vertex  4.838089e+000  3.185337e+000  1.030000e+001
      vertex  2.049214e+000  3.580613e+001  0.000000e+000
      vertex  4.838089e+000  3.185337e+000  0.000000e+000
    endloop
  endfacet
  facet normal  4.599902e-001 -8.879240e-001  0.000000e+000
    outer loop
      vertex -6.846142e-001  3.810933e+001  0.000000e+000
      vertex -2.402406e+000  3.721942e+001  1.030000e+001
      vertex -2.402406e+000  3.721942e+001  0.000000e+000
    endloop
  endfacet
  facet normal  9.531196e-001 -3.025936e-001  0.000000e+000
    outer loop
      vertex -2.402406e+000  3.721942e+001  0.000000e+000
      vertex -2.402406e+000  3.721942e+001  1.030000e+001
      vertex -2.987808e+000  3.537550e+001  1.030000e+001
    endloop
  endfacet
  facet normal  9.531196e-001 -3.025936e-001  0.000000e+000
    outer loop
      vertex -2.402406e+000  3.721942e+001  0.000000e+000
      vertex -2.987808e+000  3.537550e+001  1.030000e+001
      vertex -2.987808e+000  3.537550e+001  0.000000e+000
    endloop
  endfacet
  facet normal  4.599902e-001 -8.879240e-001  0.000000e+000
    outer loop
      vertex -2.402406e+000  3.721942e+001  1.030000e+001
      vertex -6.846142e-001  3.810933e+001  0.000000e+000
      vertex -6.846142e-001  3.810933e+001  1.030000e+001
    endloop
  endfacet
  facet normal -3.025940e-001 -9.531195e-001  -0.000000e+000
    outer loop
      vertex -6.846142e-001  3.810933e+001  1.030000e+001
      vertex -6.846142e-001  3.810933e+001  0.000000e+000
      vertex  1.159307e+000  3.752392e+001  0.000000e+000
    endloop
  endfacet
  facet normal -3.025940e-001 -9.531195e-001  0.000000e+000
    outer loop
      vertex -6.846142e-001  3.810933e+001  1.030000e+001
      vertex  1.159307e+000  3.752392e+001  0.000000e+000
      vertex  1.159307e+000  3.752392e+001  1.030000e+001
    endloop
  endfacet
  facet normal -8.879231e-001 -4.599920e-001  -0.000000e+000
    outer loop
      vertex  1.159307e+000  3.752392e+001  1.030000e+001
      vertex  1.159307e+000  3.752392e+001  0.000000e+000
      vertex  2.049214e+000  3.580613e+001  0.000000e+000
    endloop
  endfacet
  facet normal -8.879231e-001 -4.599920e-001  0.000000e+000
    outer loop
      vertex  1.159307e+000  3.752392e+001  1.030000e+001
      vertex  2.049214e+000  3.580613e+001  0.000000e+000
      vertex  2.049214e+000  3.580613e+001  1.030000e+001
    endloop
  endfacet
  facet normal  9.963654e-001  8.518302e-002  -0.000000e+000
    outer loop
      vertex -2.173416e-001  2.970020e+000  1.030000e+001
      vertex -2.173416e-001  2.970020e+000  0.000000e+000
      vertex -2.987808e+000  3.537550e+001  1.030000e+001
    endloop
  endfacet
  facet normal  9.963654e-001  8.518302e-002  0.000000e+000
    outer loop
      vertex -2.987808e+000  3.537550e+001  1.030000e+001
      vertex -2.173416e-001  2.970020e+000  0.000000e+000
      vertex -2.987808e+000  3.537550e+001  0.000000e+000
    endloop
  endfacet
  facet normal  0.000000e+000 -1.000000e+000  0.000000e+000
    outer loop
      vertex -6.949780e+000  2.970020e+000  1.030000e+001
      vertex -6.949780e+000  2.970020e+000  0.000000e+000
      vertex -2.173416e-001  2.970020e+000  1.030000e+001
    endloop
  endfacet
  facet normal  0.000000e+000 -1.000000e+000  -0.000000e+000
    outer loop
      vertex -2.173416e-001  2.970020e+000  1.030000e+001
      vertex -6.949780e+000  2.970020e+000  0.000000e+000
      vertex -2.173416e-001  2.970020e+000  0.000000e+000
    endloop
  endfacet
  facet normal -9.948336e-001 -1.015189e-001  0.000000e+000
    outer loop
      vertex -6.949780e+000  2.970020e+000  1.030000e+001
      vertex -7.032409e+000  3.779735e+000  1.030000e+001
      vertex -6.949780e+000  2.970020e+000  0.000000e+000
    endloop
  endfacet
  facet normal -9.948336e-001 -1.015189e-001  0.000000e+000
    outer loop
      vertex -6.949780e+000  2.970020e+000  0.000000e+000
      vertex -7.032409e+000  3.779735e+000  1.030000e+001
      vertex -7.032409e+000  3.779735e+000  0.000000e+000
    endloop
  endfacet
  facet normal -9.793879e-001 -2.019885e-001  0.000000e+000
    outer loop
      vertex -1.315231e+001  3.345346e+001  1.030000e+001
      vertex -1.315231e+001  3.345346e+001  0.000000e+000
      vertex -7.032409e+000  3.779735e+000  1.030000e+001
    endloop
  endfacet
  facet normal -9.793879e-001 -2.019885e-001  -0.000000e+000
    outer loop
      vertex -7.032409e+000  3.779735e+000  1.030000e+001
      vertex -1.315231e+001  3.345346e+001  0.000000e+000
      vertex -7.032409e+000  3.779735e+000  0.000000e+000
    endloop
  endfacet
  facet normal  7.390821e-001 -6.736155e-001  0.000000e+000
    outer loop
      vertex -1.906171e+001  3.612747e+001  0.000000e+000
      vertex -2.073060e+001  3.429638e+001  1.030000e+001
      vertex -2.073060e+001  3.429638e+001  0.000000e+000
    endloop
  endfacet
  facet normal  9.938711e-001 -1.105451e-001  0.000000e+000
    outer loop
      vertex -2.073060e+001  3.429638e+001  0.000000e+000
      vertex -2.073060e+001  3.429638e+001  1.030000e+001
      vertex -2.100448e+001  3.183404e+001  1.030000e+001
    endloop
  endfacet
  facet normal  9.938711e-001 -1.105451e-001  0.000000e+000
    outer loop
      vertex -2.073060e+001  3.429638e+001  0.000000e+000
      vertex -2.100448e+001  3.183404e+001  1.030000e+001
      vertex -2.100448e+001  3.183404e+001  0.000000e+000
    endloop
  endfacet
  facet normal  7.390821e-001 -6.736155e-001  0.000000e+000
    outer loop
      vertex -2.073060e+001  3.429638e+001  1.030000e+001
      vertex -1.906171e+001  3.612747e+001  0.000000e+000
      vertex -1.906171e+001  3.612747e+001  1.030000e+001
    endloop
  endfacet
  facet normal  2.019884e-001 -9.793879e-001  0.000000e+000
    outer loop
      vertex -1.906171e+001  3.612747e+001  1.030000e+001
      vertex -1.906171e+001  3.612747e+001  0.000000e+000
      vertex -1.663525e+001  3.662790e+001  0.000000e+000
    endloop
  endfacet
  facet normal  2.019884e-001 -9.793879e-001  0.000000e+000
    outer loop
      vertex -1.906171e+001  3.612747e+001  1.030000e+001
      vertex -1.663525e+001  3.662790e+001  0.000000e+000
      vertex -1.663525e+001  3.662790e+001  1.030000e+001
    endloop
  endfacet
  facet normal -4.122577e-001 -9.110673e-001  -0.000000e+000
    outer loop
      vertex -1.663525e+001  3.662790e+001  1.030000e+001
      vertex -1.663525e+001  3.662790e+001  0.000000e+000
      vertex -1.437806e+001  3.560652e+001  0.000000e+000
    endloop
  endfacet
  facet normal -4.122577e-001 -9.110673e-001  0.000000e+000
    outer loop
      vertex -1.663525e+001  3.662790e+001  1.030000e+001
      vertex -1.437806e+001  3.560652e+001  0.000000e+000
      vertex -1.437806e+001  3.560652e+001  1.030000e+001
    endloop
  endfacet
  facet normal -8.690355e-001 -4.947497e-001  -0.000000e+000
    outer loop
      vertex -1.437806e+001  3.560652e+001  1.030000e+001
      vertex -1.437806e+001  3.560652e+001  0.000000e+000
      vertex -1.315231e+001  3.345346e+001  0.000000e+000
    endloop
  endfacet
  facet normal -8.690355e-001 -4.947497e-001  0.000000e+000
    outer loop
      vertex -1.437806e+001  3.560652e+001  1.030000e+001
      vertex -1.315231e+001  3.345346e+001  0.000000e+000
      vertex -1.315231e+001  3.345346e+001  1.030000e+001
    endloop
  endfacet
  facet normal  9.793879e-001  2.019885e-001  -0.000000e+000
    outer loop
      vertex -1.501934e+001  2.813689e+000  1.030000e+001
      vertex -1.501934e+001  2.813689e+000  0.000000e+000
      vertex -2.100448e+001  3.183404e+001  1.030000e+001
    endloop
  endfacet
  facet normal  9.793879e-001  2.019885e-001  0.000000e+000
    outer loop
      vertex -2.100448e+001  3.183404e+001  1.030000e+001
      vertex -1.501934e+001  2.813689e+000  0.000000e+000
      vertex -2.100448e+001  3.183404e+001  0.000000e+000
    endloop
  endfacet
  facet normal  9.762433e-001 -2.166770e-001  0.000000e+000
    outer loop
      vertex -1.802872e+001  2.934974e-001  0.000000e+000
      vertex -1.846432e+001 -1.669136e+000  1.030000e+001
      vertex -1.846432e+001 -1.669136e+000  0.000000e+000
    endloop
  endfacet
  facet normal  9.762433e-001 -2.166770e-001  0.000000e+000
    outer loop
      vertex -1.846432e+001 -1.669136e+000  1.030000e+001
      vertex -1.802872e+001  2.934974e-001  0.000000e+000
      vertex -1.802872e+001  2.934974e-001  1.030000e+001
    endloop
  endfacet
  facet normal  7.929100e-001 -6.093387e-001  0.000000e+000
    outer loop
      vertex -1.802872e+001  2.934974e-001  1.030000e+001
      vertex -1.802872e+001  2.934974e-001  0.000000e+000
      vertex -1.680371e+001  1.887558e+000  0.000000e+000
    endloop
  endfacet
  facet normal  7.929100e-001 -6.093387e-001  0.000000e+000
    outer loop
      vertex -1.802872e+001  2.934974e-001  1.030000e+001
      vertex -1.680371e+001  1.887558e+000  0.000000e+000
      vertex -1.680371e+001  1.887558e+000  1.030000e+001
    endloop
  endfacet
  facet normal  4.606714e-001 -8.875707e-001  0.000000e+000
    outer loop
      vertex -1.680371e+001  1.887558e+000  1.030000e+001
      vertex -1.680371e+001  1.887558e+000  0.000000e+000
      vertex -1.501934e+001  2.813689e+000  0.000000e+000
    endloop
  endfacet
  facet normal  4.606714e-001 -8.875707e-001  0.000000e+000
    outer loop
      vertex -1.680371e+001  1.887558e+000  1.030000e+001
      vertex -1.501934e+001  2.813689e+000  0.000000e+000
      vertex -1.501934e+001  2.813689e+000  1.030000e+001
    endloop
  endfacet
  facet normal  1.000000e+000  0.000000e+000  0.000000e+000
    outer loop
      vertex -1.846432e+001 -4.957497e+000  1.030000e+001
      vertex -1.846432e+001 -4.957497e+000  0.000000e+000
      vertex -1.846432e+001 -1.669136e+000  1.030000e+001
    endloop
  endfacet
  facet normal  1.000000e+000  0.000000e+000  0.000000e+000
    outer loop
      vertex -1.846432e+001 -1.669136e+000  1.030000e+001
      vertex -1.846432e+001 -4.957497e+000  0.000000e+000
      vertex -1.846432e+001 -1.669136e+000  0.000000e+000
    endloop
  endfacet
  facet normal -4.863745e-001 -8.737505e-001  0.000000e+000
    outer loop
      vertex -3.295068e+001  3.106358e+000  1.030000e+001
      vertex -3.295068e+001  3.106358e+000  0.000000e+000
      vertex -1.846432e+001 -4.957497e+000  1.030000e+001
    endloop
  endfacet
  facet normal -4.863745e-001 -8.737505e-001  -0.000000e+000
    outer loop
      vertex -1.846432e+001 -4.957497e+000  1.030000e+001
      vertex -3.295068e+001  3.106358e+000  0.000000e+000
      vertex -1.846432e+001 -4.957497e+000  0.000000e+000
    endloop
  endfacet
  facet normal  9.927627e-001  1.200928e-001  0.000000e+000
    outer loop
      vertex -3.815949e+001  6.887925e-001  0.000000e+000
      vertex -3.789608e+001 -1.488773e+000  1.030000e+001
      vertex -3.789608e+001 -1.488773e+000  0.000000e+000
    endloop
  endfacet
  facet normal  7.325740e-001  6.806874e-001  -0.000000e+000
    outer loop
      vertex -3.789608e+001 -1.488773e+000  0.000000e+000
      vertex -3.789608e+001 -1.488773e+000  1.030000e+001
      vertex -3.640303e+001 -3.095629e+000  1.030000e+001
    endloop
  endfacet
  facet normal  7.325740e-001  6.806874e-001  0.000000e+000
    outer loop
      vertex -3.789608e+001 -1.488773e+000  0.000000e+000
      vertex -3.640303e+001 -3.095629e+000  1.030000e+001
      vertex -3.640303e+001 -3.095629e+000  0.000000e+000
    endloop
  endfacet
  facet normal  9.927627e-001  1.200928e-001  -0.000000e+000
    outer loop
      vertex -3.789608e+001 -1.488773e+000  1.030000e+001
      vertex -3.815949e+001  6.887925e-001  0.000000e+000
      vertex -3.815949e+001  6.887925e-001  1.030000e+001
    endloop
  endfacet
  facet normal  8.737504e-001 -4.863745e-001  0.000000e+000
    outer loop
      vertex -3.815949e+001  6.887925e-001  1.030000e+001
      vertex -3.815949e+001  6.887925e-001  0.000000e+000
      vertex -3.709266e+001  2.605312e+000  0.000000e+000
    endloop
  endfacet
  facet normal  8.737504e-001 -4.863745e-001  0.000000e+000
    outer loop
      vertex -3.815949e+001  6.887925e-001  1.030000e+001
      vertex -3.709266e+001  2.605312e+000  0.000000e+000
      vertex -3.709266e+001  2.605312e+000  1.030000e+001
    endloop
  endfacet
  facet normal  4.209956e-001 -9.070627e-001  0.000000e+000
    outer loop
      vertex -3.709266e+001  2.605312e+000  1.030000e+001
      vertex -3.709266e+001  2.605312e+000  0.000000e+000
      vertex -3.510307e+001  3.528740e+000  0.000000e+000
    endloop
  endfacet
  facet normal  4.209956e-001 -9.070627e-001  0.000000e+000
    outer loop
      vertex -3.709266e+001  2.605312e+000  1.030000e+001
      vertex -3.510307e+001  3.528740e+000  0.000000e+000
      vertex -3.510307e+001  3.528740e+000  1.030000e+001
    endloop
  endfacet
  facet normal -1.925657e-001 -9.812841e-001  -0.000000e+000
    outer loop
      vertex -3.510307e+001  3.528740e+000  1.030000e+001
      vertex -3.510307e+001  3.528740e+000  0.000000e+000
      vertex -3.295068e+001  3.106358e+000  0.000000e+000
    endloop
  endfacet
  facet normal -1.925657e-001 -9.812841e-001  0.000000e+000
    outer loop
      vertex -3.510307e+001  3.528740e+000  1.030000e+001
      vertex -3.295068e+001  3.106358e+000  0.000000e+000
      vertex -3.295068e+001  3.106358e+000  1.030000e+001
    endloop
  endfacet
  facet normal  4.863744e-001  8.737505e-001  -0.000000e+000
    outer loop
      vertex -2.019049e+001 -1.212036e+001  1.030000e+001
      vertex -2.019049e+001 -1.212036e+001  0.000000e+000
      vertex -3.640303e+001 -3.095629e+000  1.030000e+001
    endloop
  endfacet
  facet normal  4.863744e-001  8.737505e-001  0.000000e+000
    outer loop
      vertex -3.640303e+001 -3.095629e+000  1.030000e+001
      vertex -2.019049e+001 -1.212036e+001  0.000000e+000
      vertex -3.640303e+001 -3.095629e+000  0.000000e+000
    endloop
  endfacet
  facet normal  2.512468e-001  9.679230e-001  0.000000e+000
    outer loop
      vertex -2.019049e+001 -1.212036e+001  1.030000e+001
      vertex -1.846432e+001 -1.256843e+001  1.030000e+001
      vertex -2.019049e+001 -1.212036e+001  0.000000e+000
    endloop
  endfacet
  facet normal  2.512468e-001  9.679230e-001  0.000000e+000
    outer loop
      vertex -2.019049e+001 -1.212036e+001  0.000000e+000
      vertex -1.846432e+001 -1.256843e+001  1.030000e+001
      vertex -1.846432e+001 -1.256843e+001  0.000000e+000
    endloop
  endfacet
  facet normal  1.000000e+000  0.000000e+000  0.000000e+000
    outer loop
      vertex -1.846432e+001 -2.527626e+001  1.030000e+001
      vertex -1.846432e+001 -2.527626e+001  0.000000e+000
      vertex -1.846432e+001 -1.256843e+001  1.030000e+001
    endloop
  endfacet
  facet normal  1.000000e+000  0.000000e+000  0.000000e+000
    outer loop
      vertex -1.846432e+001 -1.256843e+001  1.030000e+001
      vertex -1.846432e+001 -2.527626e+001  0.000000e+000
      vertex -1.846432e+001 -1.256843e+001  0.000000e+000
    endloop
  endfacet
  facet normal  2.588187e-001  9.659259e-001  0.000000e+000
    outer loop
      vertex -1.565245e+001 -3.014656e+001  0.000000e+000
      vertex -1.284058e+001 -3.090000e+001  1.030000e+001
      vertex -1.284058e+001 -3.090000e+001  0.000000e+000
    endloop
  endfacet
  facet normal  2.588187e-001  9.659259e-001  -0.000000e+000
    outer loop
      vertex -1.284058e+001 -3.090000e+001  1.030000e+001
      vertex -1.565245e+001 -3.014656e+001  0.000000e+000
      vertex -1.565245e+001 -3.014656e+001  1.030000e+001
    endloop
  endfacet
  facet normal  7.071070e-001  7.071066e-001  0.000000e+000
    outer loop
      vertex -1.565245e+001 -3.014656e+001  1.030000e+001
      vertex -1.565245e+001 -3.014656e+001  0.000000e+000
      vertex -1.771088e+001 -2.808813e+001  0.000000e+000
    endloop
  endfacet
  facet normal  7.071070e-001  7.071066e-001  -0.000000e+000
    outer loop
      vertex -1.565245e+001 -3.014656e+001  1.030000e+001
      vertex -1.771088e+001 -2.808813e+001  0.000000e+000
      vertex -1.771088e+001 -2.808813e+001  1.030000e+001
    endloop
  endfacet
  facet normal  9.659258e-001  2.588194e-001  0.000000e+000
    outer loop
      vertex -1.771088e+001 -2.808813e+001  1.030000e+001
      vertex -1.771088e+001 -2.808813e+001  0.000000e+000
      vertex -1.846432e+001 -2.527626e+001  0.000000e+000
    endloop
  endfacet
  facet normal  9.659258e-001  2.588194e-001  -0.000000e+000
    outer loop
      vertex -1.771088e+001 -2.808813e+001  1.030000e+001
      vertex -1.846432e+001 -2.527626e+001  0.000000e+000
      vertex -1.846432e+001 -2.527626e+001  1.030000e+001
    endloop
  endfacet
  facet normal  0.000000e+000  1.000000e+000  -0.000000e+000
    outer loop
      vertex  1.502212e+001 -3.090000e+001  1.030000e+001
      vertex  1.502212e+001 -3.090000e+001  0.000000e+000
      vertex -1.284058e+001 -3.090000e+001  1.030000e+001
    endloop
  endfacet
  facet normal  0.000000e+000  1.000000e+000  0.000000e+000
    outer loop
      vertex -1.284058e+001 -3.090000e+001  1.030000e+001
      vertex  1.502212e+001 -3.090000e+001  0.000000e+000
      vertex -1.284058e+001 -3.090000e+001  0.000000e+000
    endloop
  endfacet
  facet normal -9.659257e-001  2.588196e-001  0.000000e+000
    outer loop
      vertex  1.800315e+001 -2.917890e+001  0.000000e+000
      vertex  1.846432e+001 -2.745780e+001  1.030000e+001
      vertex  1.846432e+001 -2.745780e+001  0.000000e+000
    endloop
  endfacet
  facet normal -9.659257e-001  2.588196e-001  0.000000e+000
    outer loop
      vertex  1.846432e+001 -2.745780e+001  1.030000e+001
      vertex  1.800315e+001 -2.917890e+001  0.000000e+000
      vertex  1.800315e+001 -2.917890e+001  1.030000e+001
    endloop
  endfacet
  facet normal -7.071074e-001  7.071062e-001  0.000000e+000
    outer loop
      vertex  1.800315e+001 -2.917890e+001  1.030000e+001
      vertex  1.800315e+001 -2.917890e+001  0.000000e+000
      vertex  1.674322e+001 -3.043883e+001  0.000000e+000
    endloop
  endfacet
  facet normal -7.071074e-001  7.071062e-001  0.000000e+000
    outer loop
      vertex  1.800315e+001 -2.917890e+001  1.030000e+001
      vertex  1.674322e+001 -3.043883e+001  0.000000e+000
      vertex  1.674322e+001 -3.043883e+001  1.030000e+001
    endloop
  endfacet
  facet normal -2.588186e-001  9.659260e-001  0.000000e+000
    outer loop
      vertex  1.674322e+001 -3.043883e+001  1.030000e+001
      vertex  1.674322e+001 -3.043883e+001  0.000000e+000
      vertex  1.502212e+001 -3.090000e+001  0.000000e+000
    endloop
  endfacet
  facet normal -2.588186e-001  9.659260e-001  0.000000e+000
    outer loop
      vertex  1.674322e+001 -3.043883e+001  1.030000e+001
      vertex  1.502212e+001 -3.090000e+001  0.000000e+000
      vertex  1.502212e+001 -3.090000e+001  1.030000e+001
    endloop
  endfacet
  facet normal -1.000000e+000  0.000000e+000  0.000000e+000
    outer loop
      vertex  1.846432e+001  5.364522e-003  1.030000e+001
      vertex  1.846432e+001  5.364522e-003  0.000000e+000
      vertex  1.846432e+001 -2.745780e+001  1.030000e+001
    endloop
  endfacet
  facet normal -1.000000e+000  0.000000e+000  0.000000e+000
    outer loop
      vertex  1.846432e+001 -2.745780e+001  1.030000e+001
      vertex  1.846432e+001  5.364522e-003  0.000000e+000
      vertex  1.846432e+001 -2.745780e+001  0.000000e+000
    endloop
  endfacet
  facet normal  0.000000e+000  0.000000e+000 -1.000000e+000
    outer loop
      vertex -1.565245e+001 -3.014656e+001  1.030000e+001
      vertex -1.771088e+001 -2.808813e+001  1.030000e+001
      vertex -1.284058e+001 -3.090000e+001  1.030000e+001
    endloop
  endfacet
  facet normal  0.000000e+000  0.000000e+000 -1.000000e+000
    outer loop
      vertex -1.846432e+001 -4.957497e+000  1.030000e+001
      vertex -1.846432e+001 -1.256843e+001  1.030000e+001
      vertex -2.019049e+001 -1.212036e+001  1.030000e+001
    endloop
  endfacet
  facet normal  0.000000e+000  0.000000e+000 -1.000000e+000
    outer loop
      vertex -1.846432e+001 -4.957497e+000  1.030000e+001
      vertex -2.019049e+001 -1.212036e+001  1.030000e+001
      vertex -3.640303e+001 -3.095629e+000  1.030000e+001
    endloop
  endfacet
  facet normal  0.000000e+000  0.000000e+000 -1.000000e+000
    outer loop
      vertex -1.846432e+001 -4.957497e+000  1.030000e+001
      vertex -3.640303e+001 -3.095629e+000  1.030000e+001
      vertex -3.789608e+001 -1.488773e+000  1.030000e+001
    endloop
  endfacet
  facet normal  0.000000e+000  0.000000e+000 -1.000000e+000
    outer loop
      vertex -1.846432e+001 -4.957497e+000  1.030000e+001
      vertex -3.789608e+001 -1.488773e+000  1.030000e+001
      vertex -3.815949e+001  6.887925e-001  1.030000e+001
    endloop
  endfacet
  facet normal  0.000000e+000  0.000000e+000 -1.000000e+000
    outer loop
      vertex -1.846432e+001 -4.957497e+000  1.030000e+001
      vertex -3.815949e+001  6.887925e-001  1.030000e+001
      vertex -3.709266e+001  2.605312e+000  1.030000e+001
    endloop
  endfacet
  facet normal  0.000000e+000  0.000000e+000 -1.000000e+000
    outer loop
      vertex -1.846432e+001 -4.957497e+000  1.030000e+001
      vertex -3.709266e+001  2.605312e+000  1.030000e+001
      vertex -3.510307e+001  3.528740e+000  1.030000e+001
    endloop
  endfacet
  facet normal  0.000000e+000  0.000000e+000 -1.000000e+000
    outer loop
      vertex -1.846432e+001 -4.957497e+000  1.030000e+001
      vertex -3.510307e+001  3.528740e+000  1.030000e+001
      vertex -3.295068e+001  3.106358e+000  1.030000e+001
    endloop
  endfacet
  facet normal  -0.000000e+000  0.000000e+000 -1.000000e+000
    outer loop
      vertex  1.440626e-015 -2.630688e+001  1.030000e+001
      vertex  1.846432e+001 -2.745780e+001  1.030000e+001
      vertex  1.800315e+001 -2.917890e+001  1.030000e+001
    endloop
  endfacet
  facet normal  -0.000000e+000  0.000000e+000 -1.000000e+000
    outer loop
      vertex  1.440626e-015 -2.630688e+001  1.030000e+001
      vertex  1.800315e+001 -2.917890e+001  1.030000e+001
      vertex  1.674322e+001 -3.043883e+001  1.030000e+001
    endloop
  endfacet
  facet normal  -0.000000e+000  0.000000e+000 -1.000000e+000
    outer loop
      vertex  1.440626e-015 -2.630688e+001  1.030000e+001
      vertex  1.674322e+001 -3.043883e+001  1.030000e+001
      vertex  1.502212e+001 -3.090000e+001  1.030000e+001
    endloop
  endfacet
  facet normal  0.000000e+000  0.000000e+000 -1.000000e+000
    outer loop
      vertex  1.440626e-015 -2.630688e+001  1.030000e+001
      vertex  1.502212e+001 -3.090000e+001  1.030000e+001
      vertex -1.284058e+001 -3.090000e+001  1.030000e+001
    endloop
  endfacet
  facet normal  0.000000e+000  0.000000e+000 -1.000000e+000
    outer loop
      vertex  1.440626e-015 -2.630688e+001  1.030000e+001
      vertex -1.284058e+001 -3.090000e+001  1.030000e+001
      vertex -1.771088e+001 -2.808813e+001  1.030000e+001
    endloop
  endfacet
  facet normal  0.000000e+000  0.000000e+000 -1.000000e+000
    outer loop
      vertex  1.440626e-015 -2.630688e+001  1.030000e+001
      vertex -1.771088e+001 -2.808813e+001  1.030000e+001
      vertex -1.846432e+001 -2.527626e+001  1.030000e+001
    endloop
  endfacet
  facet normal  0.000000e+000  0.000000e+000 -1.000000e+000
    outer loop
      vertex  1.440626e-015 -2.630688e+001  1.030000e+001
      vertex -1.846432e+001 -2.527626e+001  1.030000e+001
      vertex -1.445982e+000 -2.570793e+001  1.030000e+001
    endloop
  endfacet
  facet normal  0.000000e+000  0.000000e+000 -1.000000e+000
    outer loop
      vertex -3.288536e-016 -2.221702e+001  1.030000e+001
      vertex -1.846432e+001 -1.256843e+001  1.030000e+001
      vertex -1.846432e+001 -4.957497e+000  1.030000e+001
    endloop
  endfacet
  facet normal  0.000000e+000  0.000000e+000 -1.000000e+000
    outer loop
      vertex -3.288536e-016 -2.221702e+001  1.030000e+001
      vertex -1.846432e+001 -4.957497e+000  1.030000e+001
      vertex -1.846432e+001 -1.669136e+000  1.030000e+001
    endloop
  endfacet
  facet normal  0.000000e+000  0.000000e+000 -1.000000e+000
    outer loop
      vertex -3.288536e-016 -2.221702e+001  1.030000e+001
      vertex -1.846432e+001 -1.669136e+000  1.030000e+001
      vertex -1.802872e+001  2.934974e-001  1.030000e+001
    endloop
  endfacet
  facet normal  0.000000e+000  0.000000e+000 -1.000000e+000
    outer loop
      vertex -3.288536e-016 -2.221702e+001  1.030000e+001
      vertex -1.802872e+001  2.934974e-001  1.030000e+001
      vertex -1.680371e+001  1.887558e+000  1.030000e+001
    endloop
  endfacet
  facet normal  0.000000e+000  0.000000e+000 -9.999999e-001
    outer loop
      vertex -3.288536e-016 -2.221702e+001  1.030000e+001
      vertex -1.680371e+001  1.887558e+000  1.030000e+001
      vertex -1.501934e+001  2.813689e+000  1.030000e+001
    endloop
  endfacet
  facet normal  0.000000e+000  0.000000e+000 -9.999999e-001
    outer loop
      vertex -3.288536e-016 -2.221702e+001  1.030000e+001
      vertex -1.501934e+001  2.813689e+000  1.030000e+001
      vertex -2.173416e-001  2.970020e+000  1.030000e+001
    endloop
  endfacet
  facet normal  0.000000e+000  0.000000e+000 -1.000000e+000
    outer loop
      vertex -3.288536e-016 -2.221702e+001  1.030000e+001
      vertex -2.173416e-001  2.970020e+000  1.030000e+001
      vertex  1.159307e+000  3.752392e+001  1.030000e+001
    endloop
  endfacet
  facet normal  0.000000e+000  -0.000000e+000 -1.000000e+000
    outer loop
      vertex -3.288536e-016 -2.221702e+001  1.030000e+001
      vertex  1.159307e+000  3.752392e+001  1.030000e+001
      vertex  2.049214e+000  3.580613e+001  1.030000e+001
    endloop
  endfacet
  facet normal  0.000000e+000  -0.000000e+000 -9.999999e-001
    outer loop
      vertex -3.288536e-016 -2.221702e+001  1.030000e+001
      vertex  2.049214e+000  3.580613e+001  1.030000e+001
      vertex  4.838089e+000  3.185337e+000  1.030000e+001
    endloop
  endfacet
  facet normal  0.000000e+000  -0.000000e+000 -1.000000e+000
    outer loop
      vertex -3.288536e-016 -2.221702e+001  1.030000e+001
      vertex  4.838089e+000  3.185337e+000  1.030000e+001
      vertex  4.847276e+000  2.970020e+000  1.030000e+001
    endloop
  endfacet
  facet normal  0.000000e+000  -0.000000e+000 -1.000000e+000
    outer loop
      vertex -3.288536e-016 -2.221702e+001  1.030000e+001
      vertex  4.847276e+000  2.970020e+000  1.030000e+001
      vertex  1.846432e+001  5.364522e-003  1.030000e+001
    endloop
  endfacet
  facet normal  0.000000e+000  -0.000000e+000 -1.000000e+000
    outer loop
      vertex -3.288536e-016 -2.221702e+001  1.030000e+001
      vertex  1.846432e+001  5.364522e-003  1.030000e+001
      vertex  1.846432e+001 -2.745780e+001  1.030000e+001
    endloop
  endfacet
  facet normal  0.000000e+000  0.000000e+000 -1.000000e+000
    outer loop
      vertex -1.846432e+001 -2.527626e+001  1.030000e+001
      vertex -1.846432e+001 -1.256843e+001  1.030000e+001
      vertex -3.288536e-016 -2.221702e+001  1.030000e+001
    endloop
  endfacet
  facet normal  0.000000e+000  0.000000e+000 -1.000000e+000
    outer loop
      vertex -1.846432e+001 -2.527626e+001  1.030000e+001
      vertex -3.288536e-016 -2.221702e+001  1.030000e+001
      vertex -1.445982e+000 -2.281596e+001  1.030000e+001
    endloop
  endfacet
  facet normal  0.000000e+000  0.000000e+000 -1.000000e+000
    outer loop
      vertex -1.846432e+001 -2.527626e+001  1.030000e+001
      vertex -1.445982e+000 -2.281596e+001  1.030000e+001
      vertex -2.044928e+000 -2.426195e+001  1.030000e+001
    endloop
  endfacet
  facet normal  0.000000e+000  -0.000000e+000 -1.000000e+000
    outer loop
      vertex -1.846432e+001 -2.527626e+001  1.030000e+001
      vertex -2.044928e+000 -2.426195e+001  1.030000e+001
      vertex -1.445982e+000 -2.570793e+001  1.030000e+001
    endloop
  endfacet
  facet normal  -0.000000e+000  0.000000e+000 -1.000000e+000
    outer loop
      vertex  2.138728e+001  2.474543e+000  1.030000e+001
      vertex  2.037747e+001  7.052794e-001  1.030000e+001
      vertex  1.846432e+001  5.364522e-003  1.030000e+001
    endloop
  endfacet
  facet normal  0.000000e+000  0.000000e+000 -1.000000e+000
    outer loop
      vertex  2.138728e+001  2.474543e+000  1.030000e+001
      vertex  1.846432e+001  5.364522e-003  1.030000e+001
      vertex  4.847276e+000  2.970020e+000  1.030000e+001
    endloop
  endfacet
  facet normal  0.000000e+000  0.000000e+000 -1.000000e+000
    outer loop
      vertex  2.138728e+001  2.474543e+000  1.030000e+001
      vertex  4.847276e+000  2.970020e+000  1.030000e+001
      vertex  6.594189e+000  2.970020e+000  1.030000e+001
    endloop
  endfacet
  facet normal  0.000000e+000  0.000000e+000 -1.000000e+000
    outer loop
      vertex  2.138728e+001  2.474543e+000  1.030000e+001
      vertex  6.594189e+000  2.970020e+000  1.030000e+001
      vertex  1.234789e+001  2.970020e+000  1.030000e+001
    endloop
  endfacet
  facet normal  0.000000e+000  0.000000e+000 -1.000000e+000
    outer loop
      vertex  2.138728e+001  2.474543e+000  1.030000e+001
      vertex  1.234789e+001  2.970020e+000  1.030000e+001
      vertex  1.549967e+001  2.970020e+000  1.030000e+001
    endloop
  endfacet
  facet normal  0.000000e+000  0.000000e+000 -1.000000e+000
    outer loop
      vertex  2.138728e+001  2.474543e+000  1.030000e+001
      vertex  1.549967e+001  2.970020e+000  1.030000e+001
      vertex  1.554136e+001  3.465497e+000  1.030000e+001
    endloop
  endfacet
  facet normal  0.000000e+000  0.000000e+000 -1.000000e+000
    outer loop
      vertex  2.138728e+001  2.474543e+000  1.030000e+001
      vertex  1.554136e+001  3.465497e+000  1.030000e+001
      vertex  2.468984e+001  2.195730e+001  1.030000e+001
    endloop
  endfacet
  facet normal  0.000000e+000  0.000000e+000 -9.999999e-001
    outer loop
      vertex  1.846432e+001 -2.745780e+001  1.030000e+001
      vertex  1.440626e-015 -2.630688e+001  1.030000e+001
      vertex  1.445982e+000 -2.570793e+001  1.030000e+001
    endloop
  endfacet
  facet normal  0.000000e+000  0.000000e+000 -1.000000e+000
    outer loop
      vertex  1.846432e+001 -2.745780e+001  1.030000e+001
      vertex  1.445982e+000 -2.570793e+001  1.030000e+001
      vertex  2.044928e+000 -2.426195e+001  1.030000e+001
    endloop
  endfacet
  facet normal  0.000000e+000  0.000000e+000 -1.000000e+000
    outer loop
      vertex  1.846432e+001 -2.745780e+001  1.030000e+001
      vertex  2.044928e+000 -2.426195e+001  1.030000e+001
      vertex  1.445982e+000 -2.281596e+001  1.030000e+001
    endloop
  endfacet
  facet normal  0.000000e+000  0.000000e+000 -9.999999e-001
    outer loop
      vertex  1.846432e+001 -2.745780e+001  1.030000e+001
      vertex  1.445982e+000 -2.281596e+001  1.030000e+001
      vertex -3.288536e-016 -2.221702e+001  1.030000e+001
    endloop
  endfacet
  facet normal  0.000000e+000  -0.000000e+000 -1.000000e+000
    outer loop
      vertex -2.987808e+000  3.537550e+001  1.030000e+001
      vertex -2.402406e+000  3.721942e+001  1.030000e+001
      vertex -2.173416e-001  2.970020e+000  1.030000e+001
    endloop
  endfacet
  facet normal  0.000000e+000  0.000000e+000 -1.000000e+000
    outer loop
      vertex -2.173416e-001  2.970020e+000  1.030000e+001
      vertex -2.402406e+000  3.721942e+001  1.030000e+001
      vertex -6.846142e-001  3.810933e+001  1.030000e+001
    endloop
  endfacet
  facet normal  0.000000e+000  0.000000e+000 -1.000000e+000
    outer loop
      vertex -2.173416e-001  2.970020e+000  1.030000e+001
      vertex -6.846142e-001  3.810933e+001  1.030000e+001
      vertex  1.159307e+000  3.752392e+001  1.030000e+001
    endloop
  endfacet
  facet normal  0.000000e+000  0.000000e+000 -9.999999e-001
    outer loop
      vertex -1.315231e+001  3.345346e+001  1.030000e+001
      vertex -2.073060e+001  3.429638e+001  1.030000e+001
      vertex -1.437806e+001  3.560652e+001  1.030000e+001
    endloop
  endfacet
  facet normal  -0.000000e+000  0.000000e+000 -1.000000e+000
    outer loop
      vertex -1.437806e+001  3.560652e+001  1.030000e+001
      vertex -2.073060e+001  3.429638e+001  1.030000e+001
      vertex -1.906171e+001  3.612747e+001  1.030000e+001
    endloop
  endfacet
  facet normal  0.000000e+000  0.000000e+000 -1.000000e+000
    outer loop
      vertex -1.437806e+001  3.560652e+001  1.030000e+001
      vertex -1.906171e+001  3.612747e+001  1.030000e+001
      vertex -1.663525e+001  3.662790e+001  1.030000e+001
    endloop
  endfacet
  facet normal  0.000000e+000  0.000000e+000 -1.000000e+000
    outer loop
      vertex -2.173416e-001  2.970020e+000  1.030000e+001
      vertex -1.501934e+001  2.813689e+000  1.030000e+001
      vertex -6.949780e+000  2.970020e+000  1.030000e+001
    endloop
  endfacet
  facet normal  -0.000000e+000  0.000000e+000 -1.000000e+000
    outer loop
      vertex -6.949780e+000  2.970020e+000  1.030000e+001
      vertex -1.501934e+001  2.813689e+000  1.030000e+001
      vertex -2.100448e+001  3.183404e+001  1.030000e+001
    endloop
  endfacet
  facet normal  0.000000e+000  0.000000e+000 -1.000000e+000
    outer loop
      vertex -6.949780e+000  2.970020e+000  1.030000e+001
      vertex -2.100448e+001  3.183404e+001  1.030000e+001
      vertex -7.032409e+000  3.779735e+000  1.030000e+001
    endloop
  endfacet
  facet normal  0.000000e+000  0.000000e+000 -1.000000e+000
    outer loop
      vertex -7.032409e+000  3.779735e+000  1.030000e+001
      vertex -2.100448e+001  3.183404e+001  1.030000e+001
      vertex -2.073060e+001  3.429638e+001  1.030000e+001
    endloop
  endfacet
  facet normal  0.000000e+000  0.000000e+000 -1.000000e+000
    outer loop
      vertex -7.032409e+000  3.779735e+000  1.030000e+001
      vertex -2.073060e+001  3.429638e+001  1.030000e+001
      vertex -1.315231e+001  3.345346e+001  1.030000e+001
    endloop
  endfacet
  facet normal  0.000000e+000  -0.000000e+000 -1.000000e+000
    outer loop
      vertex  1.884393e+001  2.294825e+001  1.030000e+001
      vertex  1.969339e+001  2.457169e+001  1.030000e+001
      vertex  2.442284e+001  2.377000e+001  1.030000e+001
    endloop
  endfacet
  facet normal  0.000000e+000  0.000000e+000 -1.000000e+000
    outer loop
      vertex  2.442284e+001  2.377000e+001  1.030000e+001
      vertex  1.969339e+001  2.457169e+001  1.030000e+001
      vertex  2.133487e+001  2.538578e+001  1.030000e+001
    endloop
  endfacet
  facet normal  0.000000e+000  0.000000e+000 -9.999999e-001
    outer loop
      vertex  2.442284e+001  2.377000e+001  1.030000e+001
      vertex  2.133487e+001  2.538578e+001  1.030000e+001
      vertex  2.314135e+001  2.507956e+001  1.030000e+001
    endloop
  endfacet
  facet normal  0.000000e+000  0.000000e+000 -1.000000e+000
    outer loop
      vertex  1.884393e+001  2.294825e+001  1.030000e+001
      vertex  2.442284e+001  2.377000e+001  1.030000e+001
      vertex  1.554136e+001  3.465497e+000  1.030000e+001
    endloop
  endfacet
  facet normal  0.000000e+000  0.000000e+000 -1.000000e+000
    outer loop
      vertex  1.554136e+001  3.465497e+000  1.030000e+001
      vertex  2.442284e+001  2.377000e+001  1.030000e+001
      vertex  2.468984e+001  2.195730e+001  1.030000e+001
    endloop
  endfacet
  facet normal  0.000000e+000  0.000000e+000 -1.000000e+000
    outer loop
      vertex  1.245966e+001  2.784800e+001  1.030000e+001
      vertex  7.053187e+000  2.960467e+001  1.030000e+001
      vertex  1.188889e+001  2.960467e+001  1.030000e+001
    endloop
  endfacet
  facet normal  0.000000e+000  0.000000e+000 -1.000000e+000
    outer loop
      vertex  1.188889e+001  2.960467e+001  1.030000e+001
      vertex  7.053187e+000  2.960467e+001  1.030000e+001
      vertex  8.547501e+000  3.069035e+001  1.030000e+001
    endloop
  endfacet
  facet normal  0.000000e+000  0.000000e+000 -1.000000e+000
    outer loop
      vertex  1.188889e+001  2.960467e+001  1.030000e+001
      vertex  8.547501e+000  3.069035e+001  1.030000e+001
      vertex  1.039457e+001  3.069035e+001  1.030000e+001
    endloop
  endfacet
  facet normal  0.000000e+000  0.000000e+000 -1.000000e+000
    outer loop
      vertex  7.053187e+000  2.960467e+001  1.030000e+001
      vertex  1.245966e+001  2.784800e+001  1.030000e+001
      vertex  6.482410e+000  2.784800e+001  1.030000e+001
    endloop
  endfacet
  facet normal  0.000000e+000  0.000000e+000 -1.000000e+000
    outer loop
      vertex  6.482410e+000  2.784800e+001  1.030000e+001
      vertex  1.245966e+001  2.784800e+001  1.030000e+001
      vertex  1.245966e+001  3.779735e+000  1.030000e+001
    endloop
  endfacet
  facet normal  0.000000e+000  0.000000e+000 -1.000000e+000
    outer loop
      vertex  6.482410e+000  2.784800e+001  1.030000e+001
      vertex  1.245966e+001  3.779735e+000  1.030000e+001
      vertex  6.482410e+000  3.779735e+000  1.030000e+001
    endloop
  endfacet
  facet normal  0.000000e+000  0.000000e+000 -1.000000e+000
    outer loop
      vertex  6.482410e+000  3.779735e+000  1.030000e+001
      vertex  1.245966e+001  3.779735e+000  1.030000e+001
      vertex  1.234789e+001  2.970020e+000  1.030000e+001
    endloop
  endfacet
  facet normal  0.000000e+000  0.000000e+000 -1.000000e+000
    outer loop
      vertex  6.482410e+000  3.779735e+000  1.030000e+001
      vertex  1.234789e+001  2.970020e+000  1.030000e+001
      vertex  6.594189e+000  2.970020e+000  1.030000e+001
    endloop
  endfacet
  facet normal  1.000000e+000  -0.000000e+000  0.000000e+000
    outer loop
      vertex  5.000000e+001  5.000000e+001  5.000000e+001
      vertex  5.000000e+001 -5.000000e+001  5.000000e+001
      vertex  5.000000e+001  5.000000e+001  0.000000e+000
    endloop
  endfacet
  facet normal  1.000000e+000  0.000000e+000  0.000000e+000
    outer loop
      vertex  5.000000e+001  5.000000e+001  0.000000e+000
      vertex  5.000000e+001 -5.000000e+001  5.000000e+001
      vertex  5.000000e+001 -5.000000e+001  0.000000e+000
    endloop
  endfacet
  facet normal  0.000000e+000 -1.000000e+000  0.000000e+000
    outer loop
      vertex  5.000000e+001 -5.000000e+001  5.000000e+001
      vertex -5.000000e+001 -5.000000e+001  5.000000e+001
      vertex  5.000000e+001 -5.000000e+001  0.000000e+000
    endloop
  endfacet
  facet normal  0.000000e+000 -1.000000e+000  0.000000e+000
    outer loop
      vertex  5.000000e+001 -5.000000e+001  0.000000e+000
      vertex -5.000000e+001 -5.000000e+001  5.000000e+001
      vertex -5.000000e+001 -5.000000e+001  0.000000e+000
    endloop
  endfacet
  facet normal -1.000000e+000  -0.000000e+000  0.000000e+000
    outer loop
      vertex -5.000000e+001 -5.000000e+001  5.000000e+001
      vertex -5.000000e+001  5.000000e+001  5.000000e+001
      vertex -5.000000e+001 -5.000000e+001  0.000000e+000
    endloop
  endfacet
  facet normal -1.000000e+000  0.000000e+000  0.000000e+000
    outer loop
      vertex -5.000000e+001 -5.000000e+001  0.000000e+000
      vertex -5.000000e+001  5.000000e+001  5.000000e+001
      vertex -5.000000e+001  5.000000e+001  0.000000e+000
    endloop
  endfacet
  facet normal  0.000000e+000  1.000000e+000  0.000000e+000
    outer loop
      vertex -5.000000e+001  5.000000e+001  5.000000e+001
      vertex  5.000000e+001  5.000000e+001  5.000000e+001
      vertex -5.000000e+001  5.000000e+001  0.000000e+000
    endloop
  endfacet
  facet normal  0.000000e+000  1.000000e+000  0.000000e+000
    outer loop
      vertex -5.000000e+001  5.000000e+001  0.000000e+000
      vertex  5.000000e+001  5.000000e+001  5.000000e+001
      vertex  5.000000e+001  5.000000e+001  0.000000e+000
    endloop
  endfacet
endsolid CATIA STL
