solid CATIA STL
  facet normal -1.000000e+000  0.000000e+000  0.000000e+000
    outer loop
      vertex  0.000000e+000  1.761092e+001  2.870423e+001
      vertex  0.000000e+000 -1.580578e+001  2.939879e+001
      vertex  0.000000e+000  1.696127e+001  3.070364e+001
    endloop
  endfacet
  facet normal -1.000000e+000  0.000000e+000  0.000000e+000
    outer loop
      vertex  0.000000e+000 -1.580578e+001  2.939879e+001
      vertex  0.000000e+000  1.761092e+001  3.270306e+001
      vertex  0.000000e+000  1.696127e+001  3.070364e+001
    endloop
  endfacet
  facet normal -1.000000e+000  0.000000e+000  0.000000e+000
    outer loop
      vertex  0.000000e+000 -1.154198e+001  1.234922e+001
      vertex  0.000000e+000 -1.432477e+001  1.601235e+001
      vertex  0.000000e+000 -7.883668e+000  9.560104e+000
    endloop
  endfacet
  facet normal -1.000000e+000  0.000000e+000  0.000000e+000
    outer loop
      vertex  0.000000e+000 -4.349073e+000  4.444225e+000
      vertex  0.000000e+000 -7.883668e+000  9.560104e+000
      vertex  0.000000e+000  3.552714e-015 -3.552714e-015
    endloop
  endfacet
  facet normal -1.000000e+000  0.000000e+000  -0.000000e+000
    outer loop
      vertex  0.000000e+000 -1.653665e+001  2.485695e+001
      vertex  0.000000e+000 -1.580578e+001  2.939879e+001
      vertex  0.000000e+000  1.761092e+001  2.870423e+001
    endloop
  endfacet
  facet normal -1.000000e+000  0.000000e+000  -0.000000e+000
    outer loop
      vertex  0.000000e+000 -1.653665e+001  2.485695e+001
      vertex  0.000000e+000  1.761092e+001  2.870423e+001
      vertex  0.000000e+000  1.931172e+001  2.746852e+001
    endloop
  endfacet
  facet normal -1.000000e+000  0.000000e+000  0.000000e+000
    outer loop
      vertex  0.000000e+000 -1.653665e+001  2.485695e+001
      vertex  0.000000e+000  1.931172e+001  2.746852e+001
      vertex  0.000000e+000  3.552714e-015 -3.552714e-015
    endloop
  endfacet
  facet normal -1.000000e+000  0.000000e+000  0.000000e+000
    outer loop
      vertex  0.000000e+000 -1.653665e+001  2.485695e+001
      vertex  0.000000e+000  3.552714e-015 -3.552714e-015
      vertex  0.000000e+000 -7.883668e+000  9.560104e+000
    endloop
  endfacet
  facet normal -1.000000e+000  0.000000e+000  0.000000e+000
    outer loop
      vertex  0.000000e+000 -1.653665e+001  2.485695e+001
      vertex  0.000000e+000 -7.883668e+000  9.560104e+000
      vertex  0.000000e+000 -1.432477e+001  1.601235e+001
    endloop
  endfacet
  facet normal -1.000000e+000  0.000000e+000  0.000000e+000
    outer loop
      vertex  0.000000e+000 -1.653665e+001  2.485695e+001
      vertex  0.000000e+000 -1.432477e+001  1.601235e+001
      vertex  0.000000e+000 -1.603078e+001  2.028458e+001
    endloop
  endfacet
  facet normal -1.000000e+000  0.000000e+000  0.000000e+000
    outer loop
      vertex  0.000000e+000  2.737336e+001  2.507797e+001
      vertex  0.000000e+000  2.433926e+001  2.371687e+001
      vertex  0.000000e+000  2.141403e+001  2.746852e+001
    endloop
  endfacet
  facet normal -1.000000e+000  0.000000e+000  -0.000000e+000
    outer loop
      vertex  0.000000e+000  2.141403e+001  2.746852e+001
      vertex  0.000000e+000  2.433926e+001  2.371687e+001
      vertex  0.000000e+000  3.552714e-015 -3.552714e-015
    endloop
  endfacet
  facet normal -1.000000e+000  0.000000e+000  0.000000e+000
    outer loop
      vertex  0.000000e+000  2.141403e+001  2.746852e+001
      vertex  0.000000e+000  3.552714e-015 -3.552714e-015
      vertex  0.000000e+000  1.931172e+001  2.746852e+001
    endloop
  endfacet
  facet normal -1.000000e+000  0.000000e+000  0.000000e+000
    outer loop
      vertex  0.000000e+000  2.672256e+001  3.916695e+001
      vertex  0.000000e+000  2.141403e+001  3.393876e+001
      vertex  0.000000e+000  2.357591e+001  4.024256e+001
    endloop
  endfacet
  facet normal -1.000000e+000  0.000000e+000  0.000000e+000
    outer loop
      vertex  0.000000e+000  2.357591e+001  4.024256e+001
      vertex  0.000000e+000  2.141403e+001  3.393876e+001
      vertex  0.000000e+000  1.931172e+001  3.393876e+001
    endloop
  endfacet
  facet normal -1.000000e+000  0.000000e+000  0.000000e+000
    outer loop
      vertex  0.000000e+000  2.357591e+001  4.024256e+001
      vertex  0.000000e+000  1.931172e+001  3.393876e+001
      vertex  0.000000e+000  2.025843e+001  4.001313e+001
    endloop
  endfacet
  facet normal -1.000000e+000  0.000000e+000  0.000000e+000
    outer loop
      vertex  0.000000e+000  2.025843e+001  4.001313e+001
      vertex  0.000000e+000  1.931172e+001  3.393876e+001
      vertex  0.000000e+000 -1.093088e+001  3.710299e+001
    endloop
  endfacet
  facet normal -1.000000e+000  0.000000e+000  0.000000e+000
    outer loop
      vertex  0.000000e+000  2.025843e+001  4.001313e+001
      vertex  0.000000e+000 -1.093088e+001  3.710299e+001
      vertex  0.000000e+000 -1.093088e+001  4.001313e+001
    endloop
  endfacet
  facet normal -1.000000e+000  0.000000e+000  0.000000e+000
    outer loop
      vertex  0.000000e+000  2.376448e+001  3.070364e+001
      vertex  0.000000e+000  2.311483e+001  3.270306e+001
      vertex  0.000000e+000  3.078909e+001  3.063079e+001
    endloop
  endfacet
  facet normal -1.000000e+000  0.000000e+000  0.000000e+000
    outer loop
      vertex  0.000000e+000  3.078909e+001  3.063079e+001
      vertex  0.000000e+000  2.311483e+001  3.270306e+001
      vertex  0.000000e+000  2.141403e+001  3.393876e+001
    endloop
  endfacet
  facet normal -9.999999e-001  0.000000e+000  0.000000e+000
    outer loop
      vertex  0.000000e+000  3.078909e+001  3.063079e+001
      vertex  0.000000e+000  2.141403e+001  3.393876e+001
      vertex  0.000000e+000  3.063564e+001  3.395266e+001
    endloop
  endfacet
  facet normal -1.000000e+000  -0.000000e+000  0.000000e+000
    outer loop
      vertex  0.000000e+000  3.063564e+001  3.395266e+001
      vertex  0.000000e+000  2.141403e+001  3.393876e+001
      vertex  0.000000e+000  2.672256e+001  3.916695e+001
    endloop
  endfacet
  facet normal -1.000000e+000  0.000000e+000  0.000000e+000
    outer loop
      vertex  0.000000e+000  3.063564e+001  3.395266e+001
      vertex  0.000000e+000  2.672256e+001  3.916695e+001
      vertex  0.000000e+000  2.920546e+001  3.695481e+001
    endloop
  endfacet
  facet normal -9.999999e-001  -0.000000e+000  0.000000e+000
    outer loop
      vertex  0.000000e+000 -1.093088e+001  3.710299e+001
      vertex  0.000000e+000  1.931172e+001  3.393876e+001
      vertex  0.000000e+000 -1.389104e+001  3.358163e+001
    endloop
  endfacet
  facet normal -1.000000e+000  0.000000e+000  0.000000e+000
    outer loop
      vertex  0.000000e+000 -1.389104e+001  3.358163e+001
      vertex  0.000000e+000  1.931172e+001  3.393876e+001
      vertex  0.000000e+000  1.761092e+001  3.270306e+001
    endloop
  endfacet
  facet normal -1.000000e+000  -0.000000e+000  0.000000e+000
    outer loop
      vertex  0.000000e+000 -1.389104e+001  3.358163e+001
      vertex  0.000000e+000  1.761092e+001  3.270306e+001
      vertex  0.000000e+000 -1.580578e+001  2.939879e+001
    endloop
  endfacet
  facet normal -1.000000e+000  0.000000e+000  0.000000e+000
    outer loop
      vertex  0.000000e+000  3.078909e+001  3.063079e+001
      vertex  0.000000e+000  2.964175e+001  2.750959e+001
      vertex  0.000000e+000  2.376448e+001  3.070364e+001
    endloop
  endfacet
  facet normal -9.999999e-001  0.000000e+000  -0.000000e+000
    outer loop
      vertex  0.000000e+000  2.376448e+001  3.070364e+001
      vertex  0.000000e+000  2.964175e+001  2.750959e+001
      vertex  0.000000e+000  2.311483e+001  2.870423e+001
    endloop
  endfacet
  facet normal -1.000000e+000  0.000000e+000  0.000000e+000
    outer loop
      vertex  0.000000e+000  2.964175e+001  2.750959e+001
      vertex  0.000000e+000  2.737336e+001  2.507797e+001
      vertex  0.000000e+000  2.311483e+001  2.870423e+001
    endloop
  endfacet
  facet normal -1.000000e+000  0.000000e+000  -0.000000e+000
    outer loop
      vertex  0.000000e+000  2.311483e+001  2.870423e+001
      vertex  0.000000e+000  2.737336e+001  2.507797e+001
      vertex  0.000000e+000  2.141403e+001  2.746852e+001
    endloop
  endfacet
  facet normal  0.000000e+000 -9.510565e-001 -3.090171e-001
    outer loop
      vertex  0.000000e+000  1.696127e+001  3.070364e+001
      vertex -1.000000e+001  1.696127e+001  3.070364e+001
      vertex  0.000000e+000  1.761092e+001  2.870423e+001
    endloop
  endfacet
  facet normal  -0.000000e+000 -9.510565e-001 -3.090171e-001
    outer loop
      vertex  0.000000e+000  1.761092e+001  2.870423e+001
      vertex -1.000000e+001  1.696127e+001  3.070364e+001
      vertex -1.000000e+001  1.761092e+001  2.870423e+001
    endloop
  endfacet
  facet normal  0.000000e+000 -5.877853e-001 -8.090170e-001
    outer loop
      vertex  0.000000e+000  1.761092e+001  2.870423e+001
      vertex -1.000000e+001  1.761092e+001  2.870423e+001
      vertex  0.000000e+000  1.931172e+001  2.746852e+001
    endloop
  endfacet
  facet normal  -0.000000e+000 -5.877853e-001 -8.090170e-001
    outer loop
      vertex  0.000000e+000  1.931172e+001  2.746852e+001
      vertex -1.000000e+001  1.761092e+001  2.870423e+001
      vertex -1.000000e+001  1.931172e+001  2.746852e+001
    endloop
  endfacet
  facet normal  0.000000e+000  0.000000e+000 -1.000000e+000
    outer loop
      vertex  0.000000e+000  1.931172e+001  2.746852e+001
      vertex -1.000000e+001  1.931172e+001  2.746852e+001
      vertex  0.000000e+000  2.141403e+001  2.746852e+001
    endloop
  endfacet
  facet normal  -0.000000e+000  0.000000e+000 -1.000000e+000
    outer loop
      vertex  0.000000e+000  2.141403e+001  2.746852e+001
      vertex -1.000000e+001  1.931172e+001  2.746852e+001
      vertex -1.000000e+001  2.141403e+001  2.746852e+001
    endloop
  endfacet
  facet normal  0.000000e+000  5.877853e-001 -8.090170e-001
    outer loop
      vertex  0.000000e+000  2.141403e+001  2.746852e+001
      vertex -1.000000e+001  2.141403e+001  2.746852e+001
      vertex  0.000000e+000  2.311483e+001  2.870423e+001
    endloop
  endfacet
  facet normal  0.000000e+000  5.877853e-001 -8.090170e-001
    outer loop
      vertex  0.000000e+000  2.311483e+001  2.870423e+001
      vertex -1.000000e+001  2.141403e+001  2.746852e+001
      vertex -1.000000e+001  2.311483e+001  2.870423e+001
    endloop
  endfacet
  facet normal  0.000000e+000  9.510565e-001 -3.090171e-001
    outer loop
      vertex  0.000000e+000  2.311483e+001  2.870423e+001
      vertex -1.000000e+001  2.311483e+001  2.870423e+001
      vertex  0.000000e+000  2.376448e+001  3.070364e+001
    endloop
  endfacet
  facet normal  0.000000e+000  9.510565e-001 -3.090171e-001
    outer loop
      vertex  0.000000e+000  2.376448e+001  3.070364e+001
      vertex -1.000000e+001  2.311483e+001  2.870423e+001
      vertex -1.000000e+001  2.376448e+001  3.070364e+001
    endloop
  endfacet
  facet normal  -0.000000e+000  9.510565e-001  3.090168e-001
    outer loop
      vertex  0.000000e+000  2.376448e+001  3.070364e+001
      vertex -1.000000e+001  2.376448e+001  3.070364e+001
      vertex  0.000000e+000  2.311483e+001  3.270306e+001
    endloop
  endfacet
  facet normal  0.000000e+000  9.510565e-001  3.090168e-001
    outer loop
      vertex  0.000000e+000  2.311483e+001  3.270306e+001
      vertex -1.000000e+001  2.376448e+001  3.070364e+001
      vertex -1.000000e+001  2.311483e+001  3.270306e+001
    endloop
  endfacet
  facet normal  -0.000000e+000  5.877841e-001  8.090178e-001
    outer loop
      vertex  0.000000e+000  2.311483e+001  3.270306e+001
      vertex -1.000000e+001  2.311483e+001  3.270306e+001
      vertex  0.000000e+000  2.141403e+001  3.393876e+001
    endloop
  endfacet
  facet normal  0.000000e+000  5.877841e-001  8.090178e-001
    outer loop
      vertex  0.000000e+000  2.141403e+001  3.393876e+001
      vertex -1.000000e+001  2.311483e+001  3.270306e+001
      vertex -1.000000e+001  2.141403e+001  3.393876e+001
    endloop
  endfacet
  facet normal  -0.000000e+000  0.000000e+000  1.000000e+000
    outer loop
      vertex  0.000000e+000  2.141403e+001  3.393876e+001
      vertex -1.000000e+001  2.141403e+001  3.393876e+001
      vertex  0.000000e+000  1.931172e+001  3.393876e+001
    endloop
  endfacet
  facet normal  0.000000e+000  0.000000e+000  1.000000e+000
    outer loop
      vertex  0.000000e+000  1.931172e+001  3.393876e+001
      vertex -1.000000e+001  2.141403e+001  3.393876e+001
      vertex -1.000000e+001  1.931172e+001  3.393876e+001
    endloop
  endfacet
  facet normal  0.000000e+000 -5.877841e-001  8.090178e-001
    outer loop
      vertex  0.000000e+000  1.931172e+001  3.393876e+001
      vertex -1.000000e+001  1.931172e+001  3.393876e+001
      vertex  0.000000e+000  1.761092e+001  3.270306e+001
    endloop
  endfacet
  facet normal  0.000000e+000 -5.877841e-001  8.090178e-001
    outer loop
      vertex  0.000000e+000  1.761092e+001  3.270306e+001
      vertex -1.000000e+001  1.931172e+001  3.393876e+001
      vertex -1.000000e+001  1.761092e+001  3.270306e+001
    endloop
  endfacet
  facet normal  0.000000e+000 -9.510565e-001  3.090168e-001
    outer loop
      vertex  0.000000e+000  1.761092e+001  3.270306e+001
      vertex -1.000000e+001  1.761092e+001  3.270306e+001
      vertex  0.000000e+000  1.696127e+001  3.070364e+001
    endloop
  endfacet
  facet normal  0.000000e+000 -9.510565e-001  3.090168e-001
    outer loop
      vertex  0.000000e+000  1.696127e+001  3.070364e+001
      vertex -1.000000e+001  1.761092e+001  3.270306e+001
      vertex -1.000000e+001  1.696127e+001  3.070364e+001
    endloop
  endfacet
  facet normal -1.000000e+000  -0.000000e+000  0.000000e+000
    outer loop
      vertex -1.000000e+001  1.931172e+001  3.393876e+001
      vertex -1.000000e+001  2.141403e+001  3.393876e+001
      vertex -1.000000e+001  1.761092e+001  3.270306e+001
    endloop
  endfacet
  facet normal -1.000000e+000  0.000000e+000  0.000000e+000
    outer loop
      vertex -1.000000e+001  1.761092e+001  3.270306e+001
      vertex -1.000000e+001  2.141403e+001  3.393876e+001
      vertex -1.000000e+001  2.311483e+001  3.270306e+001
    endloop
  endfacet
  facet normal -9.999999e-001  -0.000000e+000  0.000000e+000
    outer loop
      vertex -1.000000e+001  1.761092e+001  3.270306e+001
      vertex -1.000000e+001  2.311483e+001  3.270306e+001
      vertex -1.000000e+001  1.696127e+001  3.070364e+001
    endloop
  endfacet
  facet normal -1.000000e+000  0.000000e+000  0.000000e+000
    outer loop
      vertex -1.000000e+001  1.696127e+001  3.070364e+001
      vertex -1.000000e+001  2.311483e+001  3.270306e+001
      vertex -1.000000e+001  2.376448e+001  3.070364e+001
    endloop
  endfacet
  facet normal -1.000000e+000  -0.000000e+000  0.000000e+000
    outer loop
      vertex -1.000000e+001  1.696127e+001  3.070364e+001
      vertex -1.000000e+001  2.376448e+001  3.070364e+001
      vertex -1.000000e+001  1.761092e+001  2.870423e+001
    endloop
  endfacet
  facet normal -1.000000e+000  0.000000e+000  0.000000e+000
    outer loop
      vertex -1.000000e+001  1.761092e+001  2.870423e+001
      vertex -1.000000e+001  2.376448e+001  3.070364e+001
      vertex -1.000000e+001  2.311483e+001  2.870423e+001
    endloop
  endfacet
  facet normal -9.999999e-001  -0.000000e+000  0.000000e+000
    outer loop
      vertex -1.000000e+001  1.761092e+001  2.870423e+001
      vertex -1.000000e+001  2.311483e+001  2.870423e+001
      vertex -1.000000e+001  1.931172e+001  2.746852e+001
    endloop
  endfacet
  facet normal -1.000000e+000  0.000000e+000  0.000000e+000
    outer loop
      vertex -1.000000e+001  1.931172e+001  2.746852e+001
      vertex -1.000000e+001  2.311483e+001  2.870423e+001
      vertex -1.000000e+001  2.141403e+001  2.746852e+001
    endloop
  endfacet
  facet normal  1.000000e+000  0.000000e+000  0.000000e+000
    outer loop
      vertex  1.000000e+001 -1.093088e+001  3.710299e+001
      vertex  1.000000e+001  1.383493e+001  3.297092e+001
      vertex  1.000000e+001 -1.093088e+001  4.001313e+001
    endloop
  endfacet
  facet normal  1.000000e+000  0.000000e+000  0.000000e+000
    outer loop
      vertex  1.000000e+001  1.171240e+001  3.004951e+001
      vertex  1.000000e+001  1.229906e+001  3.185504e+001
      vertex  1.000000e+001 -1.580578e+001  2.939879e+001
    endloop
  endfacet
  facet normal  1.000000e+000  -0.000000e+000  0.000000e+000
    outer loop
      vertex  1.000000e+001  2.025843e+001  4.001313e+001
      vertex  1.000000e+001 -1.093088e+001  4.001313e+001
      vertex  1.000000e+001  1.383493e+001  3.297092e+001
    endloop
  endfacet
  facet normal  9.999999e-001  0.000000e+000  0.000000e+000
    outer loop
      vertex  1.000000e+001  2.025843e+001  4.001313e+001
      vertex  1.000000e+001  1.383493e+001  3.297092e+001
      vertex  1.000000e+001  1.573338e+001  3.297092e+001
    endloop
  endfacet
  facet normal  1.000000e+000  0.000000e+000  0.000000e+000
    outer loop
      vertex  1.000000e+001  2.025843e+001  4.001313e+001
      vertex  1.000000e+001  1.573338e+001  3.297092e+001
      vertex  1.000000e+001  2.672256e+001  3.916695e+001
    endloop
  endfacet
  facet normal  1.000000e+000  0.000000e+000  0.000000e+000
    outer loop
      vertex  1.000000e+001  2.025843e+001  4.001313e+001
      vertex  1.000000e+001  2.672256e+001  3.916695e+001
      vertex  1.000000e+001  2.357591e+001  4.024256e+001
    endloop
  endfacet
  facet normal  1.000000e+000  -0.000000e+000  -0.000000e+000
    outer loop
      vertex  1.000000e+001 -1.653665e+001  2.485695e+001
      vertex  1.000000e+001 -1.603078e+001  2.028458e+001
      vertex  1.000000e+001 -1.432477e+001  1.601235e+001
    endloop
  endfacet
  facet normal  1.000000e+000  -0.000000e+000  -0.000000e+000
    outer loop
      vertex  1.000000e+001 -1.653665e+001  2.485695e+001
      vertex  1.000000e+001 -1.432477e+001  1.601235e+001
      vertex  1.000000e+001 -1.154198e+001  1.234922e+001
    endloop
  endfacet
  facet normal  1.000000e+000  -0.000000e+000  -0.000000e+000
    outer loop
      vertex  1.000000e+001 -1.653665e+001  2.485695e+001
      vertex  1.000000e+001 -1.154198e+001  1.234922e+001
      vertex  1.000000e+001 -7.883668e+000  9.560104e+000
    endloop
  endfacet
  facet normal  1.000000e+000  -0.000000e+000  -0.000000e+000
    outer loop
      vertex  1.000000e+001 -1.653665e+001  2.485695e+001
      vertex  1.000000e+001 -7.883668e+000  9.560104e+000
      vertex  1.000000e+001 -4.349073e+000  4.444225e+000
    endloop
  endfacet
  facet normal  1.000000e+000  -0.000000e+000  -0.000000e+000
    outer loop
      vertex  1.000000e+001 -1.653665e+001  2.485695e+001
      vertex  1.000000e+001 -4.349073e+000  4.444225e+000
      vertex  1.000000e+001  3.552714e-015 -3.552714e-015
    endloop
  endfacet
  facet normal  1.000000e+000  0.000000e+000  -0.000000e+000
    outer loop
      vertex  1.000000e+001 -1.653665e+001  2.485695e+001
      vertex  1.000000e+001  3.552714e-015 -3.552714e-015
      vertex  1.000000e+001  1.383493e+001  2.712810e+001
    endloop
  endfacet
  facet normal  1.000000e+000  0.000000e+000  0.000000e+000
    outer loop
      vertex  1.000000e+001 -1.653665e+001  2.485695e+001
      vertex  1.000000e+001  1.383493e+001  2.712810e+001
      vertex  1.000000e+001  1.229906e+001  2.824398e+001
    endloop
  endfacet
  facet normal  9.999999e-001  0.000000e+000  0.000000e+000
    outer loop
      vertex  1.000000e+001 -1.653665e+001  2.485695e+001
      vertex  1.000000e+001  1.229906e+001  2.824398e+001
      vertex  1.000000e+001  1.171240e+001  3.004951e+001
    endloop
  endfacet
  facet normal  1.000000e+000  0.000000e+000  0.000000e+000
    outer loop
      vertex  1.000000e+001 -1.653665e+001  2.485695e+001
      vertex  1.000000e+001  1.171240e+001  3.004951e+001
      vertex  1.000000e+001 -1.580578e+001  2.939879e+001
    endloop
  endfacet
  facet normal  9.999999e-001  0.000000e+000  0.000000e+000
    outer loop
      vertex  1.000000e+001  1.383493e+001  2.712810e+001
      vertex  1.000000e+001  3.552714e-015 -3.552714e-015
      vertex  1.000000e+001  1.573338e+001  2.712810e+001
    endloop
  endfacet
  facet normal  1.000000e+000  0.000000e+000  0.000000e+000
    outer loop
      vertex  1.000000e+001  1.573338e+001  2.712810e+001
      vertex  1.000000e+001  3.552714e-015 -3.552714e-015
      vertex  1.000000e+001  2.433926e+001  2.371687e+001
    endloop
  endfacet
  facet normal  1.000000e+000  0.000000e+000  -0.000000e+000
    outer loop
      vertex  1.000000e+001  1.573338e+001  2.712810e+001
      vertex  1.000000e+001  2.433926e+001  2.371687e+001
      vertex  1.000000e+001  2.737336e+001  2.507797e+001
    endloop
  endfacet
  facet normal  1.000000e+000  0.000000e+000  0.000000e+000
    outer loop
      vertex  1.000000e+001  2.920546e+001  3.695481e+001
      vertex  1.000000e+001  2.672256e+001  3.916695e+001
      vertex  1.000000e+001  3.063564e+001  3.395266e+001
    endloop
  endfacet
  facet normal  1.000000e+000  0.000000e+000  0.000000e+000
    outer loop
      vertex  1.000000e+001  3.063564e+001  3.395266e+001
      vertex  1.000000e+001  2.672256e+001  3.916695e+001
      vertex  1.000000e+001  1.573338e+001  3.297092e+001
    endloop
  endfacet
  facet normal  9.999999e-001  -0.000000e+000  0.000000e+000
    outer loop
      vertex  1.000000e+001  3.063564e+001  3.395266e+001
      vertex  1.000000e+001  1.573338e+001  3.297092e+001
      vertex  1.000000e+001  3.078909e+001  3.063079e+001
    endloop
  endfacet
  facet normal  1.000000e+000  0.000000e+000  0.000000e+000
    outer loop
      vertex  1.000000e+001  3.078909e+001  3.063079e+001
      vertex  1.000000e+001  1.573338e+001  3.297092e+001
      vertex  1.000000e+001  1.726925e+001  3.185504e+001
    endloop
  endfacet
  facet normal  1.000000e+000  0.000000e+000  0.000000e+000
    outer loop
      vertex  1.000000e+001  3.078909e+001  3.063079e+001
      vertex  1.000000e+001  1.726925e+001  3.185504e+001
      vertex  1.000000e+001  1.785591e+001  3.004951e+001
    endloop
  endfacet
  facet normal  1.000000e+000  0.000000e+000  0.000000e+000
    outer loop
      vertex  1.000000e+001 -1.580578e+001  2.939879e+001
      vertex  1.000000e+001  1.229906e+001  3.185504e+001
      vertex  1.000000e+001 -1.389104e+001  3.358163e+001
    endloop
  endfacet
  facet normal  1.000000e+000  0.000000e+000  0.000000e+000
    outer loop
      vertex  1.000000e+001 -1.389104e+001  3.358163e+001
      vertex  1.000000e+001  1.229906e+001  3.185504e+001
      vertex  1.000000e+001  1.383493e+001  3.297092e+001
    endloop
  endfacet
  facet normal  9.999999e-001  0.000000e+000  0.000000e+000
    outer loop
      vertex  1.000000e+001 -1.389104e+001  3.358163e+001
      vertex  1.000000e+001  1.383493e+001  3.297092e+001
      vertex  1.000000e+001 -1.093088e+001  3.710299e+001
    endloop
  endfacet
  facet normal  1.000000e+000  -0.000000e+000  0.000000e+000
    outer loop
      vertex  1.000000e+001  3.078909e+001  3.063079e+001
      vertex  1.000000e+001  1.785591e+001  3.004951e+001
      vertex  1.000000e+001  2.964175e+001  2.750959e+001
    endloop
  endfacet
  facet normal  1.000000e+000  0.000000e+000  0.000000e+000
    outer loop
      vertex  1.000000e+001  2.964175e+001  2.750959e+001
      vertex  1.000000e+001  1.785591e+001  3.004951e+001
      vertex  1.000000e+001  1.726925e+001  2.824398e+001
    endloop
  endfacet
  facet normal  9.999999e-001  0.000000e+000  0.000000e+000
    outer loop
      vertex  1.000000e+001  2.964175e+001  2.750959e+001
      vertex  1.000000e+001  1.726925e+001  2.824398e+001
      vertex  1.000000e+001  2.737336e+001  2.507797e+001
    endloop
  endfacet
  facet normal  1.000000e+000  0.000000e+000  0.000000e+000
    outer loop
      vertex  1.000000e+001  2.737336e+001  2.507797e+001
      vertex  1.000000e+001  1.726925e+001  2.824398e+001
      vertex  1.000000e+001  1.573338e+001  2.712810e+001
    endloop
  endfacet
  facet normal  0.000000e+000  9.510565e-001 -3.090172e-001
    outer loop
      vertex  1.000000e+001  1.785591e+001  3.004951e+001
      vertex  2.000000e+001  1.785591e+001  3.004951e+001
      vertex  1.000000e+001  1.726925e+001  2.824398e+001
    endloop
  endfacet
  facet normal  0.000000e+000  9.510565e-001 -3.090172e-001
    outer loop
      vertex  1.000000e+001  1.726925e+001  2.824398e+001
      vertex  2.000000e+001  1.785591e+001  3.004951e+001
      vertex  2.000000e+001  1.726925e+001  2.824398e+001
    endloop
  endfacet
  facet normal  0.000000e+000  5.877849e-001 -8.090172e-001
    outer loop
      vertex  1.000000e+001  1.726925e+001  2.824398e+001
      vertex  2.000000e+001  1.726925e+001  2.824398e+001
      vertex  1.000000e+001  1.573338e+001  2.712810e+001
    endloop
  endfacet
  facet normal  0.000000e+000  5.877849e-001 -8.090172e-001
    outer loop
      vertex  1.000000e+001  1.573338e+001  2.712810e+001
      vertex  2.000000e+001  1.726925e+001  2.824398e+001
      vertex  2.000000e+001  1.573338e+001  2.712810e+001
    endloop
  endfacet
  facet normal  -0.000000e+000  0.000000e+000 -1.000000e+000
    outer loop
      vertex  1.000000e+001  1.573338e+001  2.712810e+001
      vertex  2.000000e+001  1.573338e+001  2.712810e+001
      vertex  1.000000e+001  1.383493e+001  2.712810e+001
    endloop
  endfacet
  facet normal  0.000000e+000  0.000000e+000 -1.000000e+000
    outer loop
      vertex  1.000000e+001  1.383493e+001  2.712810e+001
      vertex  2.000000e+001  1.573338e+001  2.712810e+001
      vertex  2.000000e+001  1.383493e+001  2.712810e+001
    endloop
  endfacet
  facet normal  -0.000000e+000 -5.877849e-001 -8.090172e-001
    outer loop
      vertex  1.000000e+001  1.383493e+001  2.712810e+001
      vertex  2.000000e+001  1.383493e+001  2.712810e+001
      vertex  1.000000e+001  1.229906e+001  2.824398e+001
    endloop
  endfacet
  facet normal  0.000000e+000 -5.877849e-001 -8.090172e-001
    outer loop
      vertex  1.000000e+001  1.229906e+001  2.824398e+001
      vertex  2.000000e+001  1.383493e+001  2.712810e+001
      vertex  2.000000e+001  1.229906e+001  2.824398e+001
    endloop
  endfacet
  facet normal  -0.000000e+000 -9.510565e-001 -3.090172e-001
    outer loop
      vertex  1.000000e+001  1.229906e+001  2.824398e+001
      vertex  2.000000e+001  1.229906e+001  2.824398e+001
      vertex  1.000000e+001  1.171240e+001  3.004951e+001
    endloop
  endfacet
  facet normal  0.000000e+000 -9.510565e-001 -3.090172e-001
    outer loop
      vertex  1.000000e+001  1.171240e+001  3.004951e+001
      vertex  2.000000e+001  1.229906e+001  2.824398e+001
      vertex  2.000000e+001  1.171240e+001  3.004951e+001
    endloop
  endfacet
  facet normal  0.000000e+000 -9.510565e-001  3.090172e-001
    outer loop
      vertex  1.000000e+001  1.171240e+001  3.004951e+001
      vertex  2.000000e+001  1.171240e+001  3.004951e+001
      vertex  1.000000e+001  1.229906e+001  3.185504e+001
    endloop
  endfacet
  facet normal  0.000000e+000 -9.510565e-001  3.090172e-001
    outer loop
      vertex  1.000000e+001  1.229906e+001  3.185504e+001
      vertex  2.000000e+001  1.171240e+001  3.004951e+001
      vertex  2.000000e+001  1.229906e+001  3.185504e+001
    endloop
  endfacet
  facet normal  0.000000e+000 -5.877849e-001  8.090172e-001
    outer loop
      vertex  1.000000e+001  1.229906e+001  3.185504e+001
      vertex  2.000000e+001  1.229906e+001  3.185504e+001
      vertex  1.000000e+001  1.383493e+001  3.297092e+001
    endloop
  endfacet
  facet normal  0.000000e+000 -5.877849e-001  8.090172e-001
    outer loop
      vertex  1.000000e+001  1.383493e+001  3.297092e+001
      vertex  2.000000e+001  1.229906e+001  3.185504e+001
      vertex  2.000000e+001  1.383493e+001  3.297092e+001
    endloop
  endfacet
  facet normal  0.000000e+000  0.000000e+000  1.000000e+000
    outer loop
      vertex  1.000000e+001  1.383493e+001  3.297092e+001
      vertex  2.000000e+001  1.383493e+001  3.297092e+001
      vertex  1.000000e+001  1.573338e+001  3.297092e+001
    endloop
  endfacet
  facet normal  -0.000000e+000  0.000000e+000  1.000000e+000
    outer loop
      vertex  1.000000e+001  1.573338e+001  3.297092e+001
      vertex  2.000000e+001  1.383493e+001  3.297092e+001
      vertex  2.000000e+001  1.573338e+001  3.297092e+001
    endloop
  endfacet
  facet normal  0.000000e+000  5.877849e-001  8.090172e-001
    outer loop
      vertex  1.000000e+001  1.573338e+001  3.297092e+001
      vertex  2.000000e+001  1.573338e+001  3.297092e+001
      vertex  1.000000e+001  1.726925e+001  3.185504e+001
    endloop
  endfacet
  facet normal  -0.000000e+000  5.877849e-001  8.090172e-001
    outer loop
      vertex  1.000000e+001  1.726925e+001  3.185504e+001
      vertex  2.000000e+001  1.573338e+001  3.297092e+001
      vertex  2.000000e+001  1.726925e+001  3.185504e+001
    endloop
  endfacet
  facet normal  0.000000e+000  9.510565e-001  3.090172e-001
    outer loop
      vertex  1.000000e+001  1.726925e+001  3.185504e+001
      vertex  2.000000e+001  1.726925e+001  3.185504e+001
      vertex  1.000000e+001  1.785591e+001  3.004951e+001
    endloop
  endfacet
  facet normal  -0.000000e+000  9.510565e-001  3.090172e-001
    outer loop
      vertex  1.000000e+001  1.785591e+001  3.004951e+001
      vertex  2.000000e+001  1.726925e+001  3.185504e+001
      vertex  2.000000e+001  1.785591e+001  3.004951e+001
    endloop
  endfacet
  facet normal  1.000000e+000  -0.000000e+000  0.000000e+000
    outer loop
      vertex  2.000000e+001  1.573338e+001  3.297092e+001
      vertex  2.000000e+001  1.383493e+001  3.297092e+001
      vertex  2.000000e+001  1.726925e+001  3.185504e+001
    endloop
  endfacet
  facet normal  9.999999e-001  0.000000e+000  0.000000e+000
    outer loop
      vertex  2.000000e+001  1.726925e+001  3.185504e+001
      vertex  2.000000e+001  1.383493e+001  3.297092e+001
      vertex  2.000000e+001  1.229906e+001  3.185504e+001
    endloop
  endfacet
  facet normal  1.000000e+000  -0.000000e+000  0.000000e+000
    outer loop
      vertex  2.000000e+001  1.726925e+001  3.185504e+001
      vertex  2.000000e+001  1.229906e+001  3.185504e+001
      vertex  2.000000e+001  1.785591e+001  3.004951e+001
    endloop
  endfacet
  facet normal  9.999999e-001  0.000000e+000  0.000000e+000
    outer loop
      vertex  2.000000e+001  1.785591e+001  3.004951e+001
      vertex  2.000000e+001  1.229906e+001  3.185504e+001
      vertex  2.000000e+001  1.171240e+001  3.004951e+001
    endloop
  endfacet
  facet normal  9.999999e-001  -0.000000e+000  0.000000e+000
    outer loop
      vertex  2.000000e+001  1.785591e+001  3.004951e+001
      vertex  2.000000e+001  1.171240e+001  3.004951e+001
      vertex  2.000000e+001  1.726925e+001  2.824398e+001
    endloop
  endfacet
  facet normal  1.000000e+000  0.000000e+000  0.000000e+000
    outer loop
      vertex  2.000000e+001  1.726925e+001  2.824398e+001
      vertex  2.000000e+001  1.171240e+001  3.004951e+001
      vertex  2.000000e+001  1.229906e+001  2.824398e+001
    endloop
  endfacet
  facet normal  9.999999e-001  -0.000000e+000  0.000000e+000
    outer loop
      vertex  2.000000e+001  1.726925e+001  2.824398e+001
      vertex  2.000000e+001  1.229906e+001  2.824398e+001
      vertex  2.000000e+001  1.573338e+001  2.712810e+001
    endloop
  endfacet
  facet normal  1.000000e+000  0.000000e+000  0.000000e+000
    outer loop
      vertex  2.000000e+001  1.573338e+001  2.712810e+001
      vertex  2.000000e+001  1.229906e+001  2.824398e+001
      vertex  2.000000e+001  1.383493e+001  2.712810e+001
    endloop
  endfacet
  facet normal  0.000000e+000 -6.899338e-002  9.976171e-001
    outer loop
      vertex  0.000000e+000  2.025843e+001  4.001313e+001
      vertex  1.000000e+001  2.025843e+001  4.001313e+001
      vertex  0.000000e+000  2.357591e+001  4.024256e+001
    endloop
  endfacet
  facet normal  0.000000e+000 -6.899338e-002  9.976171e-001
    outer loop
      vertex  0.000000e+000  2.357591e+001  4.024256e+001
      vertex  1.000000e+001  2.025843e+001  4.001313e+001
      vertex  1.000000e+001  2.357591e+001  4.024256e+001
    endloop
  endfacet
  facet normal  0.000000e+000  3.234512e-001  9.462448e-001
    outer loop
      vertex  0.000000e+000  2.357591e+001  4.024256e+001
      vertex  1.000000e+001  2.357591e+001  4.024256e+001
      vertex  0.000000e+000  2.672256e+001  3.916695e+001
    endloop
  endfacet
  facet normal  -0.000000e+000  3.234512e-001  9.462448e-001
    outer loop
      vertex  0.000000e+000  2.672256e+001  3.916695e+001
      vertex  1.000000e+001  2.357591e+001  4.024256e+001
      vertex  1.000000e+001  2.672256e+001  3.916695e+001
    endloop
  endfacet
  facet normal  0.000000e+000  6.652246e-001  7.466432e-001
    outer loop
      vertex  0.000000e+000  2.672256e+001  3.916695e+001
      vertex  1.000000e+001  2.672256e+001  3.916695e+001
      vertex  0.000000e+000  2.920546e+001  3.695481e+001
    endloop
  endfacet
  facet normal  -0.000000e+000  6.652246e-001  7.466432e-001
    outer loop
      vertex  0.000000e+000  2.920546e+001  3.695481e+001
      vertex  1.000000e+001  2.672256e+001  3.916695e+001
      vertex  1.000000e+001  2.920546e+001  3.695481e+001
    endloop
  endfacet
  facet normal  0.000000e+000  9.027913e-001  4.300790e-001
    outer loop
      vertex  0.000000e+000  2.920546e+001  3.695481e+001
      vertex  1.000000e+001  2.920546e+001  3.695481e+001
      vertex  0.000000e+000  3.063564e+001  3.395266e+001
    endloop
  endfacet
  facet normal  -0.000000e+000  9.027913e-001  4.300790e-001
    outer loop
      vertex  0.000000e+000  3.063564e+001  3.395266e+001
      vertex  1.000000e+001  2.920546e+001  3.695481e+001
      vertex  1.000000e+001  3.063564e+001  3.395266e+001
    endloop
  endfacet
  facet normal  0.000000e+000  9.989349e-001  4.614244e-002
    outer loop
      vertex  0.000000e+000  3.063564e+001  3.395266e+001
      vertex  1.000000e+001  3.063564e+001  3.395266e+001
      vertex  0.000000e+000  3.078909e+001  3.063079e+001
    endloop
  endfacet
  facet normal  -0.000000e+000  9.989349e-001  4.614244e-002
    outer loop
      vertex  0.000000e+000  3.078909e+001  3.063079e+001
      vertex  1.000000e+001  3.063564e+001  3.395266e+001
      vertex  1.000000e+001  3.078909e+001  3.063079e+001
    endloop
  endfacet
  facet normal  0.000000e+000  9.385945e-001 -3.450222e-001
    outer loop
      vertex  0.000000e+000  3.078909e+001  3.063079e+001
      vertex  1.000000e+001  3.078909e+001  3.063079e+001
      vertex  0.000000e+000  2.964175e+001  2.750959e+001
    endloop
  endfacet
  facet normal  0.000000e+000  9.385945e-001 -3.450222e-001
    outer loop
      vertex  0.000000e+000  2.964175e+001  2.750959e+001
      vertex  1.000000e+001  3.078909e+001  3.063079e+001
      vertex  1.000000e+001  2.964175e+001  2.750959e+001
    endloop
  endfacet
  facet normal  0.000000e+000  7.312226e-001 -6.821389e-001
    outer loop
      vertex  0.000000e+000  2.964175e+001  2.750959e+001
      vertex  1.000000e+001  2.964175e+001  2.750959e+001
      vertex  0.000000e+000  2.737336e+001  2.507797e+001
    endloop
  endfacet
  facet normal  0.000000e+000  7.312226e-001 -6.821389e-001
    outer loop
      vertex  0.000000e+000  2.737336e+001  2.507797e+001
      vertex  1.000000e+001  2.964175e+001  2.750959e+001
      vertex  1.000000e+001  2.737336e+001  2.507797e+001
    endloop
  endfacet
  facet normal  0.000000e+000  4.093043e-001 -9.123979e-001
    outer loop
      vertex  0.000000e+000  2.737336e+001  2.507797e+001
      vertex  1.000000e+001  2.737336e+001  2.507797e+001
      vertex  0.000000e+000  2.433926e+001  2.371687e+001
    endloop
  endfacet
  facet normal  0.000000e+000  4.093043e-001 -9.123979e-001
    outer loop
      vertex  0.000000e+000  2.433926e+001  2.371687e+001
      vertex  1.000000e+001  2.737336e+001  2.507797e+001
      vertex  1.000000e+001  2.433926e+001  2.371687e+001
    endloop
  endfacet
  facet normal  0.000000e+000  6.978903e-001 -7.162048e-001
    outer loop
      vertex  1.000000e+001  2.433926e+001  2.371687e+001
      vertex  1.000000e+001  3.552714e-015 -3.552714e-015
      vertex  0.000000e+000  2.433926e+001  2.371687e+001
    endloop
  endfacet
  facet normal  0.000000e+000  6.978903e-001 -7.162048e-001
    outer loop
      vertex  0.000000e+000  2.433926e+001  2.371687e+001
      vertex  1.000000e+001  3.552714e-015 -3.552714e-015
      vertex  0.000000e+000  3.552714e-015 -3.552714e-015
    endloop
  endfacet
  facet normal  -0.000000e+000 -7.147165e-001 -6.994143e-001
    outer loop
      vertex  0.000000e+000  3.552714e-015 -3.552714e-015
      vertex  1.000000e+001  3.552714e-015 -3.552714e-015
      vertex  0.000000e+000 -4.349073e+000  4.444225e+000
    endloop
  endfacet
  facet normal  0.000000e+000 -7.147165e-001 -6.994143e-001
    outer loop
      vertex  0.000000e+000 -4.349073e+000  4.444225e+000
      vertex  1.000000e+001  3.552714e-015 -3.552714e-015
      vertex  1.000000e+001 -4.349073e+000  4.444225e+000
    endloop
  endfacet
  facet normal  -0.000000e+000 -8.227312e-001 -5.684305e-001
    outer loop
      vertex  0.000000e+000 -4.349073e+000  4.444225e+000
      vertex  1.000000e+001 -4.349073e+000  4.444225e+000
      vertex  0.000000e+000 -7.883668e+000  9.560104e+000
    endloop
  endfacet
  facet normal  0.000000e+000 -8.227312e-001 -5.684305e-001
    outer loop
      vertex  0.000000e+000 -7.883668e+000  9.560104e+000
      vertex  1.000000e+001 -4.349073e+000  4.444225e+000
      vertex  1.000000e+001 -7.883668e+000  9.560104e+000
    endloop
  endfacet
  facet normal  -0.000000e+000 -6.062952e-001 -7.952396e-001
    outer loop
      vertex  0.000000e+000 -7.883668e+000  9.560104e+000
      vertex  1.000000e+001 -7.883668e+000  9.560104e+000
      vertex  0.000000e+000 -1.154198e+001  1.234922e+001
    endloop
  endfacet
  facet normal  0.000000e+000 -6.062952e-001 -7.952396e-001
    outer loop
      vertex  0.000000e+000 -1.154198e+001  1.234922e+001
      vertex  1.000000e+001 -7.883668e+000  9.560104e+000
      vertex  1.000000e+001 -1.154198e+001  1.234922e+001
    endloop
  endfacet
  facet normal  -0.000000e+000 -7.962870e-001 -6.049190e-001
    outer loop
      vertex  0.000000e+000 -1.154198e+001  1.234922e+001
      vertex  1.000000e+001 -1.154198e+001  1.234922e+001
      vertex  0.000000e+000 -1.432477e+001  1.601235e+001
    endloop
  endfacet
  facet normal  0.000000e+000 -7.962870e-001 -6.049190e-001
    outer loop
      vertex  0.000000e+000 -1.432477e+001  1.601235e+001
      vertex  1.000000e+001 -1.154198e+001  1.234922e+001
      vertex  1.000000e+001 -1.432477e+001  1.601235e+001
    endloop
  endfacet
  facet normal  -0.000000e+000 -9.286922e-001 -3.708516e-001
    outer loop
      vertex  0.000000e+000 -1.432477e+001  1.601235e+001
      vertex  1.000000e+001 -1.432477e+001  1.601235e+001
      vertex  0.000000e+000 -1.603078e+001  2.028458e+001
    endloop
  endfacet
  facet normal  0.000000e+000 -9.286922e-001 -3.708516e-001
    outer loop
      vertex  0.000000e+000 -1.603078e+001  2.028458e+001
      vertex  1.000000e+001 -1.432477e+001  1.601235e+001
      vertex  1.000000e+001 -1.603078e+001  2.028458e+001
    endloop
  endfacet
  facet normal  -0.000000e+000 -9.939355e-001 -1.099643e-001
    outer loop
      vertex  0.000000e+000 -1.603078e+001  2.028458e+001
      vertex  1.000000e+001 -1.603078e+001  2.028458e+001
      vertex  0.000000e+000 -1.653665e+001  2.485695e+001
    endloop
  endfacet
  facet normal  0.000000e+000 -9.939355e-001 -1.099643e-001
    outer loop
      vertex  0.000000e+000 -1.653665e+001  2.485695e+001
      vertex  1.000000e+001 -1.603078e+001  2.028458e+001
      vertex  1.000000e+001 -1.653665e+001  2.485695e+001
    endloop
  endfacet
  facet normal  0.000000e+000 -9.872986e-001  1.588755e-001
    outer loop
      vertex  0.000000e+000 -1.653665e+001  2.485695e+001
      vertex  1.000000e+001 -1.653665e+001  2.485695e+001
      vertex  0.000000e+000 -1.580578e+001  2.939879e+001
    endloop
  endfacet
  facet normal  0.000000e+000 -9.872986e-001  1.588755e-001
    outer loop
      vertex  0.000000e+000 -1.580578e+001  2.939879e+001
      vertex  1.000000e+001 -1.653665e+001  2.485695e+001
      vertex  1.000000e+001 -1.580578e+001  2.939879e+001
    endloop
  endfacet
  facet normal  0.000000e+000 -9.092616e-001  4.162250e-001
    outer loop
      vertex  0.000000e+000 -1.580578e+001  2.939879e+001
      vertex  1.000000e+001 -1.580578e+001  2.939879e+001
      vertex  0.000000e+000 -1.389104e+001  3.358163e+001
    endloop
  endfacet
  facet normal  0.000000e+000 -9.092616e-001  4.162250e-001
    outer loop
      vertex  0.000000e+000 -1.389104e+001  3.358163e+001
      vertex  1.000000e+001 -1.580578e+001  2.939879e+001
      vertex  1.000000e+001 -1.389104e+001  3.358163e+001
    endloop
  endfacet
  facet normal  0.000000e+000 -7.654678e-001  6.434742e-001
    outer loop
      vertex  0.000000e+000 -1.389104e+001  3.358163e+001
      vertex  1.000000e+001 -1.389104e+001  3.358163e+001
      vertex  0.000000e+000 -1.093088e+001  3.710299e+001
    endloop
  endfacet
  facet normal  0.000000e+000 -7.654678e-001  6.434742e-001
    outer loop
      vertex  0.000000e+000 -1.093088e+001  3.710299e+001
      vertex  1.000000e+001 -1.389104e+001  3.358163e+001
      vertex  1.000000e+001 -1.093088e+001  3.710299e+001
    endloop
  endfacet
  facet normal  0.000000e+000 -1.000000e+000  0.000000e+000
    outer loop
      vertex  0.000000e+000 -1.093088e+001  3.710299e+001
      vertex  1.000000e+001 -1.093088e+001  3.710299e+001
      vertex  0.000000e+000 -1.093088e+001  4.001313e+001
    endloop
  endfacet
  facet normal  0.000000e+000 -1.000000e+000  0.000000e+000
    outer loop
      vertex  0.000000e+000 -1.093088e+001  4.001313e+001
      vertex  1.000000e+001 -1.093088e+001  3.710299e+001
      vertex  1.000000e+001 -1.093088e+001  4.001313e+001
    endloop
  endfacet
  facet normal  -0.000000e+000  0.000000e+000  1.000000e+000
    outer loop
      vertex  1.000000e+001  2.025843e+001  4.001313e+001
      vertex  0.000000e+000  2.025843e+001  4.001313e+001
      vertex  1.000000e+001 -1.093088e+001  4.001313e+001
    endloop
  endfacet
  facet normal  0.000000e+000  0.000000e+000  1.000000e+000
    outer loop
      vertex  1.000000e+001 -1.093088e+001  4.001313e+001
      vertex  0.000000e+000  2.025843e+001  4.001313e+001
      vertex  0.000000e+000 -1.093088e+001  4.001313e+001
    endloop
  endfacet
endsolid CATIA STL
