solid CATIA STL
  facet normal  0.000000e+000  0.000000e+000  9.999999e-001
    outer loop
      vertex -1.246659e+001 -1.644176e+001  1.000000e+001
      vertex -1.719503e+001 -1.371179e+001  1.000000e+001
      vertex -1.519656e+001 -1.571026e+001  1.000000e+001
    endloop
  endfacet
  facet normal  0.000000e+000  0.000000e+000  1.000000e+000
    outer loop
      vertex -1.792653e+001  8.745139e+000  1.000000e+001
      vertex -3.199096e+001  1.657413e+001  1.000000e+001
      vertex -3.408065e+001  1.698420e+001  1.000000e+001
    endloop
  endfacet
  facet normal  0.000000e+000  0.000000e+000  1.000000e+000
    outer loop
      vertex -1.792653e+001  8.745139e+000  1.000000e+001
      vertex -3.408065e+001  1.698420e+001  1.000000e+001
      vertex -3.601229e+001  1.608767e+001  1.000000e+001
    endloop
  endfacet
  facet normal  0.000000e+000  0.000000e+000  1.000000e+000
    outer loop
      vertex -1.792653e+001  8.745139e+000  1.000000e+001
      vertex -3.601229e+001  1.608767e+001  1.000000e+001
      vertex -3.704805e+001  1.422697e+001  1.000000e+001
    endloop
  endfacet
  facet normal  0.000000e+000  0.000000e+000  1.000000e+000
    outer loop
      vertex -1.792653e+001  8.745139e+000  1.000000e+001
      vertex -3.704805e+001  1.422697e+001  1.000000e+001
      vertex -3.679231e+001  1.211283e+001  1.000000e+001
    endloop
  endfacet
  facet normal  0.000000e+000  0.000000e+000  9.999999e-001
    outer loop
      vertex -1.792653e+001  8.745139e+000  1.000000e+001
      vertex -3.679231e+001  1.211283e+001  1.000000e+001
      vertex -3.534275e+001  1.055278e+001  1.000000e+001
    endloop
  endfacet
  facet normal  0.000000e+000  0.000000e+000  1.000000e+000
    outer loop
      vertex -1.792653e+001  8.745139e+000  1.000000e+001
      vertex -3.534275e+001  1.055278e+001  1.000000e+001
      vertex -1.960242e+001  1.790902e+000  1.000000e+001
    endloop
  endfacet
  facet normal  -0.000000e+000  0.000000e+000  1.000000e+000
    outer loop
      vertex -1.792653e+001  8.745139e+000  1.000000e+001
      vertex -1.960242e+001  1.790902e+000  1.000000e+001
      vertex -1.792653e+001  1.355886e+000  1.000000e+001
    endloop
  endfacet
  facet normal  0.000000e+000  0.000000e+000  1.000000e+000
    outer loop
      vertex -3.646939e-016 -1.198241e+001  1.000000e+001
      vertex -1.403866e+000 -1.140091e+001  1.000000e+001
      vertex -1.792653e+001 -1.098182e+001  1.000000e+001
    endloop
  endfacet
  facet normal  0.000000e+000  0.000000e+000  9.999999e-001
    outer loop
      vertex -3.646939e-016 -1.198241e+001  1.000000e+001
      vertex -1.792653e+001 -1.098182e+001  1.000000e+001
      vertex -1.719503e+001 -1.371179e+001  1.000000e+001
    endloop
  endfacet
  facet normal  -0.000000e+000  0.000000e+000  9.999999e-001
    outer loop
      vertex -3.646939e-016 -1.198241e+001  1.000000e+001
      vertex -1.719503e+001 -1.371179e+001  1.000000e+001
      vertex -1.246659e+001 -1.644176e+001  1.000000e+001
    endloop
  endfacet
  facet normal  0.000000e+000  0.000000e+000  1.000000e+000
    outer loop
      vertex -3.646939e-016 -1.198241e+001  1.000000e+001
      vertex -1.246659e+001 -1.644176e+001  1.000000e+001
      vertex  1.458458e+001 -1.644176e+001  1.000000e+001
    endloop
  endfacet
  facet normal  0.000000e+000  -0.000000e+000  1.000000e+000
    outer loop
      vertex -3.646939e-016 -1.198241e+001  1.000000e+001
      vertex  1.458458e+001 -1.644176e+001  1.000000e+001
      vertex  1.625555e+001 -1.599402e+001  1.000000e+001
    endloop
  endfacet
  facet normal  0.000000e+000  -0.000000e+000  1.000000e+000
    outer loop
      vertex -3.646939e-016 -1.198241e+001  1.000000e+001
      vertex  1.625555e+001 -1.599402e+001  1.000000e+001
      vertex  1.747879e+001 -1.477079e+001  1.000000e+001
    endloop
  endfacet
  facet normal  0.000000e+000  -0.000000e+000  1.000000e+000
    outer loop
      vertex -3.646939e-016 -1.198241e+001  1.000000e+001
      vertex  1.747879e+001 -1.477079e+001  1.000000e+001
      vertex  1.792653e+001 -1.309982e+001  1.000000e+001
    endloop
  endfacet
  facet normal  0.000000e+000  -0.000000e+000  1.000000e+000
    outer loop
      vertex  1.215646e-016 -8.011679e+000  1.000000e+001
      vertex  1.792653e+001 -1.309982e+001  1.000000e+001
      vertex  1.792653e+001  1.356345e+001  1.000000e+001
    endloop
  endfacet
  facet normal  0.000000e+000  0.000000e+000  1.000000e+000
    outer loop
      vertex  1.215646e-016 -8.011679e+000  1.000000e+001
      vertex  1.792653e+001  1.356345e+001  1.000000e+001
      vertex  4.706093e+000  1.644176e+001  1.000000e+001
    endloop
  endfacet
  facet normal  0.000000e+000  0.000000e+000  1.000000e+000
    outer loop
      vertex  1.215646e-016 -8.011679e+000  1.000000e+001
      vertex  4.706093e+000  1.644176e+001  1.000000e+001
      vertex  4.697174e+000  1.665080e+001  1.000000e+001
    endloop
  endfacet
  facet normal  0.000000e+000  0.000000e+000  1.000000e+000
    outer loop
      vertex  1.215646e-016 -8.011679e+000  1.000000e+001
      vertex  4.697174e+000  1.665080e+001  1.000000e+001
      vertex  1.989528e+000  4.832148e+001  1.000000e+001
    endloop
  endfacet
  facet normal  0.000000e+000  0.000000e+000  1.000000e+000
    outer loop
      vertex  1.215646e-016 -8.011679e+000  1.000000e+001
      vertex  1.989528e+000  4.832148e+001  1.000000e+001
      vertex  1.125541e+000  4.998923e+001  1.000000e+001
    endloop
  endfacet
  facet normal  0.000000e+000  0.000000e+000  1.000000e+000
    outer loop
      vertex  1.215646e-016 -8.011679e+000  1.000000e+001
      vertex  1.125541e+000  4.998923e+001  1.000000e+001
      vertex -2.110112e-001  1.644176e+001  1.000000e+001
    endloop
  endfacet
  facet normal  0.000000e+000  0.000000e+000  1.000000e+000
    outer loop
      vertex  1.215646e-016 -8.011679e+000  1.000000e+001
      vertex -2.110112e-001  1.644176e+001  1.000000e+001
      vertex -1.458188e+001  1.628998e+001  1.000000e+001
    endloop
  endfacet
  facet normal  0.000000e+000  0.000000e+000  1.000000e+000
    outer loop
      vertex  1.215646e-016 -8.011679e+000  1.000000e+001
      vertex -1.458188e+001  1.628998e+001  1.000000e+001
      vertex -1.631428e+001  1.539082e+001  1.000000e+001
    endloop
  endfacet
  facet normal  0.000000e+000  0.000000e+000  1.000000e+000
    outer loop
      vertex  1.215646e-016 -8.011679e+000  1.000000e+001
      vertex -1.631428e+001  1.539082e+001  1.000000e+001
      vertex -1.750361e+001  1.384319e+001  1.000000e+001
    endloop
  endfacet
  facet normal  0.000000e+000  0.000000e+000  1.000000e+000
    outer loop
      vertex  1.215646e-016 -8.011679e+000  1.000000e+001
      vertex -1.750361e+001  1.384319e+001  1.000000e+001
      vertex -1.792653e+001  1.193772e+001  1.000000e+001
    endloop
  endfacet
  facet normal  0.000000e+000  0.000000e+000  9.999999e-001
    outer loop
      vertex  1.215646e-016 -8.011679e+000  1.000000e+001
      vertex -1.792653e+001  1.193772e+001  1.000000e+001
      vertex -1.792653e+001  8.745139e+000  1.000000e+001
    endloop
  endfacet
  facet normal  0.000000e+000  0.000000e+000  1.000000e+000
    outer loop
      vertex  1.215646e-016 -8.011679e+000  1.000000e+001
      vertex -1.792653e+001  8.745139e+000  1.000000e+001
      vertex -1.792653e+001  1.355886e+000  1.000000e+001
    endloop
  endfacet
  facet normal  0.000000e+000  0.000000e+000  1.000000e+000
    outer loop
      vertex -1.792653e+001 -1.098182e+001  1.000000e+001
      vertex -1.403866e+000 -1.140091e+001  1.000000e+001
      vertex -1.985367e+000 -9.997046e+000  1.000000e+001
    endloop
  endfacet
  facet normal  0.000000e+000  -0.000000e+000  1.000000e+000
    outer loop
      vertex -1.792653e+001 -1.098182e+001  1.000000e+001
      vertex -1.985367e+000 -9.997046e+000  1.000000e+001
      vertex -1.403866e+000 -8.593179e+000  1.000000e+001
    endloop
  endfacet
  facet normal  0.000000e+000  -0.000000e+000  1.000000e+000
    outer loop
      vertex -1.792653e+001 -1.098182e+001  1.000000e+001
      vertex -1.403866e+000 -8.593179e+000  1.000000e+001
      vertex  1.215646e-016 -8.011679e+000  1.000000e+001
    endloop
  endfacet
  facet normal  0.000000e+000  0.000000e+000  1.000000e+000
    outer loop
      vertex -1.792653e+001 -1.098182e+001  1.000000e+001
      vertex  1.215646e-016 -8.011679e+000  1.000000e+001
      vertex -1.792653e+001  1.355886e+000  1.000000e+001
    endloop
  endfacet
  facet normal  0.000000e+000  0.000000e+000  1.000000e+000
    outer loop
      vertex  2.076435e+001  1.596071e+001  1.000000e+001
      vertex  2.397072e+001  3.487601e+001  1.000000e+001
      vertex  1.508870e+001  1.692280e+001  1.000000e+001
    endloop
  endfacet
  facet normal  0.000000e+000  0.000000e+000  1.000000e+000
    outer loop
      vertex  2.076435e+001  1.596071e+001  1.000000e+001
      vertex  1.508870e+001  1.692280e+001  1.000000e+001
      vertex  1.504822e+001  1.644176e+001  1.000000e+001
    endloop
  endfacet
  facet normal  0.000000e+000  0.000000e+000  1.000000e+000
    outer loop
      vertex  2.076435e+001  1.596071e+001  1.000000e+001
      vertex  1.504822e+001  1.644176e+001  1.000000e+001
      vertex  1.198824e+001  1.644176e+001  1.000000e+001
    endloop
  endfacet
  facet normal  0.000000e+000  0.000000e+000  1.000000e+000
    outer loop
      vertex  2.076435e+001  1.596071e+001  1.000000e+001
      vertex  1.198824e+001  1.644176e+001  1.000000e+001
      vertex  6.402125e+000  1.644176e+001  1.000000e+001
    endloop
  endfacet
  facet normal  0.000000e+000  0.000000e+000  1.000000e+000
    outer loop
      vertex  2.076435e+001  1.596071e+001  1.000000e+001
      vertex  6.402125e+000  1.644176e+001  1.000000e+001
      vertex  4.706093e+000  1.644176e+001  1.000000e+001
    endloop
  endfacet
  facet normal  0.000000e+000  0.000000e+000  1.000000e+000
    outer loop
      vertex  2.076435e+001  1.596071e+001  1.000000e+001
      vertex  4.706093e+000  1.644176e+001  1.000000e+001
      vertex  1.792653e+001  1.356345e+001  1.000000e+001
    endloop
  endfacet
  facet normal  0.000000e+000  0.000000e+000  9.999999e-001
    outer loop
      vertex  2.076435e+001  1.596071e+001  1.000000e+001
      vertex  1.792653e+001  1.356345e+001  1.000000e+001
      vertex  1.978395e+001  1.424298e+001  1.000000e+001
    endloop
  endfacet
  facet normal  0.000000e+000  0.000000e+000  1.000000e+000
    outer loop
      vertex  1.792653e+001 -1.309982e+001  1.000000e+001
      vertex  1.215646e-016 -8.011679e+000  1.000000e+001
      vertex  1.403866e+000 -8.593179e+000  1.000000e+001
    endloop
  endfacet
  facet normal  0.000000e+000  0.000000e+000  1.000000e+000
    outer loop
      vertex  1.792653e+001 -1.309982e+001  1.000000e+001
      vertex  1.403866e+000 -8.593179e+000  1.000000e+001
      vertex  1.985367e+000 -9.997046e+000  1.000000e+001
    endloop
  endfacet
  facet normal  0.000000e+000  0.000000e+000  1.000000e+000
    outer loop
      vertex  1.792653e+001 -1.309982e+001  1.000000e+001
      vertex  1.985367e+000 -9.997046e+000  1.000000e+001
      vertex  1.403866e+000 -1.140091e+001  1.000000e+001
    endloop
  endfacet
  facet normal  0.000000e+000  0.000000e+000  9.999999e-001
    outer loop
      vertex  1.792653e+001 -1.309982e+001  1.000000e+001
      vertex  1.403866e+000 -1.140091e+001  1.000000e+001
      vertex -3.646939e-016 -1.198241e+001  1.000000e+001
    endloop
  endfacet
  facet normal  0.000000e+000  0.000000e+000  1.000000e+000
    outer loop
      vertex  1.125541e+000  4.998923e+001  1.000000e+001
      vertex -6.646740e-001  5.055759e+001  1.000000e+001
      vertex -2.110112e-001  1.644176e+001  1.000000e+001
    endloop
  endfacet
  facet normal  0.000000e+000  0.000000e+000  1.000000e+000
    outer loop
      vertex -2.110112e-001  1.644176e+001  1.000000e+001
      vertex -6.646740e-001  5.055759e+001  1.000000e+001
      vertex -2.332433e+000  4.969360e+001  1.000000e+001
    endloop
  endfacet
  facet normal  0.000000e+000  0.000000e+000  1.000000e+000
    outer loop
      vertex -2.110112e-001  1.644176e+001  1.000000e+001
      vertex -2.332433e+000  4.969360e+001  1.000000e+001
      vertex -2.900785e+000  4.790339e+001  1.000000e+001
    endloop
  endfacet
  facet normal  -0.000000e+000  0.000000e+000  9.999999e-001
    outer loop
      vertex -1.615073e+001  4.911931e+001  1.000000e+001
      vertex -1.850651e+001  4.863345e+001  1.000000e+001
      vertex -1.395928e+001  4.812768e+001  1.000000e+001
    endloop
  endfacet
  facet normal  0.000000e+000  0.000000e+000  1.000000e+000
    outer loop
      vertex -1.395928e+001  4.812768e+001  1.000000e+001
      vertex -1.850651e+001  4.863345e+001  1.000000e+001
      vertex -2.012680e+001  4.685569e+001  1.000000e+001
    endloop
  endfacet
  facet normal  -0.000000e+000  0.000000e+000  1.000000e+000
    outer loop
      vertex -1.395928e+001  4.812768e+001  1.000000e+001
      vertex -2.012680e+001  4.685569e+001  1.000000e+001
      vertex -1.276923e+001  4.603733e+001  1.000000e+001
    endloop
  endfacet
  facet normal  0.000000e+000  0.000000e+000  1.000000e+000
    outer loop
      vertex -1.276923e+001  4.603733e+001  1.000000e+001
      vertex -2.012680e+001  4.685569e+001  1.000000e+001
      vertex -6.827581e+000  1.722789e+001  1.000000e+001
    endloop
  endfacet
  facet normal  0.000000e+000  0.000000e+000  9.999999e-001
    outer loop
      vertex -6.827581e+000  1.722789e+001  1.000000e+001
      vertex -2.012680e+001  4.685569e+001  1.000000e+001
      vertex -2.039270e+001  4.446508e+001  1.000000e+001
    endloop
  endfacet
  facet normal  0.000000e+000  0.000000e+000  1.000000e+000
    outer loop
      vertex -6.827581e+000  1.722789e+001  1.000000e+001
      vertex -2.039270e+001  4.446508e+001  1.000000e+001
      vertex -6.747360e+000  1.644176e+001  1.000000e+001
    endloop
  endfacet
  facet normal  0.000000e+000  0.000000e+000  1.000000e+000
    outer loop
      vertex -6.747360e+000  1.644176e+001  1.000000e+001
      vertex -2.039270e+001  4.446508e+001  1.000000e+001
      vertex -1.458188e+001  1.628998e+001  1.000000e+001
    endloop
  endfacet
  facet normal  0.000000e+000  0.000000e+000  9.999999e-001
    outer loop
      vertex -6.747360e+000  1.644176e+001  1.000000e+001
      vertex -1.458188e+001  1.628998e+001  1.000000e+001
      vertex -2.110112e-001  1.644176e+001  1.000000e+001
    endloop
  endfacet
  facet normal  0.000000e+000  0.000000e+000  1.000000e+000
    outer loop
      vertex  2.246733e+001  3.790733e+001  1.000000e+001
      vertex  2.071346e+001  3.820463e+001  1.000000e+001
      vertex  2.371149e+001  3.663591e+001  1.000000e+001
    endloop
  endfacet
  facet normal  0.000000e+000  0.000000e+000  1.000000e+000
    outer loop
      vertex  2.371149e+001  3.663591e+001  1.000000e+001
      vertex  2.071346e+001  3.820463e+001  1.000000e+001
      vertex  1.911980e+001  3.741426e+001  1.000000e+001
    endloop
  endfacet
  facet normal  0.000000e+000  0.000000e+000  9.999999e-001
    outer loop
      vertex  2.371149e+001  3.663591e+001  1.000000e+001
      vertex  1.911980e+001  3.741426e+001  1.000000e+001
      vertex  1.829507e+001  3.583810e+001  1.000000e+001
    endloop
  endfacet
  facet normal  0.000000e+000  0.000000e+000  1.000000e+000
    outer loop
      vertex  1.829507e+001  3.583810e+001  1.000000e+001
      vertex  1.508870e+001  1.692280e+001  1.000000e+001
      vertex  2.371149e+001  3.663591e+001  1.000000e+001
    endloop
  endfacet
  facet normal  0.000000e+000  0.000000e+000  1.000000e+000
    outer loop
      vertex  2.371149e+001  3.663591e+001  1.000000e+001
      vertex  1.508870e+001  1.692280e+001  1.000000e+001
      vertex  2.397072e+001  3.487601e+001  1.000000e+001
    endloop
  endfacet
  facet normal  -0.000000e+000  0.000000e+000  1.000000e+000
    outer loop
      vertex  1.009182e+001  4.335470e+001  1.000000e+001
      vertex  8.298544e+000  4.335470e+001  1.000000e+001
      vertex  1.154261e+001  4.230064e+001  1.000000e+001
    endloop
  endfacet
  facet normal  0.000000e+000  0.000000e+000  1.000000e+000
    outer loop
      vertex  1.154261e+001  4.230064e+001  1.000000e+001
      vertex  8.298544e+000  4.335470e+001  1.000000e+001
      vertex  6.847754e+000  4.230064e+001  1.000000e+001
    endloop
  endfacet
  facet normal  -0.000000e+000  0.000000e+000  1.000000e+000
    outer loop
      vertex  1.154261e+001  4.230064e+001  1.000000e+001
      vertex  6.847754e+000  4.230064e+001  1.000000e+001
      vertex  1.209676e+001  4.059513e+001  1.000000e+001
    endloop
  endfacet
  facet normal  0.000000e+000  0.000000e+000  1.000000e+000
    outer loop
      vertex  1.209676e+001  4.059513e+001  1.000000e+001
      vertex  6.847754e+000  4.230064e+001  1.000000e+001
      vertex  6.293602e+000  4.059513e+001  1.000000e+001
    endloop
  endfacet
  facet normal  -0.000000e+000  0.000000e+000  9.999999e-001
    outer loop
      vertex  1.209676e+001  4.059513e+001  1.000000e+001
      vertex  6.293602e+000  4.059513e+001  1.000000e+001
      vertex  1.209676e+001  1.722789e+001  1.000000e+001
    endloop
  endfacet
  facet normal  0.000000e+000  0.000000e+000  9.999999e-001
    outer loop
      vertex  1.209676e+001  1.722789e+001  1.000000e+001
      vertex  6.293602e+000  4.059513e+001  1.000000e+001
      vertex  6.293602e+000  1.722789e+001  1.000000e+001
    endloop
  endfacet
  facet normal  -0.000000e+000  0.000000e+000  1.000000e+000
    outer loop
      vertex  1.209676e+001  1.722789e+001  1.000000e+001
      vertex  6.293602e+000  1.722789e+001  1.000000e+001
      vertex  1.198824e+001  1.644176e+001  1.000000e+001
    endloop
  endfacet
  facet normal  0.000000e+000  0.000000e+000  1.000000e+000
    outer loop
      vertex  1.198824e+001  1.644176e+001  1.000000e+001
      vertex  6.293602e+000  1.722789e+001  1.000000e+001
      vertex  6.402125e+000  1.644176e+001  1.000000e+001
    endloop
  endfacet
  facet normal  9.238794e-001 -3.826833e-001  0.000000e+000
    outer loop
      vertex  1.985367e+000 -9.997046e+000  1.000000e+001
      vertex  1.985367e+000 -9.997046e+000  1.100000e+002
      vertex  1.403866e+000 -1.140091e+001  1.000000e+001
    endloop
  endfacet
  facet normal  9.238794e-001 -3.826833e-001  0.000000e+000
    outer loop
      vertex  1.403866e+000 -1.140091e+001  1.000000e+001
      vertex  1.985367e+000 -9.997046e+000  1.100000e+002
      vertex  1.403866e+000 -1.140091e+001  1.100000e+002
    endloop
  endfacet
  facet normal  3.826832e-001 -9.238796e-001  0.000000e+000
    outer loop
      vertex  1.403866e+000 -1.140091e+001  1.000000e+001
      vertex  1.403866e+000 -1.140091e+001  1.100000e+002
      vertex -3.646939e-016 -1.198241e+001  1.000000e+001
    endloop
  endfacet
  facet normal  3.826832e-001 -9.238796e-001  0.000000e+000
    outer loop
      vertex -3.646939e-016 -1.198241e+001  1.000000e+001
      vertex  1.403866e+000 -1.140091e+001  1.100000e+002
      vertex -3.646939e-016 -1.198241e+001  1.100000e+002
    endloop
  endfacet
  facet normal -3.826832e-001 -9.238796e-001  -0.000000e+000
    outer loop
      vertex -3.646939e-016 -1.198241e+001  1.000000e+001
      vertex -3.646939e-016 -1.198241e+001  1.100000e+002
      vertex -1.403866e+000 -1.140091e+001  1.000000e+001
    endloop
  endfacet
  facet normal -3.826832e-001 -9.238796e-001  0.000000e+000
    outer loop
      vertex -1.403866e+000 -1.140091e+001  1.000000e+001
      vertex -3.646939e-016 -1.198241e+001  1.100000e+002
      vertex -1.403866e+000 -1.140091e+001  1.100000e+002
    endloop
  endfacet
  facet normal -9.238794e-001 -3.826833e-001  -0.000000e+000
    outer loop
      vertex -1.403866e+000 -1.140091e+001  1.000000e+001
      vertex -1.403866e+000 -1.140091e+001  1.100000e+002
      vertex -1.985367e+000 -9.997046e+000  1.000000e+001
    endloop
  endfacet
  facet normal -9.238794e-001 -3.826833e-001  0.000000e+000
    outer loop
      vertex -1.985367e+000 -9.997046e+000  1.000000e+001
      vertex -1.403866e+000 -1.140091e+001  1.100000e+002
      vertex -1.985367e+000 -9.997046e+000  1.100000e+002
    endloop
  endfacet
  facet normal -9.238794e-001  3.826833e-001  0.000000e+000
    outer loop
      vertex -1.985367e+000 -9.997046e+000  1.000000e+001
      vertex -1.985367e+000 -9.997046e+000  1.100000e+002
      vertex -1.403866e+000 -8.593179e+000  1.000000e+001
    endloop
  endfacet
  facet normal -9.238794e-001  3.826833e-001  0.000000e+000
    outer loop
      vertex -1.403866e+000 -8.593179e+000  1.000000e+001
      vertex -1.985367e+000 -9.997046e+000  1.100000e+002
      vertex -1.403866e+000 -8.593179e+000  1.100000e+002
    endloop
  endfacet
  facet normal -3.826832e-001  9.238796e-001  0.000000e+000
    outer loop
      vertex -1.403866e+000 -8.593179e+000  1.000000e+001
      vertex -1.403866e+000 -8.593179e+000  1.100000e+002
      vertex  1.215646e-016 -8.011679e+000  1.000000e+001
    endloop
  endfacet
  facet normal -3.826832e-001  9.238796e-001  0.000000e+000
    outer loop
      vertex  1.215646e-016 -8.011679e+000  1.000000e+001
      vertex -1.403866e+000 -8.593179e+000  1.100000e+002
      vertex  1.215646e-016 -8.011679e+000  1.100000e+002
    endloop
  endfacet
  facet normal  3.826832e-001  9.238796e-001  0.000000e+000
    outer loop
      vertex  1.215646e-016 -8.011679e+000  1.000000e+001
      vertex  1.215646e-016 -8.011679e+000  1.100000e+002
      vertex  1.403866e+000 -8.593179e+000  1.000000e+001
    endloop
  endfacet
  facet normal  3.826832e-001  9.238796e-001  -0.000000e+000
    outer loop
      vertex  1.403866e+000 -8.593179e+000  1.000000e+001
      vertex  1.215646e-016 -8.011679e+000  1.100000e+002
      vertex  1.403866e+000 -8.593179e+000  1.100000e+002
    endloop
  endfacet
  facet normal  9.238794e-001  3.826833e-001  0.000000e+000
    outer loop
      vertex  1.403866e+000 -8.593179e+000  1.000000e+001
      vertex  1.403866e+000 -8.593179e+000  1.100000e+002
      vertex  1.985367e+000 -9.997046e+000  1.000000e+001
    endloop
  endfacet
  facet normal  9.238794e-001  3.826833e-001  -0.000000e+000
    outer loop
      vertex  1.985367e+000 -9.997046e+000  1.000000e+001
      vertex  1.403866e+000 -8.593179e+000  1.100000e+002
      vertex  1.985367e+000 -9.997046e+000  1.100000e+002
    endloop
  endfacet
  facet normal  0.000000e+000  0.000000e+000  1.000000e+000
    outer loop
      vertex -1.403866e+000 -8.593179e+000  1.100000e+002
      vertex  1.403866e+000 -8.593179e+000  1.100000e+002
      vertex  1.215646e-016 -8.011679e+000  1.100000e+002
    endloop
  endfacet
  facet normal  -0.000000e+000  0.000000e+000  1.000000e+000
    outer loop
      vertex  1.403866e+000 -8.593179e+000  1.100000e+002
      vertex -1.403866e+000 -8.593179e+000  1.100000e+002
      vertex  1.985367e+000 -9.997046e+000  1.100000e+002
    endloop
  endfacet
  facet normal  0.000000e+000  0.000000e+000  1.000000e+000
    outer loop
      vertex  1.985367e+000 -9.997046e+000  1.100000e+002
      vertex -1.403866e+000 -8.593179e+000  1.100000e+002
      vertex -1.985367e+000 -9.997046e+000  1.100000e+002
    endloop
  endfacet
  facet normal  -0.000000e+000  0.000000e+000  1.000000e+000
    outer loop
      vertex  1.985367e+000 -9.997046e+000  1.100000e+002
      vertex -1.985367e+000 -9.997046e+000  1.100000e+002
      vertex  1.403866e+000 -1.140091e+001  1.100000e+002
    endloop
  endfacet
  facet normal  0.000000e+000  0.000000e+000  1.000000e+000
    outer loop
      vertex  1.403866e+000 -1.140091e+001  1.100000e+002
      vertex -1.985367e+000 -9.997046e+000  1.100000e+002
      vertex -1.403866e+000 -1.140091e+001  1.100000e+002
    endloop
  endfacet
  facet normal  -0.000000e+000  0.000000e+000  1.000000e+000
    outer loop
      vertex  1.403866e+000 -1.140091e+001  1.100000e+002
      vertex -1.403866e+000 -1.140091e+001  1.100000e+002
      vertex -3.646939e-016 -1.198241e+001  1.100000e+002
    endloop
  endfacet
  facet normal  -0.000000e+000  0.000000e+000 -1.000000e+000
    outer loop
      vertex -6.646740e-001  5.055759e+001  0.000000e+000
      vertex  1.125541e+000  4.998923e+001  0.000000e+000
      vertex -2.332433e+000  4.969360e+001  0.000000e+000
    endloop
  endfacet
  facet normal  0.000000e+000  0.000000e+000 -1.000000e+000
    outer loop
      vertex -1.792653e+001  8.745139e+000  0.000000e+000
      vertex -1.792653e+001  1.193772e+001  0.000000e+000
      vertex -1.750361e+001  1.384319e+001  0.000000e+000
    endloop
  endfacet
  facet normal  0.000000e+000  -0.000000e+000 -1.000000e+000
    outer loop
      vertex -1.792653e+001  8.745139e+000  0.000000e+000
      vertex -1.750361e+001  1.384319e+001  0.000000e+000
      vertex  1.792653e+001  1.356345e+001  0.000000e+000
    endloop
  endfacet
  facet normal  0.000000e+000  0.000000e+000 -1.000000e+000
    outer loop
      vertex -1.792653e+001  8.745139e+000  0.000000e+000
      vertex  1.792653e+001  1.356345e+001  0.000000e+000
      vertex -1.792653e+001  1.355886e+000  0.000000e+000
    endloop
  endfacet
  facet normal  0.000000e+000  0.000000e+000 -1.000000e+000
    outer loop
      vertex -1.792653e+001  8.745139e+000  0.000000e+000
      vertex -1.792653e+001  1.355886e+000  0.000000e+000
      vertex -1.960242e+001  1.790902e+000  0.000000e+000
    endloop
  endfacet
  facet normal  0.000000e+000  0.000000e+000 -1.000000e+000
    outer loop
      vertex -1.792653e+001  8.745139e+000  0.000000e+000
      vertex -1.960242e+001  1.790902e+000  0.000000e+000
      vertex -3.534275e+001  1.055278e+001  0.000000e+000
    endloop
  endfacet
  facet normal  0.000000e+000  0.000000e+000 -9.999999e-001
    outer loop
      vertex -1.792653e+001  8.745139e+000  0.000000e+000
      vertex -3.534275e+001  1.055278e+001  0.000000e+000
      vertex -3.679231e+001  1.211283e+001  0.000000e+000
    endloop
  endfacet
  facet normal  0.000000e+000  0.000000e+000 -1.000000e+000
    outer loop
      vertex -1.792653e+001  8.745139e+000  0.000000e+000
      vertex -3.679231e+001  1.211283e+001  0.000000e+000
      vertex -3.704805e+001  1.422697e+001  0.000000e+000
    endloop
  endfacet
  facet normal  0.000000e+000  0.000000e+000 -1.000000e+000
    outer loop
      vertex -1.792653e+001  8.745139e+000  0.000000e+000
      vertex -3.704805e+001  1.422697e+001  0.000000e+000
      vertex -3.601229e+001  1.608767e+001  0.000000e+000
    endloop
  endfacet
  facet normal  0.000000e+000  0.000000e+000 -1.000000e+000
    outer loop
      vertex -1.792653e+001  8.745139e+000  0.000000e+000
      vertex -3.601229e+001  1.608767e+001  0.000000e+000
      vertex -3.408065e+001  1.698420e+001  0.000000e+000
    endloop
  endfacet
  facet normal  0.000000e+000  0.000000e+000 -1.000000e+000
    outer loop
      vertex -1.792653e+001  8.745139e+000  0.000000e+000
      vertex -3.408065e+001  1.698420e+001  0.000000e+000
      vertex -3.199096e+001  1.657413e+001  0.000000e+000
    endloop
  endfacet
  facet normal  0.000000e+000  0.000000e+000 -9.999999e-001
    outer loop
      vertex  2.076435e+001  1.596071e+001  0.000000e+000
      vertex -1.458188e+001  1.628998e+001  0.000000e+000
      vertex -6.747360e+000  1.644176e+001  0.000000e+000
    endloop
  endfacet
  facet normal  0.000000e+000  0.000000e+000 -1.000000e+000
    outer loop
      vertex  2.076435e+001  1.596071e+001  0.000000e+000
      vertex -6.747360e+000  1.644176e+001  0.000000e+000
      vertex -2.110112e-001  1.644176e+001  0.000000e+000
    endloop
  endfacet
  facet normal  0.000000e+000  0.000000e+000 -1.000000e+000
    outer loop
      vertex  2.076435e+001  1.596071e+001  0.000000e+000
      vertex -2.110112e-001  1.644176e+001  0.000000e+000
      vertex  4.706093e+000  1.644176e+001  0.000000e+000
    endloop
  endfacet
  facet normal  0.000000e+000  0.000000e+000 -1.000000e+000
    outer loop
      vertex  2.076435e+001  1.596071e+001  0.000000e+000
      vertex  4.706093e+000  1.644176e+001  0.000000e+000
      vertex  6.402125e+000  1.644176e+001  0.000000e+000
    endloop
  endfacet
  facet normal  0.000000e+000  0.000000e+000 -1.000000e+000
    outer loop
      vertex  2.076435e+001  1.596071e+001  0.000000e+000
      vertex  6.402125e+000  1.644176e+001  0.000000e+000
      vertex  1.198824e+001  1.644176e+001  0.000000e+000
    endloop
  endfacet
  facet normal  0.000000e+000  0.000000e+000 -1.000000e+000
    outer loop
      vertex  2.076435e+001  1.596071e+001  0.000000e+000
      vertex  1.198824e+001  1.644176e+001  0.000000e+000
      vertex  1.504822e+001  1.644176e+001  0.000000e+000
    endloop
  endfacet
  facet normal  0.000000e+000  0.000000e+000 -1.000000e+000
    outer loop
      vertex  2.076435e+001  1.596071e+001  0.000000e+000
      vertex  1.504822e+001  1.644176e+001  0.000000e+000
      vertex  1.508870e+001  1.692280e+001  0.000000e+000
    endloop
  endfacet
  facet normal  0.000000e+000  0.000000e+000 -1.000000e+000
    outer loop
      vertex  2.076435e+001  1.596071e+001  0.000000e+000
      vertex  1.508870e+001  1.692280e+001  0.000000e+000
      vertex  2.397072e+001  3.487601e+001  0.000000e+000
    endloop
  endfacet
  facet normal  0.000000e+000  -0.000000e+000 -9.999999e-001
    outer loop
      vertex  1.829507e+001  3.583810e+001  0.000000e+000
      vertex  1.911980e+001  3.741426e+001  0.000000e+000
      vertex  2.371149e+001  3.663591e+001  0.000000e+000
    endloop
  endfacet
  facet normal  0.000000e+000  0.000000e+000 -1.000000e+000
    outer loop
      vertex  2.371149e+001  3.663591e+001  0.000000e+000
      vertex  1.911980e+001  3.741426e+001  0.000000e+000
      vertex  2.071346e+001  3.820463e+001  0.000000e+000
    endloop
  endfacet
  facet normal  0.000000e+000  0.000000e+000 -1.000000e+000
    outer loop
      vertex  2.371149e+001  3.663591e+001  0.000000e+000
      vertex  2.071346e+001  3.820463e+001  0.000000e+000
      vertex  2.246733e+001  3.790733e+001  0.000000e+000
    endloop
  endfacet
  facet normal  0.000000e+000  0.000000e+000 -1.000000e+000
    outer loop
      vertex  1.829507e+001  3.583810e+001  0.000000e+000
      vertex  2.371149e+001  3.663591e+001  0.000000e+000
      vertex  1.508870e+001  1.692280e+001  0.000000e+000
    endloop
  endfacet
  facet normal  0.000000e+000  0.000000e+000 -1.000000e+000
    outer loop
      vertex  1.508870e+001  1.692280e+001  0.000000e+000
      vertex  2.371149e+001  3.663591e+001  0.000000e+000
      vertex  2.397072e+001  3.487601e+001  0.000000e+000
    endloop
  endfacet
  facet normal  0.000000e+000  0.000000e+000 -1.000000e+000
    outer loop
      vertex  2.076435e+001  1.596071e+001  0.000000e+000
      vertex  1.978395e+001  1.424298e+001  0.000000e+000
      vertex -1.458188e+001  1.628998e+001  0.000000e+000
    endloop
  endfacet
  facet normal  0.000000e+000  -0.000000e+000 -1.000000e+000
    outer loop
      vertex -1.458188e+001  1.628998e+001  0.000000e+000
      vertex  1.978395e+001  1.424298e+001  0.000000e+000
      vertex -1.631428e+001  1.539082e+001  0.000000e+000
    endloop
  endfacet
  facet normal  0.000000e+000  0.000000e+000 -1.000000e+000
    outer loop
      vertex  1.978395e+001  1.424298e+001  0.000000e+000
      vertex  1.792653e+001  1.356345e+001  0.000000e+000
      vertex -1.631428e+001  1.539082e+001  0.000000e+000
    endloop
  endfacet
  facet normal  0.000000e+000  -0.000000e+000 -1.000000e+000
    outer loop
      vertex -1.631428e+001  1.539082e+001  0.000000e+000
      vertex  1.792653e+001  1.356345e+001  0.000000e+000
      vertex -1.750361e+001  1.384319e+001  0.000000e+000
    endloop
  endfacet
  facet normal  0.000000e+000  0.000000e+000 -1.000000e+000
    outer loop
      vertex -1.719503e+001 -1.371179e+001  0.000000e+000
      vertex -1.792653e+001 -1.098182e+001  0.000000e+000
      vertex  1.792653e+001 -1.309982e+001  0.000000e+000
    endloop
  endfacet
  facet normal  0.000000e+000  0.000000e+000 -1.000000e+000
    outer loop
      vertex  1.792653e+001 -1.309982e+001  0.000000e+000
      vertex -1.792653e+001 -1.098182e+001  0.000000e+000
      vertex -1.792653e+001  1.355886e+000  0.000000e+000
    endloop
  endfacet
  facet normal  0.000000e+000  0.000000e+000 -1.000000e+000
    outer loop
      vertex  1.792653e+001 -1.309982e+001  0.000000e+000
      vertex -1.792653e+001  1.355886e+000  0.000000e+000
      vertex  1.792653e+001  1.356345e+001  0.000000e+000
    endloop
  endfacet
  facet normal  0.000000e+000  0.000000e+000 -1.000000e+000
    outer loop
      vertex  1.625555e+001 -1.599402e+001  0.000000e+000
      vertex -1.519656e+001 -1.571026e+001  0.000000e+000
      vertex  1.747879e+001 -1.477079e+001  0.000000e+000
    endloop
  endfacet
  facet normal  -0.000000e+000  0.000000e+000 -1.000000e+000
    outer loop
      vertex  1.747879e+001 -1.477079e+001  0.000000e+000
      vertex -1.519656e+001 -1.571026e+001  0.000000e+000
      vertex -1.719503e+001 -1.371179e+001  0.000000e+000
    endloop
  endfacet
  facet normal  0.000000e+000  0.000000e+000 -1.000000e+000
    outer loop
      vertex  1.747879e+001 -1.477079e+001  0.000000e+000
      vertex -1.719503e+001 -1.371179e+001  0.000000e+000
      vertex  1.792653e+001 -1.309982e+001  0.000000e+000
    endloop
  endfacet
  facet normal  0.000000e+000  0.000000e+000 -1.000000e+000
    outer loop
      vertex -1.246659e+001 -1.644176e+001  0.000000e+000
      vertex -1.519656e+001 -1.571026e+001  0.000000e+000
      vertex  1.458458e+001 -1.644176e+001  0.000000e+000
    endloop
  endfacet
  facet normal  0.000000e+000  0.000000e+000 -1.000000e+000
    outer loop
      vertex  1.458458e+001 -1.644176e+001  0.000000e+000
      vertex -1.519656e+001 -1.571026e+001  0.000000e+000
      vertex  1.625555e+001 -1.599402e+001  0.000000e+000
    endloop
  endfacet
  facet normal  0.000000e+000  0.000000e+000 -1.000000e+000
    outer loop
      vertex -1.276923e+001  4.603733e+001  0.000000e+000
      vertex -2.012680e+001  4.685569e+001  0.000000e+000
      vertex -1.395928e+001  4.812768e+001  0.000000e+000
    endloop
  endfacet
  facet normal  -0.000000e+000  0.000000e+000 -1.000000e+000
    outer loop
      vertex -1.395928e+001  4.812768e+001  0.000000e+000
      vertex -2.012680e+001  4.685569e+001  0.000000e+000
      vertex -1.850651e+001  4.863345e+001  0.000000e+000
    endloop
  endfacet
  facet normal  0.000000e+000  0.000000e+000 -9.999999e-001
    outer loop
      vertex -1.395928e+001  4.812768e+001  0.000000e+000
      vertex -1.850651e+001  4.863345e+001  0.000000e+000
      vertex -1.615073e+001  4.911931e+001  0.000000e+000
    endloop
  endfacet
  facet normal  0.000000e+000  0.000000e+000 -1.000000e+000
    outer loop
      vertex -1.276923e+001  4.603733e+001  0.000000e+000
      vertex -6.827581e+000  1.722789e+001  0.000000e+000
      vertex -2.012680e+001  4.685569e+001  0.000000e+000
    endloop
  endfacet
  facet normal  0.000000e+000  -0.000000e+000 -9.999999e-001
    outer loop
      vertex -2.012680e+001  4.685569e+001  0.000000e+000
      vertex -6.827581e+000  1.722789e+001  0.000000e+000
      vertex -2.039270e+001  4.446508e+001  0.000000e+000
    endloop
  endfacet
  facet normal  0.000000e+000  0.000000e+000 -1.000000e+000
    outer loop
      vertex -6.827581e+000  1.722789e+001  0.000000e+000
      vertex -6.747360e+000  1.644176e+001  0.000000e+000
      vertex -2.039270e+001  4.446508e+001  0.000000e+000
    endloop
  endfacet
  facet normal  0.000000e+000  0.000000e+000 -1.000000e+000
    outer loop
      vertex -2.039270e+001  4.446508e+001  0.000000e+000
      vertex -6.747360e+000  1.644176e+001  0.000000e+000
      vertex -1.458188e+001  1.628998e+001  0.000000e+000
    endloop
  endfacet
  facet normal  0.000000e+000  0.000000e+000 -1.000000e+000
    outer loop
      vertex  4.706093e+000  1.644176e+001  0.000000e+000
      vertex -2.110112e-001  1.644176e+001  0.000000e+000
      vertex  4.697174e+000  1.665080e+001  0.000000e+000
    endloop
  endfacet
  facet normal  -0.000000e+000  0.000000e+000 -1.000000e+000
    outer loop
      vertex  4.697174e+000  1.665080e+001  0.000000e+000
      vertex -2.110112e-001  1.644176e+001  0.000000e+000
      vertex -2.900785e+000  4.790339e+001  0.000000e+000
    endloop
  endfacet
  facet normal  0.000000e+000  0.000000e+000 -1.000000e+000
    outer loop
      vertex  4.697174e+000  1.665080e+001  0.000000e+000
      vertex -2.900785e+000  4.790339e+001  0.000000e+000
      vertex  1.989528e+000  4.832148e+001  0.000000e+000
    endloop
  endfacet
  facet normal  -0.000000e+000  0.000000e+000 -1.000000e+000
    outer loop
      vertex  1.989528e+000  4.832148e+001  0.000000e+000
      vertex -2.900785e+000  4.790339e+001  0.000000e+000
      vertex -2.332433e+000  4.969360e+001  0.000000e+000
    endloop
  endfacet
  facet normal  0.000000e+000  0.000000e+000 -1.000000e+000
    outer loop
      vertex  1.989528e+000  4.832148e+001  0.000000e+000
      vertex -2.332433e+000  4.969360e+001  0.000000e+000
      vertex  1.125541e+000  4.998923e+001  0.000000e+000
    endloop
  endfacet
  facet normal  0.000000e+000  0.000000e+000 -1.000000e+000
    outer loop
      vertex  1.209676e+001  4.059513e+001  0.000000e+000
      vertex  6.847754e+000  4.230064e+001  0.000000e+000
      vertex  1.154261e+001  4.230064e+001  0.000000e+000
    endloop
  endfacet
  facet normal  0.000000e+000  0.000000e+000 -1.000000e+000
    outer loop
      vertex  1.154261e+001  4.230064e+001  0.000000e+000
      vertex  6.847754e+000  4.230064e+001  0.000000e+000
      vertex  8.298544e+000  4.335470e+001  0.000000e+000
    endloop
  endfacet
  facet normal  0.000000e+000  0.000000e+000 -1.000000e+000
    outer loop
      vertex  1.154261e+001  4.230064e+001  0.000000e+000
      vertex  8.298544e+000  4.335470e+001  0.000000e+000
      vertex  1.009182e+001  4.335470e+001  0.000000e+000
    endloop
  endfacet
  facet normal  0.000000e+000  0.000000e+000 -1.000000e+000
    outer loop
      vertex  6.847754e+000  4.230064e+001  0.000000e+000
      vertex  1.209676e+001  4.059513e+001  0.000000e+000
      vertex  6.293602e+000  4.059513e+001  0.000000e+000
    endloop
  endfacet
  facet normal  0.000000e+000  0.000000e+000 -9.999999e-001
    outer loop
      vertex  6.293602e+000  4.059513e+001  0.000000e+000
      vertex  1.209676e+001  4.059513e+001  0.000000e+000
      vertex  1.209676e+001  1.722789e+001  0.000000e+000
    endloop
  endfacet
  facet normal  0.000000e+000  0.000000e+000 -9.999999e-001
    outer loop
      vertex  6.293602e+000  4.059513e+001  0.000000e+000
      vertex  1.209676e+001  1.722789e+001  0.000000e+000
      vertex  6.293602e+000  1.722789e+001  0.000000e+000
    endloop
  endfacet
  facet normal  0.000000e+000  0.000000e+000 -1.000000e+000
    outer loop
      vertex  6.293602e+000  1.722789e+001  0.000000e+000
      vertex  1.209676e+001  1.722789e+001  0.000000e+000
      vertex  1.198824e+001  1.644176e+001  0.000000e+000
    endloop
  endfacet
  facet normal  0.000000e+000  0.000000e+000 -1.000000e+000
    outer loop
      vertex  6.293602e+000  1.722789e+001  0.000000e+000
      vertex  1.198824e+001  1.644176e+001  0.000000e+000
      vertex  6.402125e+000  1.644176e+001  0.000000e+000
    endloop
  endfacet
  facet normal  1.000000e+000  -0.000000e+000  0.000000e+000
    outer loop
      vertex  1.792653e+001  1.356345e+001  1.000000e+001
      vertex  1.792653e+001 -1.309982e+001  1.000000e+001
      vertex  1.792653e+001  1.356345e+001  0.000000e+000
    endloop
  endfacet
  facet normal  1.000000e+000  0.000000e+000  0.000000e+000
    outer loop
      vertex  1.792653e+001  1.356345e+001  0.000000e+000
      vertex  1.792653e+001 -1.309982e+001  1.000000e+001
      vertex  1.792653e+001 -1.309982e+001  0.000000e+000
    endloop
  endfacet
  facet normal  9.659258e-001 -2.588189e-001  0.000000e+000
    outer loop
      vertex  1.792653e+001 -1.309982e+001  0.000000e+000
      vertex  1.792653e+001 -1.309982e+001  1.000000e+001
      vertex  1.747879e+001 -1.477079e+001  0.000000e+000
    endloop
  endfacet
  facet normal  9.659258e-001 -2.588189e-001  0.000000e+000
    outer loop
      vertex  1.747879e+001 -1.477079e+001  0.000000e+000
      vertex  1.792653e+001 -1.309982e+001  1.000000e+001
      vertex  1.747879e+001 -1.477079e+001  1.000000e+001
    endloop
  endfacet
  facet normal  7.071068e-001 -7.071068e-001  0.000000e+000
    outer loop
      vertex  1.747879e+001 -1.477079e+001  0.000000e+000
      vertex  1.747879e+001 -1.477079e+001  1.000000e+001
      vertex  1.625555e+001 -1.599402e+001  0.000000e+000
    endloop
  endfacet
  facet normal  7.071068e-001 -7.071068e-001  0.000000e+000
    outer loop
      vertex  1.625555e+001 -1.599402e+001  0.000000e+000
      vertex  1.747879e+001 -1.477079e+001  1.000000e+001
      vertex  1.625555e+001 -1.599402e+001  1.000000e+001
    endloop
  endfacet
  facet normal  2.588189e-001 -9.659258e-001  0.000000e+000
    outer loop
      vertex  1.625555e+001 -1.599402e+001  0.000000e+000
      vertex  1.625555e+001 -1.599402e+001  1.000000e+001
      vertex  1.458458e+001 -1.644176e+001  0.000000e+000
    endloop
  endfacet
  facet normal  2.588189e-001 -9.659258e-001  0.000000e+000
    outer loop
      vertex  1.458458e+001 -1.644176e+001  0.000000e+000
      vertex  1.625555e+001 -1.599402e+001  1.000000e+001
      vertex  1.458458e+001 -1.644176e+001  1.000000e+001
    endloop
  endfacet
  facet normal  0.000000e+000 -1.000000e+000  0.000000e+000
    outer loop
      vertex  1.458458e+001 -1.644176e+001  1.000000e+001
      vertex -1.246659e+001 -1.644176e+001  1.000000e+001
      vertex  1.458458e+001 -1.644176e+001  0.000000e+000
    endloop
  endfacet
  facet normal  0.000000e+000 -1.000000e+000  0.000000e+000
    outer loop
      vertex  1.458458e+001 -1.644176e+001  0.000000e+000
      vertex -1.246659e+001 -1.644176e+001  1.000000e+001
      vertex -1.246659e+001 -1.644176e+001  0.000000e+000
    endloop
  endfacet
  facet normal -2.588190e-001 -9.659259e-001  -0.000000e+000
    outer loop
      vertex -1.246659e+001 -1.644176e+001  0.000000e+000
      vertex -1.246659e+001 -1.644176e+001  1.000000e+001
      vertex -1.519656e+001 -1.571026e+001  0.000000e+000
    endloop
  endfacet
  facet normal -2.588190e-001 -9.659259e-001  0.000000e+000
    outer loop
      vertex -1.519656e+001 -1.571026e+001  0.000000e+000
      vertex -1.246659e+001 -1.644176e+001  1.000000e+001
      vertex -1.519656e+001 -1.571026e+001  1.000000e+001
    endloop
  endfacet
  facet normal -7.071068e-001 -7.071068e-001  -0.000000e+000
    outer loop
      vertex -1.519656e+001 -1.571026e+001  0.000000e+000
      vertex -1.519656e+001 -1.571026e+001  1.000000e+001
      vertex -1.719503e+001 -1.371179e+001  0.000000e+000
    endloop
  endfacet
  facet normal -7.071068e-001 -7.071068e-001  0.000000e+000
    outer loop
      vertex -1.719503e+001 -1.371179e+001  0.000000e+000
      vertex -1.519656e+001 -1.571026e+001  1.000000e+001
      vertex -1.719503e+001 -1.371179e+001  1.000000e+001
    endloop
  endfacet
  facet normal -9.659259e-001 -2.588190e-001  -0.000000e+000
    outer loop
      vertex -1.719503e+001 -1.371179e+001  0.000000e+000
      vertex -1.719503e+001 -1.371179e+001  1.000000e+001
      vertex -1.792653e+001 -1.098182e+001  0.000000e+000
    endloop
  endfacet
  facet normal -9.659259e-001 -2.588190e-001  0.000000e+000
    outer loop
      vertex -1.792653e+001 -1.098182e+001  0.000000e+000
      vertex -1.719503e+001 -1.371179e+001  1.000000e+001
      vertex -1.792653e+001 -1.098182e+001  1.000000e+001
    endloop
  endfacet
  facet normal -9.999999e-001  -0.000000e+000  0.000000e+000
    outer loop
      vertex -1.792653e+001 -1.098182e+001  1.000000e+001
      vertex -1.792653e+001  1.355886e+000  1.000000e+001
      vertex -1.792653e+001 -1.098182e+001  0.000000e+000
    endloop
  endfacet
  facet normal -9.999999e-001  0.000000e+000  0.000000e+000
    outer loop
      vertex -1.792653e+001 -1.098182e+001  0.000000e+000
      vertex -1.792653e+001  1.355886e+000  1.000000e+001
      vertex -1.792653e+001  1.355886e+000  0.000000e+000
    endloop
  endfacet
  facet normal -2.512464e-001 -9.679232e-001  0.000000e+000
    outer loop
      vertex -1.960242e+001  1.790902e+000  1.000000e+001
      vertex -1.960242e+001  1.790902e+000  0.000000e+000
      vertex -1.792653e+001  1.355886e+000  1.000000e+001
    endloop
  endfacet
  facet normal -2.512464e-001 -9.679232e-001  -0.000000e+000
    outer loop
      vertex -1.792653e+001  1.355886e+000  1.000000e+001
      vertex -1.960242e+001  1.790902e+000  0.000000e+000
      vertex -1.792653e+001  1.355886e+000  0.000000e+000
    endloop
  endfacet
  facet normal -4.863745e-001 -8.737504e-001  0.000000e+000
    outer loop
      vertex -1.960242e+001  1.790902e+000  1.000000e+001
      vertex -3.534275e+001  1.055278e+001  1.000000e+001
      vertex -1.960242e+001  1.790902e+000  0.000000e+000
    endloop
  endfacet
  facet normal -4.863745e-001 -8.737504e-001  0.000000e+000
    outer loop
      vertex -1.960242e+001  1.790902e+000  0.000000e+000
      vertex -3.534275e+001  1.055278e+001  1.000000e+001
      vertex -3.534275e+001  1.055278e+001  0.000000e+000
    endloop
  endfacet
  facet normal -7.325732e-001 -6.806882e-001  -0.000000e+000
    outer loop
      vertex -3.534275e+001  1.055278e+001  0.000000e+000
      vertex -3.534275e+001  1.055278e+001  1.000000e+001
      vertex -3.679231e+001  1.211283e+001  0.000000e+000
    endloop
  endfacet
  facet normal -7.325732e-001 -6.806882e-001  0.000000e+000
    outer loop
      vertex -3.679231e+001  1.211283e+001  0.000000e+000
      vertex -3.534275e+001  1.055278e+001  1.000000e+001
      vertex -3.679231e+001  1.211283e+001  1.000000e+001
    endloop
  endfacet
  facet normal -9.927626e-001 -1.200932e-001  -0.000000e+000
    outer loop
      vertex -3.679231e+001  1.211283e+001  0.000000e+000
      vertex -3.679231e+001  1.211283e+001  1.000000e+001
      vertex -3.704805e+001  1.422697e+001  0.000000e+000
    endloop
  endfacet
  facet normal -9.927626e-001 -1.200932e-001  0.000000e+000
    outer loop
      vertex -3.704805e+001  1.422697e+001  0.000000e+000
      vertex -3.679231e+001  1.211283e+001  1.000000e+001
      vertex -3.704805e+001  1.422697e+001  1.000000e+001
    endloop
  endfacet
  facet normal -8.737499e-001  4.863754e-001  0.000000e+000
    outer loop
      vertex -3.704805e+001  1.422697e+001  0.000000e+000
      vertex -3.704805e+001  1.422697e+001  1.000000e+001
      vertex -3.601229e+001  1.608767e+001  0.000000e+000
    endloop
  endfacet
  facet normal -8.737499e-001  4.863754e-001  0.000000e+000
    outer loop
      vertex -3.601229e+001  1.608767e+001  0.000000e+000
      vertex -3.704805e+001  1.422697e+001  1.000000e+001
      vertex -3.601229e+001  1.608767e+001  1.000000e+001
    endloop
  endfacet
  facet normal -4.209957e-001  9.070627e-001  0.000000e+000
    outer loop
      vertex -3.601229e+001  1.608767e+001  0.000000e+000
      vertex -3.601229e+001  1.608767e+001  1.000000e+001
      vertex -3.408065e+001  1.698420e+001  0.000000e+000
    endloop
  endfacet
  facet normal -4.209957e-001  9.070627e-001  0.000000e+000
    outer loop
      vertex -3.408065e+001  1.698420e+001  0.000000e+000
      vertex -3.601229e+001  1.608767e+001  1.000000e+001
      vertex -3.408065e+001  1.698420e+001  1.000000e+001
    endloop
  endfacet
  facet normal  1.925651e-001  9.812842e-001  0.000000e+000
    outer loop
      vertex -3.408065e+001  1.698420e+001  0.000000e+000
      vertex -3.408065e+001  1.698420e+001  1.000000e+001
      vertex -3.199096e+001  1.657413e+001  0.000000e+000
    endloop
  endfacet
  facet normal  1.925651e-001  9.812842e-001  -0.000000e+000
    outer loop
      vertex -3.199096e+001  1.657413e+001  0.000000e+000
      vertex -3.408065e+001  1.698420e+001  1.000000e+001
      vertex -3.199096e+001  1.657413e+001  1.000000e+001
    endloop
  endfacet
  facet normal  4.863745e-001  8.737504e-001  0.000000e+000
    outer loop
      vertex -3.199096e+001  1.657413e+001  1.000000e+001
      vertex -1.792653e+001  8.745139e+000  1.000000e+001
      vertex -3.199096e+001  1.657413e+001  0.000000e+000
    endloop
  endfacet
  facet normal  4.863745e-001  8.737504e-001  0.000000e+000
    outer loop
      vertex -3.199096e+001  1.657413e+001  0.000000e+000
      vertex -1.792653e+001  8.745139e+000  1.000000e+001
      vertex -1.792653e+001  8.745139e+000  0.000000e+000
    endloop
  endfacet
  facet normal -1.000000e+000  -0.000000e+000  0.000000e+000
    outer loop
      vertex -1.792653e+001  8.745139e+000  1.000000e+001
      vertex -1.792653e+001  1.193772e+001  1.000000e+001
      vertex -1.792653e+001  8.745139e+000  0.000000e+000
    endloop
  endfacet
  facet normal -1.000000e+000  0.000000e+000  0.000000e+000
    outer loop
      vertex -1.792653e+001  8.745139e+000  0.000000e+000
      vertex -1.792653e+001  1.193772e+001  1.000000e+001
      vertex -1.792653e+001  1.193772e+001  0.000000e+000
    endloop
  endfacet
  facet normal -9.762433e-001  2.166770e-001  0.000000e+000
    outer loop
      vertex -1.792653e+001  1.193772e+001  0.000000e+000
      vertex -1.792653e+001  1.193772e+001  1.000000e+001
      vertex -1.750361e+001  1.384319e+001  0.000000e+000
    endloop
  endfacet
  facet normal -9.762433e-001  2.166770e-001  0.000000e+000
    outer loop
      vertex -1.750361e+001  1.384319e+001  0.000000e+000
      vertex -1.792653e+001  1.193772e+001  1.000000e+001
      vertex -1.750361e+001  1.384319e+001  1.000000e+001
    endloop
  endfacet
  facet normal -7.929097e-001  6.093391e-001  0.000000e+000
    outer loop
      vertex -1.750361e+001  1.384319e+001  0.000000e+000
      vertex -1.750361e+001  1.384319e+001  1.000000e+001
      vertex -1.631428e+001  1.539082e+001  0.000000e+000
    endloop
  endfacet
  facet normal -7.929097e-001  6.093391e-001  0.000000e+000
    outer loop
      vertex -1.631428e+001  1.539082e+001  0.000000e+000
      vertex -1.750361e+001  1.384319e+001  1.000000e+001
      vertex -1.631428e+001  1.539082e+001  1.000000e+001
    endloop
  endfacet
  facet normal -4.606719e-001  8.875705e-001  0.000000e+000
    outer loop
      vertex -1.631428e+001  1.539082e+001  0.000000e+000
      vertex -1.631428e+001  1.539082e+001  1.000000e+001
      vertex -1.458188e+001  1.628998e+001  0.000000e+000
    endloop
  endfacet
  facet normal -4.606719e-001  8.875705e-001  0.000000e+000
    outer loop
      vertex -1.458188e+001  1.628998e+001  0.000000e+000
      vertex -1.631428e+001  1.539082e+001  1.000000e+001
      vertex -1.458188e+001  1.628998e+001  1.000000e+001
    endloop
  endfacet
  facet normal -9.793879e-001 -2.019885e-001  0.000000e+000
    outer loop
      vertex -1.458188e+001  1.628998e+001  1.000000e+001
      vertex -2.039270e+001  4.446508e+001  1.000000e+001
      vertex -1.458188e+001  1.628998e+001  0.000000e+000
    endloop
  endfacet
  facet normal -9.793879e-001 -2.019885e-001  0.000000e+000
    outer loop
      vertex -1.458188e+001  1.628998e+001  0.000000e+000
      vertex -2.039270e+001  4.446508e+001  1.000000e+001
      vertex -2.039270e+001  4.446508e+001  0.000000e+000
    endloop
  endfacet
  facet normal -9.938711e-001  1.105455e-001  0.000000e+000
    outer loop
      vertex -2.039270e+001  4.446508e+001  0.000000e+000
      vertex -2.039270e+001  4.446508e+001  1.000000e+001
      vertex -2.012680e+001  4.685569e+001  0.000000e+000
    endloop
  endfacet
  facet normal -9.938711e-001  1.105455e-001  0.000000e+000
    outer loop
      vertex -2.012680e+001  4.685569e+001  0.000000e+000
      vertex -2.039270e+001  4.446508e+001  1.000000e+001
      vertex -2.012680e+001  4.685569e+001  1.000000e+001
    endloop
  endfacet
  facet normal -7.390820e-001  6.736155e-001  0.000000e+000
    outer loop
      vertex -2.012680e+001  4.685569e+001  0.000000e+000
      vertex -2.012680e+001  4.685569e+001  1.000000e+001
      vertex -1.850651e+001  4.863345e+001  0.000000e+000
    endloop
  endfacet
  facet normal -7.390820e-001  6.736155e-001  0.000000e+000
    outer loop
      vertex -1.850651e+001  4.863345e+001  0.000000e+000
      vertex -2.012680e+001  4.685569e+001  1.000000e+001
      vertex -1.850651e+001  4.863345e+001  1.000000e+001
    endloop
  endfacet
  facet normal -2.019883e-001  9.793880e-001  0.000000e+000
    outer loop
      vertex -1.850651e+001  4.863345e+001  0.000000e+000
      vertex -1.850651e+001  4.863345e+001  1.000000e+001
      vertex -1.615073e+001  4.911931e+001  0.000000e+000
    endloop
  endfacet
  facet normal -2.019883e-001  9.793880e-001  0.000000e+000
    outer loop
      vertex -1.615073e+001  4.911931e+001  0.000000e+000
      vertex -1.850651e+001  4.863345e+001  1.000000e+001
      vertex -1.615073e+001  4.911931e+001  1.000000e+001
    endloop
  endfacet
  facet normal  4.122570e-001  9.110676e-001  0.000000e+000
    outer loop
      vertex -1.615073e+001  4.911931e+001  0.000000e+000
      vertex -1.615073e+001  4.911931e+001  1.000000e+001
      vertex -1.395928e+001  4.812768e+001  0.000000e+000
    endloop
  endfacet
  facet normal  4.122570e-001  9.110676e-001  -0.000000e+000
    outer loop
      vertex -1.395928e+001  4.812768e+001  0.000000e+000
      vertex -1.615073e+001  4.911931e+001  1.000000e+001
      vertex -1.395928e+001  4.812768e+001  1.000000e+001
    endloop
  endfacet
  facet normal  8.690355e-001  4.947495e-001  0.000000e+000
    outer loop
      vertex -1.395928e+001  4.812768e+001  0.000000e+000
      vertex -1.395928e+001  4.812768e+001  1.000000e+001
      vertex -1.276923e+001  4.603733e+001  0.000000e+000
    endloop
  endfacet
  facet normal  8.690355e-001  4.947495e-001  -0.000000e+000
    outer loop
      vertex -1.276923e+001  4.603733e+001  0.000000e+000
      vertex -1.395928e+001  4.812768e+001  1.000000e+001
      vertex -1.276923e+001  4.603733e+001  1.000000e+001
    endloop
  endfacet
  facet normal  9.793878e-001  2.019885e-001  0.000000e+000
    outer loop
      vertex -1.276923e+001  4.603733e+001  1.000000e+001
      vertex -6.827581e+000  1.722789e+001  1.000000e+001
      vertex -1.276923e+001  4.603733e+001  0.000000e+000
    endloop
  endfacet
  facet normal  9.793878e-001  2.019885e-001  0.000000e+000
    outer loop
      vertex -1.276923e+001  4.603733e+001  0.000000e+000
      vertex -6.827581e+000  1.722789e+001  1.000000e+001
      vertex -6.827581e+000  1.722789e+001  0.000000e+000
    endloop
  endfacet
  facet normal  9.948336e-001  1.015184e-001  -0.000000e+000
    outer loop
      vertex -6.747360e+000  1.644176e+001  1.000000e+001
      vertex -6.747360e+000  1.644176e+001  0.000000e+000
      vertex -6.827581e+000  1.722789e+001  1.000000e+001
    endloop
  endfacet
  facet normal  9.948336e-001  1.015184e-001  0.000000e+000
    outer loop
      vertex -6.827581e+000  1.722789e+001  1.000000e+001
      vertex -6.747360e+000  1.644176e+001  0.000000e+000
      vertex -6.827581e+000  1.722789e+001  0.000000e+000
    endloop
  endfacet
  facet normal  0.000000e+000  1.000000e+000  0.000000e+000
    outer loop
      vertex -6.747360e+000  1.644176e+001  1.000000e+001
      vertex -2.110112e-001  1.644176e+001  1.000000e+001
      vertex -6.747360e+000  1.644176e+001  0.000000e+000
    endloop
  endfacet
  facet normal  0.000000e+000  1.000000e+000  0.000000e+000
    outer loop
      vertex -6.747360e+000  1.644176e+001  0.000000e+000
      vertex -2.110112e-001  1.644176e+001  1.000000e+001
      vertex -2.110112e-001  1.644176e+001  0.000000e+000
    endloop
  endfacet
  facet normal -9.963653e-001 -8.518304e-002  0.000000e+000
    outer loop
      vertex -2.110112e-001  1.644176e+001  1.000000e+001
      vertex -2.900785e+000  4.790339e+001  1.000000e+001
      vertex -2.110112e-001  1.644176e+001  0.000000e+000
    endloop
  endfacet
  facet normal -9.963653e-001 -8.518304e-002  0.000000e+000
    outer loop
      vertex -2.110112e-001  1.644176e+001  0.000000e+000
      vertex -2.900785e+000  4.790339e+001  1.000000e+001
      vertex -2.900785e+000  4.790339e+001  0.000000e+000
    endloop
  endfacet
  facet normal -9.531198e-001  3.025931e-001  0.000000e+000
    outer loop
      vertex -2.900785e+000  4.790339e+001  0.000000e+000
      vertex -2.900785e+000  4.790339e+001  1.000000e+001
      vertex -2.332433e+000  4.969360e+001  0.000000e+000
    endloop
  endfacet
  facet normal -9.531198e-001  3.025931e-001  0.000000e+000
    outer loop
      vertex -2.332433e+000  4.969360e+001  0.000000e+000
      vertex -2.900785e+000  4.790339e+001  1.000000e+001
      vertex -2.332433e+000  4.969360e+001  1.000000e+001
    endloop
  endfacet
  facet normal -4.599912e-001  8.879234e-001  0.000000e+000
    outer loop
      vertex -2.332433e+000  4.969360e+001  0.000000e+000
      vertex -2.332433e+000  4.969360e+001  1.000000e+001
      vertex -6.646740e-001  5.055759e+001  0.000000e+000
    endloop
  endfacet
  facet normal -4.599912e-001  8.879234e-001  0.000000e+000
    outer loop
      vertex -6.646740e-001  5.055759e+001  0.000000e+000
      vertex -2.332433e+000  4.969360e+001  1.000000e+001
      vertex -6.646740e-001  5.055759e+001  1.000000e+001
    endloop
  endfacet
  facet normal  3.025953e-001  9.531192e-001  0.000000e+000
    outer loop
      vertex -6.646740e-001  5.055759e+001  0.000000e+000
      vertex -6.646740e-001  5.055759e+001  1.000000e+001
      vertex  1.125541e+000  4.998923e+001  0.000000e+000
    endloop
  endfacet
  facet normal  3.025953e-001  9.531192e-001  -0.000000e+000
    outer loop
      vertex  1.125541e+000  4.998923e+001  0.000000e+000
      vertex -6.646740e-001  5.055759e+001  1.000000e+001
      vertex  1.125541e+000  4.998923e+001  1.000000e+001
    endloop
  endfacet
  facet normal  8.879231e-001  4.599921e-001  0.000000e+000
    outer loop
      vertex  1.125541e+000  4.998923e+001  0.000000e+000
      vertex  1.125541e+000  4.998923e+001  1.000000e+001
      vertex  1.989528e+000  4.832148e+001  0.000000e+000
    endloop
  endfacet
  facet normal  8.879231e-001  4.599921e-001  -0.000000e+000
    outer loop
      vertex  1.989528e+000  4.832148e+001  0.000000e+000
      vertex  1.125541e+000  4.998923e+001  1.000000e+001
      vertex  1.989528e+000  4.832148e+001  1.000000e+001
    endloop
  endfacet
  facet normal  9.963653e-001  8.518302e-002  0.000000e+000
    outer loop
      vertex  1.989528e+000  4.832148e+001  1.000000e+001
      vertex  4.697174e+000  1.665080e+001  1.000000e+001
      vertex  1.989528e+000  4.832148e+001  0.000000e+000
    endloop
  endfacet
  facet normal  9.963653e-001  8.518302e-002  0.000000e+000
    outer loop
      vertex  1.989528e+000  4.832148e+001  0.000000e+000
      vertex  4.697174e+000  1.665080e+001  1.000000e+001
      vertex  4.697174e+000  1.665080e+001  0.000000e+000
    endloop
  endfacet
  facet normal  9.990909e-001  4.263001e-002  -0.000000e+000
    outer loop
      vertex  4.706093e+000  1.644176e+001  1.000000e+001
      vertex  4.706093e+000  1.644176e+001  0.000000e+000
      vertex  4.697174e+000  1.665080e+001  1.000000e+001
    endloop
  endfacet
  facet normal  9.990909e-001  4.263001e-002  0.000000e+000
    outer loop
      vertex  4.697174e+000  1.665080e+001  1.000000e+001
      vertex  4.706093e+000  1.644176e+001  0.000000e+000
      vertex  4.697174e+000  1.665080e+001  0.000000e+000
    endloop
  endfacet
  facet normal  0.000000e+000  1.000000e+000  0.000000e+000
    outer loop
      vertex  4.706093e+000  1.644176e+001  1.000000e+001
      vertex  6.402125e+000  1.644176e+001  1.000000e+001
      vertex  4.706093e+000  1.644176e+001  0.000000e+000
    endloop
  endfacet
  facet normal  0.000000e+000  1.000000e+000  0.000000e+000
    outer loop
      vertex  4.706093e+000  1.644176e+001  0.000000e+000
      vertex  6.402125e+000  1.644176e+001  1.000000e+001
      vertex  6.402125e+000  1.644176e+001  0.000000e+000
    endloop
  endfacet
  facet normal -9.906055e-001 -1.367506e-001  0.000000e+000
    outer loop
      vertex  6.293602e+000  1.722789e+001  1.000000e+001
      vertex  6.293602e+000  1.722789e+001  0.000000e+000
      vertex  6.402125e+000  1.644176e+001  1.000000e+001
    endloop
  endfacet
  facet normal -9.906055e-001 -1.367506e-001  -0.000000e+000
    outer loop
      vertex  6.402125e+000  1.644176e+001  1.000000e+001
      vertex  6.293602e+000  1.722789e+001  0.000000e+000
      vertex  6.402125e+000  1.644176e+001  0.000000e+000
    endloop
  endfacet
  facet normal -1.000000e+000  -0.000000e+000  0.000000e+000
    outer loop
      vertex  6.293602e+000  1.722789e+001  1.000000e+001
      vertex  6.293602e+000  4.059513e+001  1.000000e+001
      vertex  6.293602e+000  1.722789e+001  0.000000e+000
    endloop
  endfacet
  facet normal -1.000000e+000  0.000000e+000  0.000000e+000
    outer loop
      vertex  6.293602e+000  1.722789e+001  0.000000e+000
      vertex  6.293602e+000  4.059513e+001  1.000000e+001
      vertex  6.293602e+000  4.059513e+001  0.000000e+000
    endloop
  endfacet
  facet normal -9.510565e-001  3.090171e-001  0.000000e+000
    outer loop
      vertex  6.293602e+000  4.059513e+001  0.000000e+000
      vertex  6.293602e+000  4.059513e+001  1.000000e+001
      vertex  6.847754e+000  4.230064e+001  0.000000e+000
    endloop
  endfacet
  facet normal -9.510565e-001  3.090171e-001  0.000000e+000
    outer loop
      vertex  6.847754e+000  4.230064e+001  0.000000e+000
      vertex  6.293602e+000  4.059513e+001  1.000000e+001
      vertex  6.847754e+000  4.230064e+001  1.000000e+001
    endloop
  endfacet
  facet normal -5.877859e-001  8.090166e-001  0.000000e+000
    outer loop
      vertex  6.847754e+000  4.230064e+001  0.000000e+000
      vertex  6.847754e+000  4.230064e+001  1.000000e+001
      vertex  8.298544e+000  4.335470e+001  0.000000e+000
    endloop
  endfacet
  facet normal -5.877859e-001  8.090166e-001  0.000000e+000
    outer loop
      vertex  8.298544e+000  4.335470e+001  0.000000e+000
      vertex  6.847754e+000  4.230064e+001  1.000000e+001
      vertex  8.298544e+000  4.335470e+001  1.000000e+001
    endloop
  endfacet
  facet normal  0.000000e+000  1.000000e+000  0.000000e+000
    outer loop
      vertex  8.298544e+000  4.335470e+001  0.000000e+000
      vertex  8.298544e+000  4.335470e+001  1.000000e+001
      vertex  1.009182e+001  4.335470e+001  0.000000e+000
    endloop
  endfacet
  facet normal  0.000000e+000  1.000000e+000  -0.000000e+000
    outer loop
      vertex  1.009182e+001  4.335470e+001  0.000000e+000
      vertex  8.298544e+000  4.335470e+001  1.000000e+001
      vertex  1.009182e+001  4.335470e+001  1.000000e+001
    endloop
  endfacet
  facet normal  5.877859e-001  8.090166e-001  0.000000e+000
    outer loop
      vertex  1.009182e+001  4.335470e+001  0.000000e+000
      vertex  1.009182e+001  4.335470e+001  1.000000e+001
      vertex  1.154261e+001  4.230064e+001  0.000000e+000
    endloop
  endfacet
  facet normal  5.877859e-001  8.090166e-001  -0.000000e+000
    outer loop
      vertex  1.154261e+001  4.230064e+001  0.000000e+000
      vertex  1.009182e+001  4.335470e+001  1.000000e+001
      vertex  1.154261e+001  4.230064e+001  1.000000e+001
    endloop
  endfacet
  facet normal  9.510565e-001  3.090171e-001  0.000000e+000
    outer loop
      vertex  1.154261e+001  4.230064e+001  0.000000e+000
      vertex  1.154261e+001  4.230064e+001  1.000000e+001
      vertex  1.209676e+001  4.059513e+001  0.000000e+000
    endloop
  endfacet
  facet normal  9.510565e-001  3.090171e-001  -0.000000e+000
    outer loop
      vertex  1.209676e+001  4.059513e+001  0.000000e+000
      vertex  1.154261e+001  4.230064e+001  1.000000e+001
      vertex  1.209676e+001  4.059513e+001  1.000000e+001
    endloop
  endfacet
  facet normal  1.000000e+000  -0.000000e+000  0.000000e+000
    outer loop
      vertex  1.209676e+001  4.059513e+001  1.000000e+001
      vertex  1.209676e+001  1.722789e+001  1.000000e+001
      vertex  1.209676e+001  4.059513e+001  0.000000e+000
    endloop
  endfacet
  facet normal  1.000000e+000  0.000000e+000  0.000000e+000
    outer loop
      vertex  1.209676e+001  4.059513e+001  0.000000e+000
      vertex  1.209676e+001  1.722789e+001  1.000000e+001
      vertex  1.209676e+001  1.722789e+001  0.000000e+000
    endloop
  endfacet
  facet normal  9.906055e-001 -1.367506e-001  0.000000e+000
    outer loop
      vertex  1.198824e+001  1.644176e+001  1.000000e+001
      vertex  1.198824e+001  1.644176e+001  0.000000e+000
      vertex  1.209676e+001  1.722789e+001  1.000000e+001
    endloop
  endfacet
  facet normal  9.906055e-001 -1.367506e-001  0.000000e+000
    outer loop
      vertex  1.209676e+001  1.722789e+001  1.000000e+001
      vertex  1.198824e+001  1.644176e+001  0.000000e+000
      vertex  1.209676e+001  1.722789e+001  0.000000e+000
    endloop
  endfacet
  facet normal  0.000000e+000  1.000000e+000  0.000000e+000
    outer loop
      vertex  1.198824e+001  1.644176e+001  1.000000e+001
      vertex  1.504822e+001  1.644176e+001  1.000000e+001
      vertex  1.198824e+001  1.644176e+001  0.000000e+000
    endloop
  endfacet
  facet normal  0.000000e+000  1.000000e+000  0.000000e+000
    outer loop
      vertex  1.198824e+001  1.644176e+001  0.000000e+000
      vertex  1.504822e+001  1.644176e+001  1.000000e+001
      vertex  1.504822e+001  1.644176e+001  0.000000e+000
    endloop
  endfacet
  facet normal -9.964774e-001  8.386094e-002  0.000000e+000
    outer loop
      vertex  1.508870e+001  1.692280e+001  1.000000e+001
      vertex  1.508870e+001  1.692280e+001  0.000000e+000
      vertex  1.504822e+001  1.644176e+001  1.000000e+001
    endloop
  endfacet
  facet normal -9.964774e-001  8.386094e-002  0.000000e+000
    outer loop
      vertex  1.504822e+001  1.644176e+001  1.000000e+001
      vertex  1.508870e+001  1.692280e+001  0.000000e+000
      vertex  1.504822e+001  1.644176e+001  0.000000e+000
    endloop
  endfacet
  facet normal -9.859353e-001  1.671279e-001  0.000000e+000
    outer loop
      vertex  1.508870e+001  1.692280e+001  1.000000e+001
      vertex  1.829507e+001  3.583810e+001  1.000000e+001
      vertex  1.508870e+001  1.692280e+001  0.000000e+000
    endloop
  endfacet
  facet normal -9.859353e-001  1.671279e-001  0.000000e+000
    outer loop
      vertex  1.508870e+001  1.692280e+001  0.000000e+000
      vertex  1.829507e+001  3.583810e+001  1.000000e+001
      vertex  1.829507e+001  3.583810e+001  0.000000e+000
    endloop
  endfacet
  facet normal -8.860348e-001  4.636188e-001  0.000000e+000
    outer loop
      vertex  1.829507e+001  3.583810e+001  0.000000e+000
      vertex  1.829507e+001  3.583810e+001  1.000000e+001
      vertex  1.911980e+001  3.741426e+001  0.000000e+000
    endloop
  endfacet
  facet normal -8.860348e-001  4.636188e-001  0.000000e+000
    outer loop
      vertex  1.911980e+001  3.741426e+001  0.000000e+000
      vertex  1.829507e+001  3.583810e+001  1.000000e+001
      vertex  1.911980e+001  3.741426e+001  1.000000e+001
    endloop
  endfacet
  facet normal -4.443077e-001  8.958743e-001  0.000000e+000
    outer loop
      vertex  1.911980e+001  3.741426e+001  0.000000e+000
      vertex  1.911980e+001  3.741426e+001  1.000000e+001
      vertex  2.071346e+001  3.820463e+001  0.000000e+000
    endloop
  endfacet
  facet normal -4.443077e-001  8.958743e-001  0.000000e+000
    outer loop
      vertex  2.071346e+001  3.820463e+001  0.000000e+000
      vertex  1.911980e+001  3.741426e+001  1.000000e+001
      vertex  2.071346e+001  3.820463e+001  1.000000e+001
    endloop
  endfacet
  facet normal  1.671280e-001  9.859353e-001  0.000000e+000
    outer loop
      vertex  2.071346e+001  3.820463e+001  0.000000e+000
      vertex  2.071346e+001  3.820463e+001  1.000000e+001
      vertex  2.246733e+001  3.790733e+001  0.000000e+000
    endloop
  endfacet
  facet normal  1.671280e-001  9.859353e-001  -0.000000e+000
    outer loop
      vertex  2.246733e+001  3.790733e+001  0.000000e+000
      vertex  2.071346e+001  3.820463e+001  1.000000e+001
      vertex  2.246733e+001  3.790733e+001  1.000000e+001
    endloop
  endfacet
  facet normal  7.147267e-001  6.994038e-001  0.000000e+000
    outer loop
      vertex  2.246733e+001  3.790733e+001  0.000000e+000
      vertex  2.246733e+001  3.790733e+001  1.000000e+001
      vertex  2.371149e+001  3.663591e+001  0.000000e+000
    endloop
  endfacet
  facet normal  7.147267e-001  6.994038e-001  -0.000000e+000
    outer loop
      vertex  2.371149e+001  3.663591e+001  0.000000e+000
      vertex  2.246733e+001  3.790733e+001  1.000000e+001
      vertex  2.371149e+001  3.663591e+001  1.000000e+001
    endloop
  endfacet
  facet normal  9.893253e-001  1.457232e-001  0.000000e+000
    outer loop
      vertex  2.371149e+001  3.663591e+001  0.000000e+000
      vertex  2.371149e+001  3.663591e+001  1.000000e+001
      vertex  2.397072e+001  3.487601e+001  0.000000e+000
    endloop
  endfacet
  facet normal  9.893253e-001  1.457232e-001  -0.000000e+000
    outer loop
      vertex  2.397072e+001  3.487601e+001  0.000000e+000
      vertex  2.371149e+001  3.663591e+001  1.000000e+001
      vertex  2.397072e+001  3.487601e+001  1.000000e+001
    endloop
  endfacet
  facet normal  9.859353e-001 -1.671280e-001  0.000000e+000
    outer loop
      vertex  2.397072e+001  3.487601e+001  1.000000e+001
      vertex  2.076435e+001  1.596071e+001  1.000000e+001
      vertex  2.397072e+001  3.487601e+001  0.000000e+000
    endloop
  endfacet
  facet normal  9.859353e-001 -1.671280e-001  0.000000e+000
    outer loop
      vertex  2.397072e+001  3.487601e+001  0.000000e+000
      vertex  2.076435e+001  1.596071e+001  1.000000e+001
      vertex  2.076435e+001  1.596071e+001  0.000000e+000
    endloop
  endfacet
  facet normal  8.684959e-001 -4.956965e-001  0.000000e+000
    outer loop
      vertex  2.076435e+001  1.596071e+001  0.000000e+000
      vertex  2.076435e+001  1.596071e+001  1.000000e+001
      vertex  1.978395e+001  1.424298e+001  0.000000e+000
    endloop
  endfacet
  facet normal  8.684959e-001 -4.956965e-001  0.000000e+000
    outer loop
      vertex  1.978395e+001  1.424298e+001  0.000000e+000
      vertex  2.076435e+001  1.596071e+001  1.000000e+001
      vertex  1.978395e+001  1.424298e+001  1.000000e+001
    endloop
  endfacet
  facet normal  3.435743e-001 -9.391255e-001  0.000000e+000
    outer loop
      vertex  1.978395e+001  1.424298e+001  0.000000e+000
      vertex  1.978395e+001  1.424298e+001  1.000000e+001
      vertex  1.792653e+001  1.356345e+001  0.000000e+000
    endloop
  endfacet
  facet normal  3.435743e-001 -9.391255e-001  0.000000e+000
    outer loop
      vertex  1.792653e+001  1.356345e+001  0.000000e+000
      vertex  1.978395e+001  1.424298e+001  1.000000e+001
      vertex  1.792653e+001  1.356345e+001  1.000000e+001
    endloop
  endfacet
endsolid CATIA STL
